G04 #@! TF.GenerationSoftware,KiCad,Pcbnew,9.0.1*
G04 #@! TF.CreationDate,2026-05-01T07:32:56-04:00*
G04 #@! TF.ProjectId,controller,636f6e74-726f-46c6-9c65-722e6b696361,rev?*
G04 #@! TF.SameCoordinates,Original*
G04 #@! TF.FileFunction,Copper,L3,Inr*
G04 #@! TF.FilePolarity,Positive*
%FSLAX46Y46*%
G04 Gerber Fmt 4.6, Leading zero omitted, Abs format (unit mm)*
G04 Created by KiCad (PCBNEW 9.0.1) date 2026-05-01 07:32:56*
%MOMM*%
%LPD*%
G01*
G04 APERTURE LIST*
G04 #@! TA.AperFunction,ComponentPad*
%ADD10R,1.700000X1.700000*%
G04 #@! TD*
G04 #@! TA.AperFunction,ComponentPad*
%ADD11C,1.700000*%
G04 #@! TD*
G04 #@! TA.AperFunction,ViaPad*
%ADD12C,0.450000*%
G04 #@! TD*
G04 APERTURE END LIST*
D10*
G04 #@! TO.N,GND*
G04 #@! TO.C,J5*
X235839000Y-71247000D03*
D11*
G04 #@! TO.N,/SPI2_SCK*
X238379000Y-71247000D03*
G04 #@! TO.N,/SPI2_MOSI*
X240919000Y-71247000D03*
G04 #@! TO.N,/SPI2_MISO*
X243459000Y-71247000D03*
G04 #@! TO.N,/W5500_NSS*
X245999000Y-71247000D03*
G04 #@! TO.N,/MEM_NSS*
X248539000Y-71247000D03*
G04 #@! TD*
D10*
G04 #@! TO.N,GND*
G04 #@! TO.C,J4*
X245237000Y-35449000D03*
D11*
G04 #@! TO.N,/SPI1_MOSI*
X242697000Y-35449000D03*
G04 #@! TO.N,/SPI1_MISO*
X240157000Y-35449000D03*
G04 #@! TO.N,/SPI1_SCK*
X237617000Y-35449000D03*
G04 #@! TO.N,/ADC_NSS*
X235077000Y-35449000D03*
G04 #@! TD*
D10*
G04 #@! TO.N,+3V3D*
G04 #@! TO.C,J8*
X206375000Y-35306000D03*
D11*
G04 #@! TO.N,GND*
X206375000Y-32766000D03*
G04 #@! TO.N,+3V3D*
X206375000Y-30226000D03*
G04 #@! TD*
D10*
G04 #@! TO.N,/TX-*
G04 #@! TO.C,J1*
X206375000Y-58547000D03*
D11*
G04 #@! TO.N,/TX+*
X206375000Y-61087000D03*
G04 #@! TO.N,/RX-*
X206375000Y-63627000D03*
G04 #@! TO.N,/RX+*
X206375000Y-66167000D03*
G04 #@! TO.N,/LINKLED*
X206375000Y-68707000D03*
G04 #@! TO.N,/ACTLED*
X206375000Y-71247000D03*
G04 #@! TD*
D10*
G04 #@! TO.N,/S2+*
G04 #@! TO.C,J6*
X251079000Y-38370000D03*
D11*
G04 #@! TO.N,/S2-*
X251079000Y-40910000D03*
G04 #@! TO.N,GND*
X251079000Y-43450000D03*
G04 #@! TO.N,/S1-*
X251079000Y-45990000D03*
G04 #@! TO.N,/S1+*
X251079000Y-48530000D03*
G04 #@! TO.N,GND*
X251079000Y-51070000D03*
G04 #@! TO.N,/SDI*
X251079000Y-53610000D03*
G04 #@! TO.N,GND*
X251079000Y-56150000D03*
G04 #@! TD*
D12*
G04 #@! TO.N,GND*
X219964000Y-50927000D03*
X215011000Y-66779700D03*
X241681000Y-59563000D03*
X223393000Y-48022000D03*
X221869000Y-72517000D03*
X221234000Y-67691000D03*
X219964000Y-66040000D03*
X220091000Y-62357000D03*
X233934000Y-68326000D03*
X225933000Y-65532000D03*
X215265000Y-53340000D03*
X229743000Y-67818000D03*
X218948000Y-46355000D03*
X224917000Y-72517000D03*
X223135000Y-67818000D03*
X234569000Y-65151000D03*
X223901000Y-38227000D03*
X237617000Y-67564000D03*
X241808000Y-48022000D03*
X219329000Y-41529000D03*
X246634000Y-61722000D03*
X223589003Y-29972000D03*
X221361000Y-38227000D03*
X236601000Y-59563000D03*
X214884000Y-63373000D03*
G04 #@! TO.N,+3V3D*
X239268000Y-68326000D03*
X226441000Y-38100000D03*
X213233000Y-70739000D03*
X218694000Y-47260000D03*
X237871000Y-47895000D03*
X247650000Y-68961000D03*
X220345000Y-41656000D03*
X244856000Y-52467000D03*
X231013000Y-66040000D03*
X250571000Y-68961000D03*
X233172000Y-37862000D03*
X215265000Y-38481000D03*
X222758000Y-29972000D03*
X222123000Y-59436000D03*
G04 #@! TO.N,+3V3A*
X224155000Y-70104000D03*
X217297000Y-68326000D03*
X217363000Y-70612000D03*
X217170000Y-65024000D03*
X220091000Y-70612000D03*
X217503300Y-63293700D03*
G04 #@! TO.N,/UART_TX*
X219329000Y-39624000D03*
X221361000Y-39624000D03*
G04 #@! TO.N,/SPI2_MISO*
X224282000Y-57531000D03*
X225933000Y-54229000D03*
X224314000Y-53721000D03*
G04 #@! TO.N,/SPI2_MOSI*
X225114000Y-56261000D03*
X228473000Y-62103000D03*
X236982000Y-62611000D03*
X236982000Y-64389000D03*
G04 #@! TO.N,/BOOT0*
X230251000Y-29718000D03*
X230632000Y-42545000D03*
G04 #@! TO.N,/SWDIO*
X231648000Y-38227000D03*
X230505000Y-43688000D03*
G04 #@! TO.N,/W5500_RST*
X225933000Y-58166000D03*
X225933000Y-53229000D03*
G04 #@! TO.N,/ADC_NSS*
X228346000Y-42180000D03*
X228346000Y-40513000D03*
X235077000Y-40498997D03*
X235077000Y-39370000D03*
G04 #@! TO.N,/W5500_INTn*
X226695000Y-53229000D03*
X226695000Y-58166000D03*
G04 #@! TO.N,/W5500_NSS*
X230886000Y-59817000D03*
X230886000Y-57150000D03*
G04 #@! TO.N,/MEM_NSS*
X248031000Y-66421000D03*
X249301000Y-66421000D03*
G04 #@! TO.N,/SPI1_SCK*
X232664000Y-41798997D03*
G04 #@! TO.N,/SPI1_MISO*
X236855000Y-42448998D03*
G04 #@! TO.N,/SPI1_MOSI*
X234569000Y-43069000D03*
X237490000Y-43098997D03*
G04 #@! TD*
G04 #@! TA.AperFunction,Conductor*
G04 #@! TO.N,+3V3A*
G36*
X225622039Y-61741685D02*
G01*
X225667794Y-61794489D01*
X225679000Y-61846000D01*
X225679000Y-65287714D01*
X225662388Y-65349713D01*
X225629682Y-65406361D01*
X225629682Y-65406362D01*
X225607500Y-65489147D01*
X225607500Y-65574852D01*
X225629682Y-65657637D01*
X225629683Y-65657640D01*
X225662387Y-65714285D01*
X225679000Y-65776285D01*
X225679000Y-71377000D01*
X225659315Y-71444039D01*
X225606511Y-71489794D01*
X225555000Y-71501000D01*
X215389000Y-71501000D01*
X215321961Y-71481315D01*
X215276206Y-71428511D01*
X215265000Y-71377000D01*
X215265000Y-67648147D01*
X220908500Y-67648147D01*
X220908500Y-67733853D01*
X220908788Y-67734925D01*
X220930682Y-67816637D01*
X220930685Y-67816644D01*
X220973530Y-67890855D01*
X220973534Y-67890860D01*
X220973535Y-67890862D01*
X221034138Y-67951465D01*
X221034140Y-67951466D01*
X221034144Y-67951469D01*
X221108355Y-67994314D01*
X221108362Y-67994318D01*
X221191147Y-68016500D01*
X221191149Y-68016500D01*
X221276851Y-68016500D01*
X221276853Y-68016500D01*
X221359638Y-67994318D01*
X221433862Y-67951465D01*
X221494465Y-67890862D01*
X221537318Y-67816638D01*
X221548435Y-67775147D01*
X222809500Y-67775147D01*
X222809500Y-67860852D01*
X222831682Y-67943637D01*
X222831685Y-67943644D01*
X222874530Y-68017855D01*
X222874534Y-68017860D01*
X222874535Y-68017862D01*
X222935138Y-68078465D01*
X222935140Y-68078466D01*
X222935144Y-68078469D01*
X223009355Y-68121314D01*
X223009362Y-68121318D01*
X223092147Y-68143500D01*
X223092149Y-68143500D01*
X223177851Y-68143500D01*
X223177853Y-68143500D01*
X223260638Y-68121318D01*
X223334862Y-68078465D01*
X223395465Y-68017862D01*
X223438318Y-67943638D01*
X223460500Y-67860853D01*
X223460500Y-67775147D01*
X223438318Y-67692362D01*
X223412791Y-67648147D01*
X223395469Y-67618144D01*
X223395463Y-67618136D01*
X223334863Y-67557536D01*
X223334855Y-67557530D01*
X223260644Y-67514685D01*
X223260640Y-67514683D01*
X223260638Y-67514682D01*
X223177853Y-67492500D01*
X223092147Y-67492500D01*
X223009362Y-67514682D01*
X223009355Y-67514685D01*
X222935144Y-67557530D01*
X222935136Y-67557536D01*
X222874536Y-67618136D01*
X222874530Y-67618144D01*
X222831685Y-67692355D01*
X222831682Y-67692362D01*
X222809500Y-67775147D01*
X221548435Y-67775147D01*
X221559500Y-67733853D01*
X221559500Y-67648147D01*
X221537318Y-67565362D01*
X221508058Y-67514682D01*
X221494469Y-67491144D01*
X221494463Y-67491136D01*
X221433863Y-67430536D01*
X221433855Y-67430530D01*
X221359644Y-67387685D01*
X221359640Y-67387683D01*
X221359638Y-67387682D01*
X221276853Y-67365500D01*
X221191147Y-67365500D01*
X221108362Y-67387682D01*
X221108355Y-67387685D01*
X221034144Y-67430530D01*
X221034136Y-67430536D01*
X220973536Y-67491136D01*
X220973530Y-67491144D01*
X220930685Y-67565355D01*
X220930682Y-67565362D01*
X220908500Y-67648147D01*
X215265000Y-67648147D01*
X215265000Y-67023985D01*
X215281613Y-66961985D01*
X215314318Y-66905338D01*
X215336500Y-66822553D01*
X215336500Y-66736847D01*
X215314318Y-66654062D01*
X215281612Y-66597413D01*
X215265000Y-66535414D01*
X215265000Y-65997147D01*
X219638500Y-65997147D01*
X219638500Y-66082852D01*
X219660682Y-66165637D01*
X219660685Y-66165644D01*
X219703530Y-66239855D01*
X219703534Y-66239860D01*
X219703535Y-66239862D01*
X219764138Y-66300465D01*
X219764140Y-66300466D01*
X219764144Y-66300469D01*
X219838355Y-66343314D01*
X219838362Y-66343318D01*
X219921147Y-66365500D01*
X219921149Y-66365500D01*
X220006851Y-66365500D01*
X220006853Y-66365500D01*
X220089638Y-66343318D01*
X220163862Y-66300465D01*
X220224465Y-66239862D01*
X220267318Y-66165638D01*
X220289500Y-66082853D01*
X220289500Y-65997147D01*
X220267318Y-65914362D01*
X220234489Y-65857500D01*
X220224469Y-65840144D01*
X220224463Y-65840136D01*
X220163863Y-65779536D01*
X220163855Y-65779530D01*
X220089644Y-65736685D01*
X220089640Y-65736683D01*
X220089638Y-65736682D01*
X220006853Y-65714500D01*
X219921147Y-65714500D01*
X219838362Y-65736682D01*
X219838355Y-65736685D01*
X219764144Y-65779530D01*
X219764136Y-65779536D01*
X219703536Y-65840136D01*
X219703530Y-65840144D01*
X219660685Y-65914355D01*
X219660682Y-65914362D01*
X219638500Y-65997147D01*
X215265000Y-65997147D01*
X215265000Y-62314147D01*
X219765500Y-62314147D01*
X219765500Y-62399852D01*
X219787682Y-62482637D01*
X219787685Y-62482644D01*
X219830530Y-62556855D01*
X219830534Y-62556860D01*
X219830535Y-62556862D01*
X219891138Y-62617465D01*
X219891140Y-62617466D01*
X219891144Y-62617469D01*
X219965355Y-62660314D01*
X219965362Y-62660318D01*
X220048147Y-62682500D01*
X220048149Y-62682500D01*
X220133851Y-62682500D01*
X220133853Y-62682500D01*
X220216638Y-62660318D01*
X220290862Y-62617465D01*
X220351465Y-62556862D01*
X220394318Y-62482638D01*
X220416500Y-62399853D01*
X220416500Y-62314147D01*
X220394318Y-62231362D01*
X220394314Y-62231355D01*
X220351469Y-62157144D01*
X220351463Y-62157136D01*
X220290863Y-62096536D01*
X220290855Y-62096530D01*
X220216644Y-62053685D01*
X220216640Y-62053683D01*
X220216638Y-62053682D01*
X220133853Y-62031500D01*
X220048147Y-62031500D01*
X219965362Y-62053682D01*
X219965355Y-62053685D01*
X219891144Y-62096530D01*
X219891136Y-62096536D01*
X219830536Y-62157136D01*
X219830530Y-62157144D01*
X219787685Y-62231355D01*
X219787682Y-62231362D01*
X219765500Y-62314147D01*
X215265000Y-62314147D01*
X215265000Y-61846000D01*
X215284685Y-61778961D01*
X215337489Y-61733206D01*
X215389000Y-61722000D01*
X225555000Y-61722000D01*
X225622039Y-61741685D01*
G37*
G04 #@! TD.AperFunction*
G04 #@! TD*
G04 #@! TA.AperFunction,Conductor*
G04 #@! TO.N,+3V3D*
G36*
X252735395Y-25600972D02*
G01*
X252904907Y-25615802D01*
X252926192Y-25619555D01*
X252956008Y-25627544D01*
X253085317Y-25662192D01*
X253105618Y-25669581D01*
X253254925Y-25739204D01*
X253273626Y-25750001D01*
X253408582Y-25844497D01*
X253425132Y-25858386D01*
X253541613Y-25974867D01*
X253555502Y-25991419D01*
X253649996Y-26126370D01*
X253660797Y-26145078D01*
X253730415Y-26294374D01*
X253737808Y-26314686D01*
X253780444Y-26473807D01*
X253784197Y-26495092D01*
X253799028Y-26664603D01*
X253799500Y-26675411D01*
X253799500Y-74924588D01*
X253799028Y-74935395D01*
X253799028Y-74935396D01*
X253784197Y-75104907D01*
X253780444Y-75126192D01*
X253737808Y-75285313D01*
X253730415Y-75305625D01*
X253660798Y-75454919D01*
X253649991Y-75473638D01*
X253555507Y-75608575D01*
X253541613Y-75625132D01*
X253425132Y-75741613D01*
X253408574Y-75755507D01*
X253273634Y-75849992D01*
X253254919Y-75860798D01*
X253105625Y-75930415D01*
X253085313Y-75937808D01*
X252926192Y-75980444D01*
X252904907Y-75984197D01*
X252752758Y-75997508D01*
X252735394Y-75999028D01*
X252724588Y-75999500D01*
X204475412Y-75999500D01*
X204464605Y-75999028D01*
X204445194Y-75997329D01*
X204295092Y-75984197D01*
X204273807Y-75980444D01*
X204114686Y-75937808D01*
X204094374Y-75930415D01*
X203945080Y-75860798D01*
X203926370Y-75849996D01*
X203791419Y-75755502D01*
X203774867Y-75741613D01*
X203658386Y-75625132D01*
X203644497Y-75608582D01*
X203550001Y-75473626D01*
X203539204Y-75454925D01*
X203469581Y-75305618D01*
X203462191Y-75285313D01*
X203419555Y-75126192D01*
X203415802Y-75104906D01*
X203400972Y-74935395D01*
X203400500Y-74924588D01*
X203400500Y-72474147D01*
X221543500Y-72474147D01*
X221543500Y-72559852D01*
X221565682Y-72642637D01*
X221565685Y-72642644D01*
X221608530Y-72716855D01*
X221608534Y-72716860D01*
X221608535Y-72716862D01*
X221669138Y-72777465D01*
X221669140Y-72777466D01*
X221669144Y-72777469D01*
X221743355Y-72820314D01*
X221743362Y-72820318D01*
X221826147Y-72842500D01*
X221826149Y-72842500D01*
X221911851Y-72842500D01*
X221911853Y-72842500D01*
X221994638Y-72820318D01*
X222068862Y-72777465D01*
X222129465Y-72716862D01*
X222172318Y-72642638D01*
X222194500Y-72559853D01*
X222194500Y-72474147D01*
X224591500Y-72474147D01*
X224591500Y-72559852D01*
X224613682Y-72642637D01*
X224613685Y-72642644D01*
X224656530Y-72716855D01*
X224656534Y-72716860D01*
X224656535Y-72716862D01*
X224717138Y-72777465D01*
X224717140Y-72777466D01*
X224717144Y-72777469D01*
X224791355Y-72820314D01*
X224791362Y-72820318D01*
X224874147Y-72842500D01*
X224874149Y-72842500D01*
X224959851Y-72842500D01*
X224959853Y-72842500D01*
X225042638Y-72820318D01*
X225116862Y-72777465D01*
X225177465Y-72716862D01*
X225220318Y-72642638D01*
X225242500Y-72559853D01*
X225242500Y-72474147D01*
X225220318Y-72391362D01*
X225220314Y-72391355D01*
X225177469Y-72317144D01*
X225177463Y-72317136D01*
X225116863Y-72256536D01*
X225116855Y-72256530D01*
X225042644Y-72213685D01*
X225042640Y-72213683D01*
X225042638Y-72213682D01*
X224959853Y-72191500D01*
X224874147Y-72191500D01*
X224791362Y-72213682D01*
X224791355Y-72213685D01*
X224717144Y-72256530D01*
X224717136Y-72256536D01*
X224656536Y-72317136D01*
X224656530Y-72317144D01*
X224613685Y-72391355D01*
X224613682Y-72391362D01*
X224591500Y-72474147D01*
X222194500Y-72474147D01*
X222172318Y-72391362D01*
X222172314Y-72391355D01*
X222129469Y-72317144D01*
X222129463Y-72317136D01*
X222068863Y-72256536D01*
X222068855Y-72256530D01*
X221994644Y-72213685D01*
X221994640Y-72213683D01*
X221994638Y-72213682D01*
X221911853Y-72191500D01*
X221826147Y-72191500D01*
X221743362Y-72213682D01*
X221743355Y-72213685D01*
X221669144Y-72256530D01*
X221669136Y-72256536D01*
X221608536Y-72317136D01*
X221608530Y-72317144D01*
X221565685Y-72391355D01*
X221565682Y-72391362D01*
X221543500Y-72474147D01*
X203400500Y-72474147D01*
X203400500Y-71153379D01*
X205424500Y-71153379D01*
X205424500Y-71340620D01*
X205461025Y-71524243D01*
X205461027Y-71524251D01*
X205532676Y-71697228D01*
X205532681Y-71697237D01*
X205636697Y-71852907D01*
X205636700Y-71852911D01*
X205769088Y-71985299D01*
X205769092Y-71985302D01*
X205924762Y-72089318D01*
X205924768Y-72089321D01*
X205924769Y-72089322D01*
X206097749Y-72160973D01*
X206281374Y-72197498D01*
X206281379Y-72197499D01*
X206281383Y-72197500D01*
X206281384Y-72197500D01*
X206468617Y-72197500D01*
X206468618Y-72197499D01*
X206652251Y-72160973D01*
X206825231Y-72089322D01*
X206980908Y-71985302D01*
X207113302Y-71852908D01*
X207217322Y-71697231D01*
X207288973Y-71524251D01*
X207325500Y-71340616D01*
X207325500Y-71153384D01*
X207288973Y-70969749D01*
X207217322Y-70796769D01*
X207217321Y-70796768D01*
X207217318Y-70796762D01*
X207113302Y-70641092D01*
X207113299Y-70641088D01*
X206980911Y-70508700D01*
X206980907Y-70508697D01*
X206825237Y-70404681D01*
X206825228Y-70404676D01*
X206652251Y-70333027D01*
X206652243Y-70333025D01*
X206468620Y-70296500D01*
X206468616Y-70296500D01*
X206281384Y-70296500D01*
X206281379Y-70296500D01*
X206097756Y-70333025D01*
X206097748Y-70333027D01*
X205924771Y-70404676D01*
X205924762Y-70404681D01*
X205769092Y-70508697D01*
X205769088Y-70508700D01*
X205636700Y-70641088D01*
X205636697Y-70641092D01*
X205532681Y-70796762D01*
X205532676Y-70796771D01*
X205461027Y-70969748D01*
X205461025Y-70969756D01*
X205424500Y-71153379D01*
X203400500Y-71153379D01*
X203400500Y-68613379D01*
X205424500Y-68613379D01*
X205424500Y-68800620D01*
X205461025Y-68984243D01*
X205461027Y-68984251D01*
X205532676Y-69157228D01*
X205532681Y-69157237D01*
X205636697Y-69312907D01*
X205636700Y-69312911D01*
X205769088Y-69445299D01*
X205769092Y-69445302D01*
X205924762Y-69549318D01*
X205924768Y-69549321D01*
X205924769Y-69549322D01*
X206097749Y-69620973D01*
X206281379Y-69657499D01*
X206281383Y-69657500D01*
X206281384Y-69657500D01*
X206468617Y-69657500D01*
X206468618Y-69657499D01*
X206652251Y-69620973D01*
X206825231Y-69549322D01*
X206980908Y-69445302D01*
X207113302Y-69312908D01*
X207217322Y-69157231D01*
X207288973Y-68984251D01*
X207325500Y-68800616D01*
X207325500Y-68613384D01*
X207288973Y-68429749D01*
X207217322Y-68256769D01*
X207217321Y-68256768D01*
X207217318Y-68256762D01*
X207113302Y-68101092D01*
X207113299Y-68101088D01*
X206980911Y-67968700D01*
X206980907Y-67968697D01*
X206825237Y-67864681D01*
X206825228Y-67864676D01*
X206652251Y-67793027D01*
X206652243Y-67793025D01*
X206468620Y-67756500D01*
X206468616Y-67756500D01*
X206281384Y-67756500D01*
X206281379Y-67756500D01*
X206097756Y-67793025D01*
X206097748Y-67793027D01*
X205924771Y-67864676D01*
X205924762Y-67864681D01*
X205769092Y-67968697D01*
X205769088Y-67968700D01*
X205636700Y-68101088D01*
X205636697Y-68101092D01*
X205532681Y-68256762D01*
X205532676Y-68256771D01*
X205461027Y-68429748D01*
X205461025Y-68429756D01*
X205424500Y-68613379D01*
X203400500Y-68613379D01*
X203400500Y-66073379D01*
X205424500Y-66073379D01*
X205424500Y-66260620D01*
X205461025Y-66444243D01*
X205461027Y-66444251D01*
X205532676Y-66617228D01*
X205532681Y-66617237D01*
X205636697Y-66772907D01*
X205636700Y-66772911D01*
X205769088Y-66905299D01*
X205769092Y-66905302D01*
X205924762Y-67009318D01*
X205924768Y-67009321D01*
X205924769Y-67009322D01*
X206097749Y-67080973D01*
X206281379Y-67117499D01*
X206281383Y-67117500D01*
X206281384Y-67117500D01*
X206468617Y-67117500D01*
X206468618Y-67117499D01*
X206652251Y-67080973D01*
X206825231Y-67009322D01*
X206980908Y-66905302D01*
X207113302Y-66772908D01*
X207217322Y-66617231D01*
X207288973Y-66444251D01*
X207325500Y-66260616D01*
X207325500Y-66073384D01*
X207288973Y-65889749D01*
X207217322Y-65716769D01*
X207217321Y-65716768D01*
X207217318Y-65716762D01*
X207113302Y-65561092D01*
X207113299Y-65561088D01*
X206980911Y-65428700D01*
X206980907Y-65428697D01*
X206825237Y-65324681D01*
X206825228Y-65324676D01*
X206652251Y-65253027D01*
X206652243Y-65253025D01*
X206468620Y-65216500D01*
X206468616Y-65216500D01*
X206281384Y-65216500D01*
X206281379Y-65216500D01*
X206097756Y-65253025D01*
X206097748Y-65253027D01*
X205924771Y-65324676D01*
X205924762Y-65324681D01*
X205769092Y-65428697D01*
X205769088Y-65428700D01*
X205636700Y-65561088D01*
X205636697Y-65561092D01*
X205532681Y-65716762D01*
X205532676Y-65716771D01*
X205461027Y-65889748D01*
X205461025Y-65889756D01*
X205424500Y-66073379D01*
X203400500Y-66073379D01*
X203400500Y-63533379D01*
X205424500Y-63533379D01*
X205424500Y-63720620D01*
X205461025Y-63904243D01*
X205461027Y-63904251D01*
X205532676Y-64077228D01*
X205532681Y-64077237D01*
X205636697Y-64232907D01*
X205636700Y-64232911D01*
X205769088Y-64365299D01*
X205769092Y-64365302D01*
X205924762Y-64469318D01*
X205924768Y-64469321D01*
X205924769Y-64469322D01*
X206097749Y-64540973D01*
X206281379Y-64577499D01*
X206281383Y-64577500D01*
X206281384Y-64577500D01*
X206468617Y-64577500D01*
X206468618Y-64577499D01*
X206652251Y-64540973D01*
X206825231Y-64469322D01*
X206980908Y-64365302D01*
X207113302Y-64232908D01*
X207217322Y-64077231D01*
X207288973Y-63904251D01*
X207325500Y-63720616D01*
X207325500Y-63533384D01*
X207293598Y-63373000D01*
X207288975Y-63349758D01*
X207288974Y-63349755D01*
X207288973Y-63349749D01*
X207280854Y-63330147D01*
X214558500Y-63330147D01*
X214558500Y-63415852D01*
X214580682Y-63498637D01*
X214580685Y-63498644D01*
X214623530Y-63572855D01*
X214623534Y-63572860D01*
X214623535Y-63572862D01*
X214684138Y-63633465D01*
X214684140Y-63633466D01*
X214684144Y-63633469D01*
X214758355Y-63676314D01*
X214758362Y-63676318D01*
X214841147Y-63698500D01*
X214841149Y-63698500D01*
X214887000Y-63698500D01*
X214954039Y-63718185D01*
X214999794Y-63770989D01*
X215011000Y-63822500D01*
X215011000Y-66347569D01*
X214991315Y-66414608D01*
X214938511Y-66460363D01*
X214919098Y-66467342D01*
X214904857Y-66471158D01*
X214885360Y-66476382D01*
X214885355Y-66476385D01*
X214811144Y-66519230D01*
X214811136Y-66519236D01*
X214750536Y-66579836D01*
X214750530Y-66579844D01*
X214707685Y-66654055D01*
X214707682Y-66654062D01*
X214685500Y-66736847D01*
X214685500Y-66822553D01*
X214707673Y-66905302D01*
X214707682Y-66905337D01*
X214707685Y-66905344D01*
X214750530Y-66979555D01*
X214750534Y-66979560D01*
X214750535Y-66979562D01*
X214811138Y-67040165D01*
X214811140Y-67040166D01*
X214811144Y-67040169D01*
X214881818Y-67080972D01*
X214885362Y-67083018D01*
X214919092Y-67092056D01*
X214978752Y-67128418D01*
X215009283Y-67191265D01*
X215011000Y-67211830D01*
X215011000Y-71755000D01*
X225933000Y-71755000D01*
X225933000Y-70387098D01*
X234888500Y-70387098D01*
X234888500Y-72106894D01*
X234888501Y-72106902D01*
X234894330Y-72136212D01*
X234916542Y-72169457D01*
X234933219Y-72180599D01*
X234949787Y-72191669D01*
X234949790Y-72191669D01*
X234949791Y-72191670D01*
X234959647Y-72193630D01*
X234979101Y-72197500D01*
X236698898Y-72197499D01*
X236728213Y-72191669D01*
X236761457Y-72169457D01*
X236783669Y-72136213D01*
X236789500Y-72106899D01*
X236789499Y-71153379D01*
X237428500Y-71153379D01*
X237428500Y-71340620D01*
X237465025Y-71524243D01*
X237465027Y-71524251D01*
X237536676Y-71697228D01*
X237536681Y-71697237D01*
X237640697Y-71852907D01*
X237640700Y-71852911D01*
X237773088Y-71985299D01*
X237773092Y-71985302D01*
X237928762Y-72089318D01*
X237928768Y-72089321D01*
X237928769Y-72089322D01*
X238101749Y-72160973D01*
X238285374Y-72197498D01*
X238285379Y-72197499D01*
X238285383Y-72197500D01*
X238285384Y-72197500D01*
X238472617Y-72197500D01*
X238472618Y-72197499D01*
X238656251Y-72160973D01*
X238829231Y-72089322D01*
X238984908Y-71985302D01*
X239117302Y-71852908D01*
X239221322Y-71697231D01*
X239292973Y-71524251D01*
X239329500Y-71340616D01*
X239329500Y-71153384D01*
X239329499Y-71153379D01*
X239968500Y-71153379D01*
X239968500Y-71340620D01*
X240005025Y-71524243D01*
X240005027Y-71524251D01*
X240076676Y-71697228D01*
X240076681Y-71697237D01*
X240180697Y-71852907D01*
X240180700Y-71852911D01*
X240313088Y-71985299D01*
X240313092Y-71985302D01*
X240468762Y-72089318D01*
X240468768Y-72089321D01*
X240468769Y-72089322D01*
X240641749Y-72160973D01*
X240825374Y-72197498D01*
X240825379Y-72197499D01*
X240825383Y-72197500D01*
X240825384Y-72197500D01*
X241012617Y-72197500D01*
X241012618Y-72197499D01*
X241196251Y-72160973D01*
X241369231Y-72089322D01*
X241524908Y-71985302D01*
X241657302Y-71852908D01*
X241761322Y-71697231D01*
X241832973Y-71524251D01*
X241869500Y-71340616D01*
X241869500Y-71153384D01*
X241869499Y-71153379D01*
X242508500Y-71153379D01*
X242508500Y-71340620D01*
X242545025Y-71524243D01*
X242545027Y-71524251D01*
X242616676Y-71697228D01*
X242616681Y-71697237D01*
X242720697Y-71852907D01*
X242720700Y-71852911D01*
X242853088Y-71985299D01*
X242853092Y-71985302D01*
X243008762Y-72089318D01*
X243008768Y-72089321D01*
X243008769Y-72089322D01*
X243181749Y-72160973D01*
X243365374Y-72197498D01*
X243365379Y-72197499D01*
X243365383Y-72197500D01*
X243365384Y-72197500D01*
X243552617Y-72197500D01*
X243552618Y-72197499D01*
X243736251Y-72160973D01*
X243909231Y-72089322D01*
X244064908Y-71985302D01*
X244197302Y-71852908D01*
X244301322Y-71697231D01*
X244372973Y-71524251D01*
X244409500Y-71340616D01*
X244409500Y-71153384D01*
X244409499Y-71153379D01*
X245048500Y-71153379D01*
X245048500Y-71340620D01*
X245085025Y-71524243D01*
X245085027Y-71524251D01*
X245156676Y-71697228D01*
X245156681Y-71697237D01*
X245260697Y-71852907D01*
X245260700Y-71852911D01*
X245393088Y-71985299D01*
X245393092Y-71985302D01*
X245548762Y-72089318D01*
X245548768Y-72089321D01*
X245548769Y-72089322D01*
X245721749Y-72160973D01*
X245905374Y-72197498D01*
X245905379Y-72197499D01*
X245905383Y-72197500D01*
X245905384Y-72197500D01*
X246092617Y-72197500D01*
X246092618Y-72197499D01*
X246276251Y-72160973D01*
X246449231Y-72089322D01*
X246604908Y-71985302D01*
X246737302Y-71852908D01*
X246841322Y-71697231D01*
X246912973Y-71524251D01*
X246949500Y-71340616D01*
X246949500Y-71153384D01*
X246949499Y-71153379D01*
X247588500Y-71153379D01*
X247588500Y-71340620D01*
X247625025Y-71524243D01*
X247625027Y-71524251D01*
X247696676Y-71697228D01*
X247696681Y-71697237D01*
X247800697Y-71852907D01*
X247800700Y-71852911D01*
X247933088Y-71985299D01*
X247933092Y-71985302D01*
X248088762Y-72089318D01*
X248088768Y-72089321D01*
X248088769Y-72089322D01*
X248261749Y-72160973D01*
X248445374Y-72197498D01*
X248445379Y-72197499D01*
X248445383Y-72197500D01*
X248445384Y-72197500D01*
X248632617Y-72197500D01*
X248632618Y-72197499D01*
X248816251Y-72160973D01*
X248989231Y-72089322D01*
X249144908Y-71985302D01*
X249277302Y-71852908D01*
X249381322Y-71697231D01*
X249452973Y-71524251D01*
X249489500Y-71340616D01*
X249489500Y-71153384D01*
X249452973Y-70969749D01*
X249381322Y-70796769D01*
X249381321Y-70796768D01*
X249381318Y-70796762D01*
X249277302Y-70641092D01*
X249277299Y-70641088D01*
X249144911Y-70508700D01*
X249144907Y-70508697D01*
X248989237Y-70404681D01*
X248989228Y-70404676D01*
X248816251Y-70333027D01*
X248816243Y-70333025D01*
X248632620Y-70296500D01*
X248632616Y-70296500D01*
X248445384Y-70296500D01*
X248445379Y-70296500D01*
X248261756Y-70333025D01*
X248261748Y-70333027D01*
X248088771Y-70404676D01*
X248088762Y-70404681D01*
X247933092Y-70508697D01*
X247933088Y-70508700D01*
X247800700Y-70641088D01*
X247800697Y-70641092D01*
X247696681Y-70796762D01*
X247696676Y-70796771D01*
X247625027Y-70969748D01*
X247625025Y-70969756D01*
X247588500Y-71153379D01*
X246949499Y-71153379D01*
X246912973Y-70969749D01*
X246841322Y-70796769D01*
X246841321Y-70796768D01*
X246841318Y-70796762D01*
X246737302Y-70641092D01*
X246737299Y-70641088D01*
X246604911Y-70508700D01*
X246604907Y-70508697D01*
X246449237Y-70404681D01*
X246449228Y-70404676D01*
X246276251Y-70333027D01*
X246276243Y-70333025D01*
X246092620Y-70296500D01*
X246092616Y-70296500D01*
X245905384Y-70296500D01*
X245905379Y-70296500D01*
X245721756Y-70333025D01*
X245721748Y-70333027D01*
X245548771Y-70404676D01*
X245548762Y-70404681D01*
X245393092Y-70508697D01*
X245393088Y-70508700D01*
X245260700Y-70641088D01*
X245260697Y-70641092D01*
X245156681Y-70796762D01*
X245156676Y-70796771D01*
X245085027Y-70969748D01*
X245085025Y-70969756D01*
X245048500Y-71153379D01*
X244409499Y-71153379D01*
X244372973Y-70969749D01*
X244301322Y-70796769D01*
X244301321Y-70796768D01*
X244301318Y-70796762D01*
X244197302Y-70641092D01*
X244197299Y-70641088D01*
X244064911Y-70508700D01*
X244064907Y-70508697D01*
X243909237Y-70404681D01*
X243909228Y-70404676D01*
X243736251Y-70333027D01*
X243736243Y-70333025D01*
X243552620Y-70296500D01*
X243552616Y-70296500D01*
X243365384Y-70296500D01*
X243365379Y-70296500D01*
X243181756Y-70333025D01*
X243181748Y-70333027D01*
X243008771Y-70404676D01*
X243008762Y-70404681D01*
X242853092Y-70508697D01*
X242853088Y-70508700D01*
X242720700Y-70641088D01*
X242720697Y-70641092D01*
X242616681Y-70796762D01*
X242616676Y-70796771D01*
X242545027Y-70969748D01*
X242545025Y-70969756D01*
X242508500Y-71153379D01*
X241869499Y-71153379D01*
X241832973Y-70969749D01*
X241761322Y-70796769D01*
X241761321Y-70796768D01*
X241761318Y-70796762D01*
X241657302Y-70641092D01*
X241657299Y-70641088D01*
X241524911Y-70508700D01*
X241524907Y-70508697D01*
X241369237Y-70404681D01*
X241369228Y-70404676D01*
X241196251Y-70333027D01*
X241196243Y-70333025D01*
X241012620Y-70296500D01*
X241012616Y-70296500D01*
X240825384Y-70296500D01*
X240825379Y-70296500D01*
X240641756Y-70333025D01*
X240641748Y-70333027D01*
X240468771Y-70404676D01*
X240468762Y-70404681D01*
X240313092Y-70508697D01*
X240313088Y-70508700D01*
X240180700Y-70641088D01*
X240180697Y-70641092D01*
X240076681Y-70796762D01*
X240076676Y-70796771D01*
X240005027Y-70969748D01*
X240005025Y-70969756D01*
X239968500Y-71153379D01*
X239329499Y-71153379D01*
X239292973Y-70969749D01*
X239221322Y-70796769D01*
X239221321Y-70796768D01*
X239221318Y-70796762D01*
X239117302Y-70641092D01*
X239117299Y-70641088D01*
X238984911Y-70508700D01*
X238984907Y-70508697D01*
X238829237Y-70404681D01*
X238829228Y-70404676D01*
X238656251Y-70333027D01*
X238656243Y-70333025D01*
X238472620Y-70296500D01*
X238472616Y-70296500D01*
X238285384Y-70296500D01*
X238285379Y-70296500D01*
X238101756Y-70333025D01*
X238101748Y-70333027D01*
X237928771Y-70404676D01*
X237928762Y-70404681D01*
X237773092Y-70508697D01*
X237773088Y-70508700D01*
X237640700Y-70641088D01*
X237640697Y-70641092D01*
X237536681Y-70796762D01*
X237536676Y-70796771D01*
X237465027Y-70969748D01*
X237465025Y-70969756D01*
X237428500Y-71153379D01*
X236789499Y-71153379D01*
X236789499Y-70387102D01*
X236783669Y-70357787D01*
X236767126Y-70333027D01*
X236761457Y-70324542D01*
X236728214Y-70302332D01*
X236728215Y-70302332D01*
X236728213Y-70302331D01*
X236728211Y-70302330D01*
X236728208Y-70302329D01*
X236698901Y-70296500D01*
X234979105Y-70296500D01*
X234979097Y-70296501D01*
X234949787Y-70302330D01*
X234916542Y-70324542D01*
X234894332Y-70357785D01*
X234894329Y-70357791D01*
X234888500Y-70387098D01*
X225933000Y-70387098D01*
X225933000Y-68283147D01*
X233608500Y-68283147D01*
X233608500Y-68368852D01*
X233630682Y-68451637D01*
X233630685Y-68451644D01*
X233673530Y-68525855D01*
X233673534Y-68525860D01*
X233673535Y-68525862D01*
X233734138Y-68586465D01*
X233734140Y-68586466D01*
X233734144Y-68586469D01*
X233780763Y-68613384D01*
X233808362Y-68629318D01*
X233891147Y-68651500D01*
X233891149Y-68651500D01*
X233976851Y-68651500D01*
X233976853Y-68651500D01*
X234059638Y-68629318D01*
X234133862Y-68586465D01*
X234194465Y-68525862D01*
X234237318Y-68451638D01*
X234259500Y-68368853D01*
X234259500Y-68283147D01*
X234237318Y-68200362D01*
X234204489Y-68143500D01*
X234194469Y-68126144D01*
X234194463Y-68126136D01*
X234133863Y-68065536D01*
X234133855Y-68065530D01*
X234059644Y-68022685D01*
X234059640Y-68022683D01*
X234059638Y-68022682D01*
X233976853Y-68000500D01*
X233891147Y-68000500D01*
X233808362Y-68022682D01*
X233808355Y-68022685D01*
X233734144Y-68065530D01*
X233734136Y-68065536D01*
X233673536Y-68126136D01*
X233673530Y-68126144D01*
X233630685Y-68200355D01*
X233630682Y-68200362D01*
X233608500Y-68283147D01*
X225933000Y-68283147D01*
X225933000Y-67775147D01*
X229417500Y-67775147D01*
X229417500Y-67860853D01*
X229419233Y-67867318D01*
X229439682Y-67943637D01*
X229439685Y-67943644D01*
X229482530Y-68017855D01*
X229482534Y-68017860D01*
X229482535Y-68017862D01*
X229543138Y-68078465D01*
X229543140Y-68078466D01*
X229543144Y-68078469D01*
X229582322Y-68101088D01*
X229617362Y-68121318D01*
X229700147Y-68143500D01*
X229700149Y-68143500D01*
X229785851Y-68143500D01*
X229785853Y-68143500D01*
X229868638Y-68121318D01*
X229942862Y-68078465D01*
X230003465Y-68017862D01*
X230046318Y-67943638D01*
X230068500Y-67860853D01*
X230068500Y-67775147D01*
X230046318Y-67692362D01*
X230028809Y-67662035D01*
X230003469Y-67618144D01*
X230003463Y-67618136D01*
X229942863Y-67557536D01*
X229942855Y-67557530D01*
X229879837Y-67521147D01*
X237291500Y-67521147D01*
X237291500Y-67606853D01*
X237294526Y-67618144D01*
X237313682Y-67689637D01*
X237313685Y-67689644D01*
X237356530Y-67763855D01*
X237356534Y-67763860D01*
X237356535Y-67763862D01*
X237417138Y-67824465D01*
X237417140Y-67824466D01*
X237417144Y-67824469D01*
X237491355Y-67867314D01*
X237491362Y-67867318D01*
X237574147Y-67889500D01*
X237574149Y-67889500D01*
X237659851Y-67889500D01*
X237659853Y-67889500D01*
X237742638Y-67867318D01*
X237816862Y-67824465D01*
X237877465Y-67763862D01*
X237920318Y-67689638D01*
X237942500Y-67606853D01*
X237942500Y-67521147D01*
X237920318Y-67438362D01*
X237920314Y-67438355D01*
X237877469Y-67364144D01*
X237877463Y-67364136D01*
X237816863Y-67303536D01*
X237816855Y-67303530D01*
X237742644Y-67260685D01*
X237742640Y-67260683D01*
X237742638Y-67260682D01*
X237659853Y-67238500D01*
X237574147Y-67238500D01*
X237491362Y-67260682D01*
X237491355Y-67260685D01*
X237417144Y-67303530D01*
X237417136Y-67303536D01*
X237356536Y-67364136D01*
X237356530Y-67364144D01*
X237313685Y-67438355D01*
X237313682Y-67438362D01*
X237291500Y-67521147D01*
X229879837Y-67521147D01*
X229868644Y-67514685D01*
X229868640Y-67514683D01*
X229868638Y-67514682D01*
X229785853Y-67492500D01*
X229700147Y-67492500D01*
X229617362Y-67514682D01*
X229617355Y-67514685D01*
X229543144Y-67557530D01*
X229543136Y-67557536D01*
X229482536Y-67618136D01*
X229482530Y-67618144D01*
X229439685Y-67692355D01*
X229439682Y-67692362D01*
X229417500Y-67775147D01*
X225933000Y-67775147D01*
X225933000Y-66378147D01*
X247705500Y-66378147D01*
X247705500Y-66463853D01*
X247720340Y-66519235D01*
X247727682Y-66546637D01*
X247727685Y-66546644D01*
X247770530Y-66620855D01*
X247770534Y-66620860D01*
X247770535Y-66620862D01*
X247831138Y-66681465D01*
X247831140Y-66681466D01*
X247831144Y-66681469D01*
X247905355Y-66724314D01*
X247905362Y-66724318D01*
X247988147Y-66746500D01*
X247988149Y-66746500D01*
X248073851Y-66746500D01*
X248073853Y-66746500D01*
X248156638Y-66724318D01*
X248230862Y-66681465D01*
X248291465Y-66620862D01*
X248334318Y-66546638D01*
X248356500Y-66463853D01*
X248356500Y-66378147D01*
X248975500Y-66378147D01*
X248975500Y-66463853D01*
X248990340Y-66519235D01*
X248997682Y-66546637D01*
X248997685Y-66546644D01*
X249040530Y-66620855D01*
X249040534Y-66620860D01*
X249040535Y-66620862D01*
X249101138Y-66681465D01*
X249101140Y-66681466D01*
X249101144Y-66681469D01*
X249175355Y-66724314D01*
X249175362Y-66724318D01*
X249258147Y-66746500D01*
X249258149Y-66746500D01*
X249343851Y-66746500D01*
X249343853Y-66746500D01*
X249426638Y-66724318D01*
X249500862Y-66681465D01*
X249561465Y-66620862D01*
X249604318Y-66546638D01*
X249626500Y-66463853D01*
X249626500Y-66378147D01*
X249604318Y-66295362D01*
X249584258Y-66260616D01*
X249561469Y-66221144D01*
X249561463Y-66221136D01*
X249500863Y-66160536D01*
X249500855Y-66160530D01*
X249426644Y-66117685D01*
X249426640Y-66117683D01*
X249426638Y-66117682D01*
X249343853Y-66095500D01*
X249258147Y-66095500D01*
X249175362Y-66117682D01*
X249175355Y-66117685D01*
X249101144Y-66160530D01*
X249101136Y-66160536D01*
X249040536Y-66221136D01*
X249040530Y-66221144D01*
X248997685Y-66295355D01*
X248997682Y-66295362D01*
X248975500Y-66378147D01*
X248356500Y-66378147D01*
X248334318Y-66295362D01*
X248314258Y-66260616D01*
X248291469Y-66221144D01*
X248291463Y-66221136D01*
X248230863Y-66160536D01*
X248230855Y-66160530D01*
X248156644Y-66117685D01*
X248156640Y-66117683D01*
X248156638Y-66117682D01*
X248073853Y-66095500D01*
X247988147Y-66095500D01*
X247905362Y-66117682D01*
X247905355Y-66117685D01*
X247831144Y-66160530D01*
X247831136Y-66160536D01*
X247770536Y-66221136D01*
X247770530Y-66221144D01*
X247727685Y-66295355D01*
X247727682Y-66295362D01*
X247705500Y-66378147D01*
X225933000Y-66378147D01*
X225933000Y-65964130D01*
X225952685Y-65897091D01*
X226005489Y-65851336D01*
X226024902Y-65844357D01*
X226058638Y-65835318D01*
X226132862Y-65792465D01*
X226193465Y-65731862D01*
X226236318Y-65657638D01*
X226258500Y-65574853D01*
X226258500Y-65489147D01*
X226236318Y-65406362D01*
X226204276Y-65350863D01*
X226193469Y-65332144D01*
X226193463Y-65332136D01*
X226132863Y-65271536D01*
X226132855Y-65271530D01*
X226058644Y-65228685D01*
X226058639Y-65228682D01*
X226042091Y-65224248D01*
X226025470Y-65219794D01*
X226024931Y-65219650D01*
X225965263Y-65183298D01*
X225934721Y-65120457D01*
X225933692Y-65108147D01*
X234243500Y-65108147D01*
X234243500Y-65193853D01*
X234264314Y-65271530D01*
X234265682Y-65276637D01*
X234265685Y-65276644D01*
X234308530Y-65350855D01*
X234308534Y-65350860D01*
X234308535Y-65350862D01*
X234369138Y-65411465D01*
X234369140Y-65411466D01*
X234369144Y-65411469D01*
X234443355Y-65454314D01*
X234443362Y-65454318D01*
X234526147Y-65476500D01*
X234526149Y-65476500D01*
X234611851Y-65476500D01*
X234611853Y-65476500D01*
X234694638Y-65454318D01*
X234768862Y-65411465D01*
X234829465Y-65350862D01*
X234872318Y-65276638D01*
X234894500Y-65193853D01*
X234894500Y-65108147D01*
X234872318Y-65025362D01*
X234872314Y-65025355D01*
X234829469Y-64951144D01*
X234829463Y-64951136D01*
X234768863Y-64890536D01*
X234768855Y-64890530D01*
X234694644Y-64847685D01*
X234694640Y-64847683D01*
X234694638Y-64847682D01*
X234611853Y-64825500D01*
X234526147Y-64825500D01*
X234443362Y-64847682D01*
X234443355Y-64847685D01*
X234369144Y-64890530D01*
X234369136Y-64890536D01*
X234308536Y-64951136D01*
X234308530Y-64951144D01*
X234265685Y-65025355D01*
X234265682Y-65025362D01*
X234243500Y-65108147D01*
X225933692Y-65108147D01*
X225933000Y-65099869D01*
X225933000Y-64346147D01*
X236656500Y-64346147D01*
X236656500Y-64431852D01*
X236678682Y-64514637D01*
X236678685Y-64514644D01*
X236721530Y-64588855D01*
X236721534Y-64588860D01*
X236721535Y-64588862D01*
X236782138Y-64649465D01*
X236782140Y-64649466D01*
X236782144Y-64649469D01*
X236856355Y-64692314D01*
X236856362Y-64692318D01*
X236939147Y-64714500D01*
X236939149Y-64714500D01*
X237024851Y-64714500D01*
X237024853Y-64714500D01*
X237107638Y-64692318D01*
X237181862Y-64649465D01*
X237242465Y-64588862D01*
X237285318Y-64514638D01*
X237307500Y-64431853D01*
X237307500Y-64346147D01*
X237285318Y-64263362D01*
X237267737Y-64232911D01*
X237242469Y-64189144D01*
X237242463Y-64189136D01*
X237181863Y-64128536D01*
X237181855Y-64128530D01*
X237107644Y-64085685D01*
X237107640Y-64085683D01*
X237107638Y-64085682D01*
X237024853Y-64063500D01*
X236939147Y-64063500D01*
X236856362Y-64085682D01*
X236856355Y-64085685D01*
X236782144Y-64128530D01*
X236782136Y-64128536D01*
X236721536Y-64189136D01*
X236721530Y-64189144D01*
X236678685Y-64263355D01*
X236678682Y-64263362D01*
X236656500Y-64346147D01*
X225933000Y-64346147D01*
X225933000Y-63373000D01*
X225908500Y-63373000D01*
X225841461Y-63353315D01*
X225795706Y-63300511D01*
X225784500Y-63249000D01*
X225784500Y-62568147D01*
X236656500Y-62568147D01*
X236656500Y-62653852D01*
X236678682Y-62736637D01*
X236678685Y-62736644D01*
X236721530Y-62810855D01*
X236721534Y-62810860D01*
X236721535Y-62810862D01*
X236782138Y-62871465D01*
X236782140Y-62871466D01*
X236782144Y-62871469D01*
X236856355Y-62914314D01*
X236856362Y-62914318D01*
X236939147Y-62936500D01*
X236939149Y-62936500D01*
X237024851Y-62936500D01*
X237024853Y-62936500D01*
X237107638Y-62914318D01*
X237181862Y-62871465D01*
X237242465Y-62810862D01*
X237285318Y-62736638D01*
X237307500Y-62653853D01*
X237307500Y-62568147D01*
X237285318Y-62485362D01*
X237252489Y-62428500D01*
X237242469Y-62411144D01*
X237242463Y-62411136D01*
X237181863Y-62350536D01*
X237181855Y-62350530D01*
X237107644Y-62307685D01*
X237107640Y-62307683D01*
X237107638Y-62307682D01*
X237024853Y-62285500D01*
X236939147Y-62285500D01*
X236856362Y-62307682D01*
X236856355Y-62307685D01*
X236782144Y-62350530D01*
X236782136Y-62350536D01*
X236721536Y-62411136D01*
X236721530Y-62411144D01*
X236678685Y-62485355D01*
X236678682Y-62485362D01*
X236656500Y-62568147D01*
X225784500Y-62568147D01*
X225784500Y-62060147D01*
X228147500Y-62060147D01*
X228147500Y-62145852D01*
X228169682Y-62228637D01*
X228169685Y-62228644D01*
X228212530Y-62302855D01*
X228212534Y-62302860D01*
X228212535Y-62302862D01*
X228273138Y-62363465D01*
X228273140Y-62363466D01*
X228273144Y-62363469D01*
X228347355Y-62406314D01*
X228347362Y-62406318D01*
X228430147Y-62428500D01*
X228430149Y-62428500D01*
X228515851Y-62428500D01*
X228515853Y-62428500D01*
X228598638Y-62406318D01*
X228672862Y-62363465D01*
X228733465Y-62302862D01*
X228776318Y-62228638D01*
X228798500Y-62145853D01*
X228798500Y-62060147D01*
X228776318Y-61977362D01*
X228748583Y-61929323D01*
X228733469Y-61903144D01*
X228733463Y-61903136D01*
X228672863Y-61842536D01*
X228672855Y-61842530D01*
X228598644Y-61799685D01*
X228598641Y-61799683D01*
X228598638Y-61799682D01*
X228565468Y-61790794D01*
X228544571Y-61785194D01*
X228515853Y-61777500D01*
X228430147Y-61777500D01*
X228347362Y-61799682D01*
X228347355Y-61799685D01*
X228273144Y-61842530D01*
X228273136Y-61842536D01*
X228212536Y-61903136D01*
X228212530Y-61903144D01*
X228169685Y-61977355D01*
X228169682Y-61977362D01*
X228147500Y-62060147D01*
X225784500Y-62060147D01*
X225784500Y-61846000D01*
X225782089Y-61823573D01*
X225770883Y-61772062D01*
X225747526Y-61725401D01*
X225747525Y-61725399D01*
X225707447Y-61679147D01*
X246308500Y-61679147D01*
X246308500Y-61764853D01*
X246330243Y-61845997D01*
X246330682Y-61847637D01*
X246330685Y-61847644D01*
X246373530Y-61921855D01*
X246373534Y-61921860D01*
X246373535Y-61921862D01*
X246434138Y-61982465D01*
X246434140Y-61982466D01*
X246434144Y-61982469D01*
X246508355Y-62025314D01*
X246508362Y-62025318D01*
X246591147Y-62047500D01*
X246591149Y-62047500D01*
X246676851Y-62047500D01*
X246676853Y-62047500D01*
X246759638Y-62025318D01*
X246833862Y-61982465D01*
X246894465Y-61921862D01*
X246937318Y-61847638D01*
X246959500Y-61764853D01*
X246959500Y-61679147D01*
X246937318Y-61596362D01*
X246937314Y-61596355D01*
X246894469Y-61522144D01*
X246894463Y-61522136D01*
X246833863Y-61461536D01*
X246833855Y-61461530D01*
X246759644Y-61418685D01*
X246759640Y-61418683D01*
X246759638Y-61418682D01*
X246676853Y-61396500D01*
X246591147Y-61396500D01*
X246508362Y-61418682D01*
X246508355Y-61418685D01*
X246434144Y-61461530D01*
X246434136Y-61461536D01*
X246373536Y-61522136D01*
X246373530Y-61522144D01*
X246330685Y-61596355D01*
X246330682Y-61596362D01*
X246308500Y-61679147D01*
X225707447Y-61679147D01*
X225701770Y-61672596D01*
X225672015Y-61653474D01*
X225651763Y-61640459D01*
X225584729Y-61620775D01*
X225584725Y-61620774D01*
X225584724Y-61620774D01*
X225555000Y-61616500D01*
X215389000Y-61616500D01*
X215388997Y-61616500D01*
X215366573Y-61618910D01*
X215315061Y-61630117D01*
X215268399Y-61653474D01*
X215215596Y-61699229D01*
X215183460Y-61749235D01*
X215183459Y-61749236D01*
X215163775Y-61816270D01*
X215163774Y-61816275D01*
X215163774Y-61816276D01*
X215159501Y-61845997D01*
X215159500Y-61846003D01*
X215159500Y-62948237D01*
X215139815Y-63015276D01*
X215087011Y-63061031D01*
X215017853Y-63070975D01*
X215003408Y-63068012D01*
X214926854Y-63047500D01*
X214926853Y-63047500D01*
X214841147Y-63047500D01*
X214758362Y-63069682D01*
X214758355Y-63069685D01*
X214684144Y-63112530D01*
X214684136Y-63112536D01*
X214623536Y-63173136D01*
X214623530Y-63173144D01*
X214580685Y-63247355D01*
X214580682Y-63247362D01*
X214558500Y-63330147D01*
X207280854Y-63330147D01*
X207217322Y-63176769D01*
X207217321Y-63176768D01*
X207217318Y-63176762D01*
X207113302Y-63021092D01*
X207113299Y-63021088D01*
X206980911Y-62888700D01*
X206980907Y-62888697D01*
X206825237Y-62784681D01*
X206825228Y-62784676D01*
X206652251Y-62713027D01*
X206652243Y-62713025D01*
X206468620Y-62676500D01*
X206468616Y-62676500D01*
X206281384Y-62676500D01*
X206281379Y-62676500D01*
X206097756Y-62713025D01*
X206097748Y-62713027D01*
X205924771Y-62784676D01*
X205924762Y-62784681D01*
X205769092Y-62888697D01*
X205769088Y-62888700D01*
X205636700Y-63021088D01*
X205636697Y-63021092D01*
X205532681Y-63176762D01*
X205532676Y-63176771D01*
X205461027Y-63349748D01*
X205461025Y-63349756D01*
X205424500Y-63533379D01*
X203400500Y-63533379D01*
X203400500Y-60993379D01*
X205424500Y-60993379D01*
X205424500Y-61180620D01*
X205461025Y-61364243D01*
X205461027Y-61364251D01*
X205532676Y-61537228D01*
X205532681Y-61537237D01*
X205636697Y-61692907D01*
X205636700Y-61692911D01*
X205769088Y-61825299D01*
X205769092Y-61825302D01*
X205924762Y-61929318D01*
X205924768Y-61929321D01*
X205924769Y-61929322D01*
X206097749Y-62000973D01*
X206281379Y-62037499D01*
X206281383Y-62037500D01*
X206281384Y-62037500D01*
X206468617Y-62037500D01*
X206468618Y-62037499D01*
X206652251Y-62000973D01*
X206825231Y-61929322D01*
X206980908Y-61825302D01*
X207113302Y-61692908D01*
X207217322Y-61537231D01*
X207288973Y-61364251D01*
X207325500Y-61180616D01*
X207325500Y-60993384D01*
X207288973Y-60809749D01*
X207217322Y-60636769D01*
X207217321Y-60636768D01*
X207217318Y-60636762D01*
X207113302Y-60481092D01*
X207113299Y-60481088D01*
X206980911Y-60348700D01*
X206980907Y-60348697D01*
X206825237Y-60244681D01*
X206825228Y-60244676D01*
X206652251Y-60173027D01*
X206652243Y-60173025D01*
X206468620Y-60136500D01*
X206468616Y-60136500D01*
X206281384Y-60136500D01*
X206281379Y-60136500D01*
X206097756Y-60173025D01*
X206097748Y-60173027D01*
X205924771Y-60244676D01*
X205924762Y-60244681D01*
X205769092Y-60348697D01*
X205769088Y-60348700D01*
X205636700Y-60481088D01*
X205636697Y-60481092D01*
X205532681Y-60636762D01*
X205532676Y-60636771D01*
X205461027Y-60809748D01*
X205461025Y-60809756D01*
X205424500Y-60993379D01*
X203400500Y-60993379D01*
X203400500Y-59774147D01*
X230560500Y-59774147D01*
X230560500Y-59859853D01*
X230562233Y-59866318D01*
X230582682Y-59942637D01*
X230582685Y-59942644D01*
X230625530Y-60016855D01*
X230625534Y-60016860D01*
X230625535Y-60016862D01*
X230686138Y-60077465D01*
X230686140Y-60077466D01*
X230686144Y-60077469D01*
X230760355Y-60120314D01*
X230760362Y-60120318D01*
X230843147Y-60142500D01*
X230843149Y-60142500D01*
X230928851Y-60142500D01*
X230928853Y-60142500D01*
X231011638Y-60120318D01*
X231085862Y-60077465D01*
X231146465Y-60016862D01*
X231189318Y-59942638D01*
X231211500Y-59859853D01*
X231211500Y-59774147D01*
X231189318Y-59691362D01*
X231187745Y-59688637D01*
X231146469Y-59617144D01*
X231146463Y-59617136D01*
X231085863Y-59556536D01*
X231085855Y-59556530D01*
X231022837Y-59520147D01*
X236275500Y-59520147D01*
X236275500Y-59605853D01*
X236278526Y-59617144D01*
X236297682Y-59688637D01*
X236297685Y-59688644D01*
X236340530Y-59762855D01*
X236340534Y-59762860D01*
X236340535Y-59762862D01*
X236401138Y-59823465D01*
X236401140Y-59823466D01*
X236401144Y-59823469D01*
X236464161Y-59859851D01*
X236475362Y-59866318D01*
X236558147Y-59888500D01*
X236558149Y-59888500D01*
X236643851Y-59888500D01*
X236643853Y-59888500D01*
X236726638Y-59866318D01*
X236800862Y-59823465D01*
X236861465Y-59762862D01*
X236904318Y-59688638D01*
X236926500Y-59605853D01*
X236926500Y-59520147D01*
X241355500Y-59520147D01*
X241355500Y-59605853D01*
X241358526Y-59617144D01*
X241377682Y-59688637D01*
X241377685Y-59688644D01*
X241420530Y-59762855D01*
X241420534Y-59762860D01*
X241420535Y-59762862D01*
X241481138Y-59823465D01*
X241481140Y-59823466D01*
X241481144Y-59823469D01*
X241544161Y-59859851D01*
X241555362Y-59866318D01*
X241638147Y-59888500D01*
X241638149Y-59888500D01*
X241723851Y-59888500D01*
X241723853Y-59888500D01*
X241806638Y-59866318D01*
X241880862Y-59823465D01*
X241941465Y-59762862D01*
X241984318Y-59688638D01*
X242006500Y-59605853D01*
X242006500Y-59520147D01*
X241984318Y-59437362D01*
X241966732Y-59406902D01*
X241941469Y-59363144D01*
X241941463Y-59363136D01*
X241880863Y-59302536D01*
X241880855Y-59302530D01*
X241806644Y-59259685D01*
X241806640Y-59259683D01*
X241806638Y-59259682D01*
X241723853Y-59237500D01*
X241638147Y-59237500D01*
X241555362Y-59259682D01*
X241555355Y-59259685D01*
X241481144Y-59302530D01*
X241481136Y-59302536D01*
X241420536Y-59363136D01*
X241420530Y-59363144D01*
X241377685Y-59437355D01*
X241377682Y-59437362D01*
X241355500Y-59520147D01*
X236926500Y-59520147D01*
X236904318Y-59437362D01*
X236886732Y-59406902D01*
X236861469Y-59363144D01*
X236861463Y-59363136D01*
X236800863Y-59302536D01*
X236800855Y-59302530D01*
X236726644Y-59259685D01*
X236726640Y-59259683D01*
X236726638Y-59259682D01*
X236643853Y-59237500D01*
X236558147Y-59237500D01*
X236475362Y-59259682D01*
X236475355Y-59259685D01*
X236401144Y-59302530D01*
X236401136Y-59302536D01*
X236340536Y-59363136D01*
X236340530Y-59363144D01*
X236297685Y-59437355D01*
X236297682Y-59437362D01*
X236275500Y-59520147D01*
X231022837Y-59520147D01*
X231011644Y-59513685D01*
X231011640Y-59513683D01*
X231011638Y-59513682D01*
X230928853Y-59491500D01*
X230843147Y-59491500D01*
X230760362Y-59513682D01*
X230760355Y-59513685D01*
X230686144Y-59556530D01*
X230686136Y-59556536D01*
X230625536Y-59617136D01*
X230625530Y-59617144D01*
X230582685Y-59691355D01*
X230582682Y-59691362D01*
X230560500Y-59774147D01*
X203400500Y-59774147D01*
X203400500Y-57687098D01*
X205424500Y-57687098D01*
X205424500Y-59406894D01*
X205424501Y-59406902D01*
X205430330Y-59436212D01*
X205452542Y-59469457D01*
X205469219Y-59480599D01*
X205485787Y-59491669D01*
X205485790Y-59491669D01*
X205485791Y-59491670D01*
X205495647Y-59493630D01*
X205515101Y-59497500D01*
X207234898Y-59497499D01*
X207264213Y-59491669D01*
X207297457Y-59469457D01*
X207319669Y-59436213D01*
X207325500Y-59406899D01*
X207325499Y-58123147D01*
X225607500Y-58123147D01*
X225607500Y-58208852D01*
X225629682Y-58291637D01*
X225629685Y-58291644D01*
X225672530Y-58365855D01*
X225672534Y-58365860D01*
X225672535Y-58365862D01*
X225733138Y-58426465D01*
X225733140Y-58426466D01*
X225733144Y-58426469D01*
X225807355Y-58469314D01*
X225807362Y-58469318D01*
X225890147Y-58491500D01*
X225890149Y-58491500D01*
X225975851Y-58491500D01*
X225975853Y-58491500D01*
X226058638Y-58469318D01*
X226132862Y-58426465D01*
X226193465Y-58365862D01*
X226206612Y-58343089D01*
X226257179Y-58294874D01*
X226325786Y-58281650D01*
X226390651Y-58307618D01*
X226421386Y-58343088D01*
X226434535Y-58365862D01*
X226495138Y-58426465D01*
X226495140Y-58426466D01*
X226495144Y-58426469D01*
X226569355Y-58469314D01*
X226569362Y-58469318D01*
X226652147Y-58491500D01*
X226652149Y-58491500D01*
X226737851Y-58491500D01*
X226737853Y-58491500D01*
X226820638Y-58469318D01*
X226894862Y-58426465D01*
X226955465Y-58365862D01*
X226998318Y-58291638D01*
X227020500Y-58208853D01*
X227020500Y-58123147D01*
X226998318Y-58040362D01*
X226968613Y-57988911D01*
X226955469Y-57966144D01*
X226955463Y-57966136D01*
X226894863Y-57905536D01*
X226894855Y-57905530D01*
X226820644Y-57862685D01*
X226820640Y-57862683D01*
X226820638Y-57862682D01*
X226737853Y-57840500D01*
X226652147Y-57840500D01*
X226569362Y-57862682D01*
X226569355Y-57862685D01*
X226495144Y-57905530D01*
X226495136Y-57905536D01*
X226434534Y-57966138D01*
X226421387Y-57988911D01*
X226370820Y-58037126D01*
X226302212Y-58050348D01*
X226237348Y-58024380D01*
X226206613Y-57988911D01*
X226193465Y-57966138D01*
X226132863Y-57905536D01*
X226132855Y-57905530D01*
X226058644Y-57862685D01*
X226058640Y-57862683D01*
X226058638Y-57862682D01*
X225975853Y-57840500D01*
X225890147Y-57840500D01*
X225807362Y-57862682D01*
X225807355Y-57862685D01*
X225733144Y-57905530D01*
X225733136Y-57905536D01*
X225672536Y-57966136D01*
X225672530Y-57966144D01*
X225629685Y-58040355D01*
X225629682Y-58040362D01*
X225607500Y-58123147D01*
X207325499Y-58123147D01*
X207325499Y-57687102D01*
X207319669Y-57657787D01*
X207318901Y-57656637D01*
X207297457Y-57624542D01*
X207264214Y-57602332D01*
X207264215Y-57602332D01*
X207264213Y-57602331D01*
X207264210Y-57602330D01*
X207264207Y-57602329D01*
X207260727Y-57601637D01*
X207260726Y-57601637D01*
X207234901Y-57596500D01*
X205515105Y-57596500D01*
X205515097Y-57596501D01*
X205485787Y-57602330D01*
X205452542Y-57624542D01*
X205430332Y-57657785D01*
X205430329Y-57657791D01*
X205424500Y-57687098D01*
X203400500Y-57687098D01*
X203400500Y-57488147D01*
X223956500Y-57488147D01*
X223956500Y-57573853D01*
X223970083Y-57624543D01*
X223978682Y-57656637D01*
X223978685Y-57656644D01*
X224021530Y-57730855D01*
X224021534Y-57730860D01*
X224021535Y-57730862D01*
X224082138Y-57791465D01*
X224082140Y-57791466D01*
X224082144Y-57791469D01*
X224156355Y-57834314D01*
X224156362Y-57834318D01*
X224239147Y-57856500D01*
X224239149Y-57856500D01*
X224324851Y-57856500D01*
X224324853Y-57856500D01*
X224407638Y-57834318D01*
X224481862Y-57791465D01*
X224542465Y-57730862D01*
X224585318Y-57656638D01*
X224607500Y-57573853D01*
X224607500Y-57488147D01*
X224585318Y-57405362D01*
X224553276Y-57349863D01*
X224542469Y-57331144D01*
X224542463Y-57331136D01*
X224481863Y-57270536D01*
X224481855Y-57270530D01*
X224407644Y-57227685D01*
X224407641Y-57227683D01*
X224407638Y-57227682D01*
X224374468Y-57218794D01*
X224353571Y-57213194D01*
X224324853Y-57205500D01*
X224239147Y-57205500D01*
X224156362Y-57227682D01*
X224156355Y-57227685D01*
X224082144Y-57270530D01*
X224082136Y-57270536D01*
X224021536Y-57331136D01*
X224021530Y-57331144D01*
X223978685Y-57405355D01*
X223978682Y-57405362D01*
X223956500Y-57488147D01*
X203400500Y-57488147D01*
X203400500Y-57107147D01*
X230560500Y-57107147D01*
X230560500Y-57192853D01*
X230581314Y-57270530D01*
X230582682Y-57275637D01*
X230582685Y-57275644D01*
X230625530Y-57349855D01*
X230625534Y-57349860D01*
X230625535Y-57349862D01*
X230686138Y-57410465D01*
X230686140Y-57410466D01*
X230686144Y-57410469D01*
X230760355Y-57453314D01*
X230760362Y-57453318D01*
X230843147Y-57475500D01*
X230843149Y-57475500D01*
X230928851Y-57475500D01*
X230928853Y-57475500D01*
X231011638Y-57453318D01*
X231085862Y-57410465D01*
X231146465Y-57349862D01*
X231189318Y-57275638D01*
X231211500Y-57192853D01*
X231211500Y-57107147D01*
X231189318Y-57024362D01*
X231189314Y-57024355D01*
X231146469Y-56950144D01*
X231146463Y-56950136D01*
X231085863Y-56889536D01*
X231085855Y-56889530D01*
X231011644Y-56846685D01*
X231011640Y-56846683D01*
X231011638Y-56846682D01*
X230928853Y-56824500D01*
X230843147Y-56824500D01*
X230760362Y-56846682D01*
X230760355Y-56846685D01*
X230686144Y-56889530D01*
X230686136Y-56889536D01*
X230625536Y-56950136D01*
X230625530Y-56950144D01*
X230582685Y-57024355D01*
X230582682Y-57024362D01*
X230560500Y-57107147D01*
X203400500Y-57107147D01*
X203400500Y-56218147D01*
X224788500Y-56218147D01*
X224788500Y-56303852D01*
X224810682Y-56386637D01*
X224810685Y-56386644D01*
X224853530Y-56460855D01*
X224853534Y-56460860D01*
X224853535Y-56460862D01*
X224914138Y-56521465D01*
X224914140Y-56521466D01*
X224914144Y-56521469D01*
X224988355Y-56564314D01*
X224988362Y-56564318D01*
X225071147Y-56586500D01*
X225071149Y-56586500D01*
X225156851Y-56586500D01*
X225156853Y-56586500D01*
X225239638Y-56564318D01*
X225313862Y-56521465D01*
X225374465Y-56460862D01*
X225417318Y-56386638D01*
X225439500Y-56303853D01*
X225439500Y-56218147D01*
X225417318Y-56135362D01*
X225403997Y-56112289D01*
X225374467Y-56061141D01*
X225374463Y-56061136D01*
X225369706Y-56056379D01*
X250128500Y-56056379D01*
X250128500Y-56243620D01*
X250165025Y-56427243D01*
X250165027Y-56427251D01*
X250236676Y-56600228D01*
X250236681Y-56600237D01*
X250340697Y-56755907D01*
X250340700Y-56755911D01*
X250473088Y-56888299D01*
X250473092Y-56888302D01*
X250628762Y-56992318D01*
X250628768Y-56992321D01*
X250628769Y-56992322D01*
X250801749Y-57063973D01*
X250985379Y-57100499D01*
X250985383Y-57100500D01*
X250985384Y-57100500D01*
X251172617Y-57100500D01*
X251172618Y-57100499D01*
X251356251Y-57063973D01*
X251529231Y-56992322D01*
X251684908Y-56888302D01*
X251817302Y-56755908D01*
X251921322Y-56600231D01*
X251992973Y-56427251D01*
X252029500Y-56243616D01*
X252029500Y-56056384D01*
X251992973Y-55872749D01*
X251921322Y-55699769D01*
X251921321Y-55699768D01*
X251921318Y-55699762D01*
X251817302Y-55544092D01*
X251817299Y-55544088D01*
X251684911Y-55411700D01*
X251684907Y-55411697D01*
X251529237Y-55307681D01*
X251529228Y-55307676D01*
X251356251Y-55236027D01*
X251356243Y-55236025D01*
X251172620Y-55199500D01*
X251172616Y-55199500D01*
X250985384Y-55199500D01*
X250985379Y-55199500D01*
X250801756Y-55236025D01*
X250801748Y-55236027D01*
X250628771Y-55307676D01*
X250628762Y-55307681D01*
X250473092Y-55411697D01*
X250473088Y-55411700D01*
X250340700Y-55544088D01*
X250340697Y-55544092D01*
X250236681Y-55699762D01*
X250236676Y-55699771D01*
X250165027Y-55872748D01*
X250165025Y-55872756D01*
X250128500Y-56056379D01*
X225369706Y-56056379D01*
X225313863Y-56000536D01*
X225313855Y-56000530D01*
X225239644Y-55957685D01*
X225239640Y-55957683D01*
X225239638Y-55957682D01*
X225156853Y-55935500D01*
X225071147Y-55935500D01*
X224988362Y-55957682D01*
X224988355Y-55957685D01*
X224914144Y-56000530D01*
X224914136Y-56000536D01*
X224853536Y-56061136D01*
X224853530Y-56061144D01*
X224810685Y-56135355D01*
X224810682Y-56135362D01*
X224788500Y-56218147D01*
X203400500Y-56218147D01*
X203400500Y-54186147D01*
X225607500Y-54186147D01*
X225607500Y-54271853D01*
X225627985Y-54348302D01*
X225629682Y-54354637D01*
X225629685Y-54354644D01*
X225672530Y-54428855D01*
X225672534Y-54428860D01*
X225672535Y-54428862D01*
X225733138Y-54489465D01*
X225733140Y-54489466D01*
X225733144Y-54489469D01*
X225807355Y-54532314D01*
X225807362Y-54532318D01*
X225890147Y-54554500D01*
X225890149Y-54554500D01*
X225975851Y-54554500D01*
X225975853Y-54554500D01*
X226058638Y-54532318D01*
X226132862Y-54489465D01*
X226193465Y-54428862D01*
X226236318Y-54354638D01*
X226258500Y-54271853D01*
X226258500Y-54186147D01*
X226236318Y-54103362D01*
X226211420Y-54060237D01*
X226193469Y-54029144D01*
X226193463Y-54029136D01*
X226132863Y-53968536D01*
X226132855Y-53968530D01*
X226058644Y-53925685D01*
X226058640Y-53925683D01*
X226058638Y-53925682D01*
X225975853Y-53903500D01*
X225890147Y-53903500D01*
X225807362Y-53925682D01*
X225807355Y-53925685D01*
X225733144Y-53968530D01*
X225733136Y-53968536D01*
X225672536Y-54029136D01*
X225672530Y-54029144D01*
X225629685Y-54103355D01*
X225629682Y-54103362D01*
X225607500Y-54186147D01*
X203400500Y-54186147D01*
X203400500Y-53678147D01*
X223988500Y-53678147D01*
X223988500Y-53763852D01*
X224010682Y-53846637D01*
X224010685Y-53846644D01*
X224053530Y-53920855D01*
X224053534Y-53920860D01*
X224053535Y-53920862D01*
X224114138Y-53981465D01*
X224114140Y-53981466D01*
X224114144Y-53981469D01*
X224188355Y-54024314D01*
X224188362Y-54024318D01*
X224271147Y-54046500D01*
X224271149Y-54046500D01*
X224356851Y-54046500D01*
X224356853Y-54046500D01*
X224439638Y-54024318D01*
X224513862Y-53981465D01*
X224574465Y-53920862D01*
X224617318Y-53846638D01*
X224639500Y-53763853D01*
X224639500Y-53678147D01*
X224617318Y-53595362D01*
X224609799Y-53582339D01*
X224574469Y-53521144D01*
X224574463Y-53521136D01*
X224513863Y-53460536D01*
X224513855Y-53460530D01*
X224439644Y-53417685D01*
X224439640Y-53417683D01*
X224439638Y-53417682D01*
X224356853Y-53395500D01*
X224271147Y-53395500D01*
X224188362Y-53417682D01*
X224188355Y-53417685D01*
X224114144Y-53460530D01*
X224114136Y-53460536D01*
X224053536Y-53521136D01*
X224053530Y-53521144D01*
X224010685Y-53595355D01*
X224010682Y-53595362D01*
X223988500Y-53678147D01*
X203400500Y-53678147D01*
X203400500Y-53297147D01*
X214939500Y-53297147D01*
X214939500Y-53382853D01*
X214960314Y-53460530D01*
X214961682Y-53465637D01*
X214961685Y-53465644D01*
X215004530Y-53539855D01*
X215004534Y-53539860D01*
X215004535Y-53539862D01*
X215065138Y-53600465D01*
X215065140Y-53600466D01*
X215065144Y-53600469D01*
X215139355Y-53643314D01*
X215139362Y-53643318D01*
X215222147Y-53665500D01*
X215222149Y-53665500D01*
X215307851Y-53665500D01*
X215307853Y-53665500D01*
X215390638Y-53643318D01*
X215464862Y-53600465D01*
X215525465Y-53539862D01*
X215568318Y-53465638D01*
X215590500Y-53382853D01*
X215590500Y-53297147D01*
X215568318Y-53214362D01*
X215568314Y-53214355D01*
X215552028Y-53186147D01*
X225607500Y-53186147D01*
X225607500Y-53271853D01*
X225614278Y-53297147D01*
X225629682Y-53354637D01*
X225629685Y-53354644D01*
X225672530Y-53428855D01*
X225672534Y-53428860D01*
X225672535Y-53428862D01*
X225733138Y-53489465D01*
X225733140Y-53489466D01*
X225733144Y-53489469D01*
X225788008Y-53521144D01*
X225807362Y-53532318D01*
X225890147Y-53554500D01*
X225890149Y-53554500D01*
X225975851Y-53554500D01*
X225975853Y-53554500D01*
X226058638Y-53532318D01*
X226132862Y-53489465D01*
X226193465Y-53428862D01*
X226206612Y-53406089D01*
X226257179Y-53357874D01*
X226325786Y-53344650D01*
X226390651Y-53370618D01*
X226421386Y-53406088D01*
X226434535Y-53428862D01*
X226495138Y-53489465D01*
X226495140Y-53489466D01*
X226495144Y-53489469D01*
X226550008Y-53521144D01*
X226569362Y-53532318D01*
X226652147Y-53554500D01*
X226652149Y-53554500D01*
X226737851Y-53554500D01*
X226737853Y-53554500D01*
X226820638Y-53532318D01*
X226848245Y-53516379D01*
X250128500Y-53516379D01*
X250128500Y-53703620D01*
X250165025Y-53887243D01*
X250165027Y-53887251D01*
X250236676Y-54060228D01*
X250236681Y-54060237D01*
X250340697Y-54215907D01*
X250340700Y-54215911D01*
X250473088Y-54348299D01*
X250473092Y-54348302D01*
X250628762Y-54452318D01*
X250628768Y-54452321D01*
X250628769Y-54452322D01*
X250801749Y-54523973D01*
X250955215Y-54554499D01*
X250985379Y-54560499D01*
X250985383Y-54560500D01*
X250985384Y-54560500D01*
X251172617Y-54560500D01*
X251172618Y-54560499D01*
X251356251Y-54523973D01*
X251529231Y-54452322D01*
X251684908Y-54348302D01*
X251817302Y-54215908D01*
X251921322Y-54060231D01*
X251992973Y-53887251D01*
X252029500Y-53703616D01*
X252029500Y-53516384D01*
X251992973Y-53332749D01*
X251921322Y-53159769D01*
X251921321Y-53159768D01*
X251921318Y-53159762D01*
X251817302Y-53004092D01*
X251817299Y-53004088D01*
X251684911Y-52871700D01*
X251684907Y-52871697D01*
X251529237Y-52767681D01*
X251529228Y-52767676D01*
X251356251Y-52696027D01*
X251356243Y-52696025D01*
X251172620Y-52659500D01*
X251172616Y-52659500D01*
X250985384Y-52659500D01*
X250985379Y-52659500D01*
X250801756Y-52696025D01*
X250801748Y-52696027D01*
X250628771Y-52767676D01*
X250628762Y-52767681D01*
X250473092Y-52871697D01*
X250473088Y-52871700D01*
X250340700Y-53004088D01*
X250340697Y-53004092D01*
X250236681Y-53159762D01*
X250236676Y-53159771D01*
X250165027Y-53332748D01*
X250165025Y-53332756D01*
X250128500Y-53516379D01*
X226848245Y-53516379D01*
X226894862Y-53489465D01*
X226955465Y-53428862D01*
X226998318Y-53354638D01*
X227020500Y-53271853D01*
X227020500Y-53186147D01*
X226998318Y-53103362D01*
X226968613Y-53051911D01*
X226955469Y-53029144D01*
X226955463Y-53029136D01*
X226894863Y-52968536D01*
X226894855Y-52968530D01*
X226820644Y-52925685D01*
X226820640Y-52925683D01*
X226820638Y-52925682D01*
X226737853Y-52903500D01*
X226652147Y-52903500D01*
X226569362Y-52925682D01*
X226569355Y-52925685D01*
X226495144Y-52968530D01*
X226495136Y-52968536D01*
X226434534Y-53029138D01*
X226421387Y-53051911D01*
X226370820Y-53100126D01*
X226302212Y-53113348D01*
X226237348Y-53087380D01*
X226206613Y-53051911D01*
X226193465Y-53029138D01*
X226132863Y-52968536D01*
X226132855Y-52968530D01*
X226058644Y-52925685D01*
X226058640Y-52925683D01*
X226058638Y-52925682D01*
X225975853Y-52903500D01*
X225890147Y-52903500D01*
X225807362Y-52925682D01*
X225807355Y-52925685D01*
X225733144Y-52968530D01*
X225733136Y-52968536D01*
X225672536Y-53029136D01*
X225672530Y-53029144D01*
X225629685Y-53103355D01*
X225629682Y-53103362D01*
X225607500Y-53186147D01*
X215552028Y-53186147D01*
X215525469Y-53140144D01*
X215525463Y-53140136D01*
X215464863Y-53079536D01*
X215464855Y-53079530D01*
X215390644Y-53036685D01*
X215390640Y-53036683D01*
X215390638Y-53036682D01*
X215307853Y-53014500D01*
X215222147Y-53014500D01*
X215139362Y-53036682D01*
X215139355Y-53036685D01*
X215065144Y-53079530D01*
X215065136Y-53079536D01*
X215004536Y-53140136D01*
X215004530Y-53140144D01*
X214961685Y-53214355D01*
X214961682Y-53214362D01*
X214939500Y-53297147D01*
X203400500Y-53297147D01*
X203400500Y-50884147D01*
X219638500Y-50884147D01*
X219638500Y-50969852D01*
X219660682Y-51052637D01*
X219660685Y-51052644D01*
X219703530Y-51126855D01*
X219703534Y-51126860D01*
X219703535Y-51126862D01*
X219764138Y-51187465D01*
X219764140Y-51187466D01*
X219764144Y-51187469D01*
X219838355Y-51230314D01*
X219838362Y-51230318D01*
X219921147Y-51252500D01*
X219921149Y-51252500D01*
X220006851Y-51252500D01*
X220006853Y-51252500D01*
X220089638Y-51230318D01*
X220163862Y-51187465D01*
X220224465Y-51126862D01*
X220267318Y-51052638D01*
X220287751Y-50976379D01*
X250128500Y-50976379D01*
X250128500Y-51163620D01*
X250165025Y-51347243D01*
X250165027Y-51347251D01*
X250236676Y-51520228D01*
X250236681Y-51520237D01*
X250340697Y-51675907D01*
X250340700Y-51675911D01*
X250473088Y-51808299D01*
X250473092Y-51808302D01*
X250628762Y-51912318D01*
X250628768Y-51912321D01*
X250628769Y-51912322D01*
X250801749Y-51983973D01*
X250985379Y-52020499D01*
X250985383Y-52020500D01*
X250985384Y-52020500D01*
X251172617Y-52020500D01*
X251172618Y-52020499D01*
X251356251Y-51983973D01*
X251529231Y-51912322D01*
X251684908Y-51808302D01*
X251817302Y-51675908D01*
X251921322Y-51520231D01*
X251992973Y-51347251D01*
X252029500Y-51163616D01*
X252029500Y-50976384D01*
X251992973Y-50792749D01*
X251921322Y-50619769D01*
X251921321Y-50619768D01*
X251921318Y-50619762D01*
X251817302Y-50464092D01*
X251817299Y-50464088D01*
X251684911Y-50331700D01*
X251684907Y-50331697D01*
X251529237Y-50227681D01*
X251529228Y-50227676D01*
X251356251Y-50156027D01*
X251356243Y-50156025D01*
X251172620Y-50119500D01*
X251172616Y-50119500D01*
X250985384Y-50119500D01*
X250985379Y-50119500D01*
X250801756Y-50156025D01*
X250801748Y-50156027D01*
X250628771Y-50227676D01*
X250628762Y-50227681D01*
X250473092Y-50331697D01*
X250473088Y-50331700D01*
X250340700Y-50464088D01*
X250340697Y-50464092D01*
X250236681Y-50619762D01*
X250236676Y-50619771D01*
X250165027Y-50792748D01*
X250165025Y-50792756D01*
X250128500Y-50976379D01*
X220287751Y-50976379D01*
X220289500Y-50969853D01*
X220289500Y-50884147D01*
X220267318Y-50801362D01*
X220262345Y-50792748D01*
X220224469Y-50727144D01*
X220224463Y-50727136D01*
X220163863Y-50666536D01*
X220163855Y-50666530D01*
X220089644Y-50623685D01*
X220089640Y-50623683D01*
X220089638Y-50623682D01*
X220006853Y-50601500D01*
X219921147Y-50601500D01*
X219838362Y-50623682D01*
X219838355Y-50623685D01*
X219764144Y-50666530D01*
X219764136Y-50666536D01*
X219703536Y-50727136D01*
X219703530Y-50727144D01*
X219660685Y-50801355D01*
X219660682Y-50801362D01*
X219638500Y-50884147D01*
X203400500Y-50884147D01*
X203400500Y-48436379D01*
X250128500Y-48436379D01*
X250128500Y-48623620D01*
X250165025Y-48807243D01*
X250165027Y-48807251D01*
X250236676Y-48980228D01*
X250236681Y-48980237D01*
X250340697Y-49135907D01*
X250340700Y-49135911D01*
X250473088Y-49268299D01*
X250473092Y-49268302D01*
X250628762Y-49372318D01*
X250628768Y-49372321D01*
X250628769Y-49372322D01*
X250801749Y-49443973D01*
X250985379Y-49480499D01*
X250985383Y-49480500D01*
X250985384Y-49480500D01*
X251172617Y-49480500D01*
X251172618Y-49480499D01*
X251356251Y-49443973D01*
X251529231Y-49372322D01*
X251684908Y-49268302D01*
X251817302Y-49135908D01*
X251921322Y-48980231D01*
X251992973Y-48807251D01*
X252029500Y-48623616D01*
X252029500Y-48436384D01*
X251992973Y-48252749D01*
X251921322Y-48079769D01*
X251921321Y-48079768D01*
X251921318Y-48079762D01*
X251817302Y-47924092D01*
X251817299Y-47924088D01*
X251684911Y-47791700D01*
X251684907Y-47791697D01*
X251529237Y-47687681D01*
X251529228Y-47687676D01*
X251356251Y-47616027D01*
X251356243Y-47616025D01*
X251172620Y-47579500D01*
X251172616Y-47579500D01*
X250985384Y-47579500D01*
X250985379Y-47579500D01*
X250801756Y-47616025D01*
X250801748Y-47616027D01*
X250628771Y-47687676D01*
X250628762Y-47687681D01*
X250473092Y-47791697D01*
X250473088Y-47791700D01*
X250340700Y-47924088D01*
X250340697Y-47924092D01*
X250236681Y-48079762D01*
X250236676Y-48079771D01*
X250165027Y-48252748D01*
X250165025Y-48252756D01*
X250128500Y-48436379D01*
X203400500Y-48436379D01*
X203400500Y-47979147D01*
X223067500Y-47979147D01*
X223067500Y-48064853D01*
X223071498Y-48079771D01*
X223089682Y-48147637D01*
X223089685Y-48147644D01*
X223132530Y-48221855D01*
X223132534Y-48221860D01*
X223132535Y-48221862D01*
X223193138Y-48282465D01*
X223193140Y-48282466D01*
X223193144Y-48282469D01*
X223263181Y-48322904D01*
X223267362Y-48325318D01*
X223350147Y-48347500D01*
X223350149Y-48347500D01*
X223435851Y-48347500D01*
X223435853Y-48347500D01*
X223518638Y-48325318D01*
X223592862Y-48282465D01*
X223653465Y-48221862D01*
X223696318Y-48147638D01*
X223718500Y-48064853D01*
X223718500Y-47979147D01*
X241482500Y-47979147D01*
X241482500Y-48064853D01*
X241486498Y-48079771D01*
X241504682Y-48147637D01*
X241504685Y-48147644D01*
X241547530Y-48221855D01*
X241547534Y-48221860D01*
X241547535Y-48221862D01*
X241608138Y-48282465D01*
X241608140Y-48282466D01*
X241608144Y-48282469D01*
X241678181Y-48322904D01*
X241682362Y-48325318D01*
X241765147Y-48347500D01*
X241765149Y-48347500D01*
X241850851Y-48347500D01*
X241850853Y-48347500D01*
X241933638Y-48325318D01*
X241936138Y-48323874D01*
X241937820Y-48322904D01*
X242007855Y-48282469D01*
X242007862Y-48282465D01*
X242068465Y-48221862D01*
X242111318Y-48147638D01*
X242133500Y-48064853D01*
X242133500Y-47979147D01*
X242111318Y-47896362D01*
X242111314Y-47896355D01*
X242068469Y-47822144D01*
X242068463Y-47822136D01*
X242007863Y-47761536D01*
X242007855Y-47761530D01*
X241933644Y-47718685D01*
X241933640Y-47718683D01*
X241933638Y-47718682D01*
X241850853Y-47696500D01*
X241765147Y-47696500D01*
X241682362Y-47718682D01*
X241682355Y-47718685D01*
X241608144Y-47761530D01*
X241608136Y-47761536D01*
X241547536Y-47822136D01*
X241547530Y-47822144D01*
X241504685Y-47896355D01*
X241504682Y-47896362D01*
X241482500Y-47979147D01*
X223718500Y-47979147D01*
X223696318Y-47896362D01*
X223696314Y-47896355D01*
X223653469Y-47822144D01*
X223653463Y-47822136D01*
X223592863Y-47761536D01*
X223592855Y-47761530D01*
X223518644Y-47718685D01*
X223518640Y-47718683D01*
X223518638Y-47718682D01*
X223435853Y-47696500D01*
X223350147Y-47696500D01*
X223267362Y-47718682D01*
X223267355Y-47718685D01*
X223193144Y-47761530D01*
X223193136Y-47761536D01*
X223132536Y-47822136D01*
X223132530Y-47822144D01*
X223089685Y-47896355D01*
X223089682Y-47896362D01*
X223067500Y-47979147D01*
X203400500Y-47979147D01*
X203400500Y-46312147D01*
X218622500Y-46312147D01*
X218622500Y-46397853D01*
X218633855Y-46440228D01*
X218644682Y-46480637D01*
X218644685Y-46480644D01*
X218687530Y-46554855D01*
X218687534Y-46554860D01*
X218687535Y-46554862D01*
X218748138Y-46615465D01*
X218748140Y-46615466D01*
X218748144Y-46615469D01*
X218822355Y-46658314D01*
X218822362Y-46658318D01*
X218905147Y-46680500D01*
X218905149Y-46680500D01*
X218990851Y-46680500D01*
X218990853Y-46680500D01*
X219073638Y-46658318D01*
X219147862Y-46615465D01*
X219208465Y-46554862D01*
X219251318Y-46480638D01*
X219273500Y-46397853D01*
X219273500Y-46312147D01*
X219251318Y-46229362D01*
X219251314Y-46229355D01*
X219208469Y-46155144D01*
X219208463Y-46155136D01*
X219147863Y-46094536D01*
X219147855Y-46094530D01*
X219073644Y-46051685D01*
X219073640Y-46051683D01*
X219073638Y-46051682D01*
X218990853Y-46029500D01*
X218905147Y-46029500D01*
X218822362Y-46051682D01*
X218822355Y-46051685D01*
X218748144Y-46094530D01*
X218748136Y-46094536D01*
X218687536Y-46155136D01*
X218687530Y-46155144D01*
X218644685Y-46229355D01*
X218644682Y-46229362D01*
X218622500Y-46312147D01*
X203400500Y-46312147D01*
X203400500Y-45896379D01*
X250128500Y-45896379D01*
X250128500Y-46083620D01*
X250165025Y-46267243D01*
X250165027Y-46267251D01*
X250236676Y-46440228D01*
X250236681Y-46440237D01*
X250340697Y-46595907D01*
X250340700Y-46595911D01*
X250473088Y-46728299D01*
X250473092Y-46728302D01*
X250628762Y-46832318D01*
X250628768Y-46832321D01*
X250628769Y-46832322D01*
X250801749Y-46903973D01*
X250985379Y-46940499D01*
X250985383Y-46940500D01*
X250985384Y-46940500D01*
X251172617Y-46940500D01*
X251172618Y-46940499D01*
X251356251Y-46903973D01*
X251529231Y-46832322D01*
X251684908Y-46728302D01*
X251817302Y-46595908D01*
X251921322Y-46440231D01*
X251992973Y-46267251D01*
X252029500Y-46083616D01*
X252029500Y-45896384D01*
X251992973Y-45712749D01*
X251921322Y-45539769D01*
X251921321Y-45539768D01*
X251921318Y-45539762D01*
X251817302Y-45384092D01*
X251817299Y-45384088D01*
X251684911Y-45251700D01*
X251684907Y-45251697D01*
X251529237Y-45147681D01*
X251529228Y-45147676D01*
X251356251Y-45076027D01*
X251356243Y-45076025D01*
X251172620Y-45039500D01*
X251172616Y-45039500D01*
X250985384Y-45039500D01*
X250985379Y-45039500D01*
X250801756Y-45076025D01*
X250801748Y-45076027D01*
X250628771Y-45147676D01*
X250628762Y-45147681D01*
X250473092Y-45251697D01*
X250473088Y-45251700D01*
X250340700Y-45384088D01*
X250340697Y-45384092D01*
X250236681Y-45539762D01*
X250236676Y-45539771D01*
X250165027Y-45712748D01*
X250165025Y-45712756D01*
X250128500Y-45896379D01*
X203400500Y-45896379D01*
X203400500Y-43645147D01*
X230179500Y-43645147D01*
X230179500Y-43730852D01*
X230201682Y-43813637D01*
X230201685Y-43813644D01*
X230244530Y-43887855D01*
X230244534Y-43887860D01*
X230244535Y-43887862D01*
X230305138Y-43948465D01*
X230305140Y-43948466D01*
X230305144Y-43948469D01*
X230379355Y-43991314D01*
X230379362Y-43991318D01*
X230462147Y-44013500D01*
X230462149Y-44013500D01*
X230547851Y-44013500D01*
X230547853Y-44013500D01*
X230630638Y-43991318D01*
X230704862Y-43948465D01*
X230765465Y-43887862D01*
X230808318Y-43813638D01*
X230830500Y-43730853D01*
X230830500Y-43645147D01*
X230808318Y-43562362D01*
X230808314Y-43562355D01*
X230765469Y-43488144D01*
X230765463Y-43488136D01*
X230704863Y-43427536D01*
X230704855Y-43427530D01*
X230630644Y-43384685D01*
X230630640Y-43384683D01*
X230630638Y-43384682D01*
X230547853Y-43362500D01*
X230462147Y-43362500D01*
X230379362Y-43384682D01*
X230379355Y-43384685D01*
X230305144Y-43427530D01*
X230305136Y-43427536D01*
X230244536Y-43488136D01*
X230244530Y-43488144D01*
X230201685Y-43562355D01*
X230201682Y-43562362D01*
X230179500Y-43645147D01*
X203400500Y-43645147D01*
X203400500Y-43026147D01*
X234243500Y-43026147D01*
X234243500Y-43111853D01*
X234251538Y-43141849D01*
X234265682Y-43194637D01*
X234265685Y-43194644D01*
X234308530Y-43268855D01*
X234308534Y-43268860D01*
X234308535Y-43268862D01*
X234369138Y-43329465D01*
X234369140Y-43329466D01*
X234369144Y-43329469D01*
X234443355Y-43372314D01*
X234443362Y-43372318D01*
X234526147Y-43394500D01*
X234526149Y-43394500D01*
X234611851Y-43394500D01*
X234611853Y-43394500D01*
X234694638Y-43372318D01*
X234768862Y-43329465D01*
X234829465Y-43268862D01*
X234872318Y-43194638D01*
X234894500Y-43111853D01*
X234894500Y-43056144D01*
X237164500Y-43056144D01*
X237164500Y-43141850D01*
X237178645Y-43194638D01*
X237186682Y-43224634D01*
X237186685Y-43224641D01*
X237229530Y-43298852D01*
X237229534Y-43298857D01*
X237229535Y-43298859D01*
X237290138Y-43359462D01*
X237290140Y-43359463D01*
X237290144Y-43359466D01*
X237350824Y-43394499D01*
X237364362Y-43402315D01*
X237447147Y-43424497D01*
X237447149Y-43424497D01*
X237532851Y-43424497D01*
X237532853Y-43424497D01*
X237615638Y-43402315D01*
X237689862Y-43359462D01*
X237692945Y-43356379D01*
X250128500Y-43356379D01*
X250128500Y-43543620D01*
X250165025Y-43727243D01*
X250165027Y-43727251D01*
X250236676Y-43900228D01*
X250236681Y-43900237D01*
X250340697Y-44055907D01*
X250340700Y-44055911D01*
X250473088Y-44188299D01*
X250473092Y-44188302D01*
X250628762Y-44292318D01*
X250628768Y-44292321D01*
X250628769Y-44292322D01*
X250801749Y-44363973D01*
X250985379Y-44400499D01*
X250985383Y-44400500D01*
X250985384Y-44400500D01*
X251172617Y-44400500D01*
X251172618Y-44400499D01*
X251356251Y-44363973D01*
X251529231Y-44292322D01*
X251684908Y-44188302D01*
X251817302Y-44055908D01*
X251921322Y-43900231D01*
X251992973Y-43727251D01*
X252029500Y-43543616D01*
X252029500Y-43356384D01*
X251992973Y-43172749D01*
X251921322Y-42999769D01*
X251921321Y-42999768D01*
X251921318Y-42999762D01*
X251817302Y-42844092D01*
X251817299Y-42844088D01*
X251684911Y-42711700D01*
X251684907Y-42711697D01*
X251529237Y-42607681D01*
X251529228Y-42607676D01*
X251356251Y-42536027D01*
X251356243Y-42536025D01*
X251172620Y-42499500D01*
X251172616Y-42499500D01*
X250985384Y-42499500D01*
X250985379Y-42499500D01*
X250801756Y-42536025D01*
X250801748Y-42536027D01*
X250628771Y-42607676D01*
X250628762Y-42607681D01*
X250473092Y-42711697D01*
X250473088Y-42711700D01*
X250340700Y-42844088D01*
X250340697Y-42844092D01*
X250236681Y-42999762D01*
X250236676Y-42999771D01*
X250165027Y-43172748D01*
X250165025Y-43172756D01*
X250128500Y-43356379D01*
X237692945Y-43356379D01*
X237750465Y-43298859D01*
X237793318Y-43224635D01*
X237815500Y-43141850D01*
X237815500Y-43056144D01*
X237793318Y-42973359D01*
X237793314Y-42973352D01*
X237750469Y-42899141D01*
X237750463Y-42899133D01*
X237689863Y-42838533D01*
X237689855Y-42838527D01*
X237615644Y-42795682D01*
X237615640Y-42795680D01*
X237615638Y-42795679D01*
X237532853Y-42773497D01*
X237447147Y-42773497D01*
X237364362Y-42795679D01*
X237364355Y-42795682D01*
X237290144Y-42838527D01*
X237290136Y-42838533D01*
X237229536Y-42899133D01*
X237229530Y-42899141D01*
X237186685Y-42973352D01*
X237186682Y-42973359D01*
X237164500Y-43056144D01*
X234894500Y-43056144D01*
X234894500Y-43026147D01*
X234872318Y-42943362D01*
X234846783Y-42899133D01*
X234829469Y-42869144D01*
X234829463Y-42869136D01*
X234768863Y-42808536D01*
X234768855Y-42808530D01*
X234694644Y-42765685D01*
X234694640Y-42765683D01*
X234694638Y-42765682D01*
X234611853Y-42743500D01*
X234526147Y-42743500D01*
X234443362Y-42765682D01*
X234443355Y-42765685D01*
X234369144Y-42808530D01*
X234369136Y-42808536D01*
X234308536Y-42869136D01*
X234308530Y-42869144D01*
X234265685Y-42943355D01*
X234265682Y-42943362D01*
X234243500Y-43026147D01*
X203400500Y-43026147D01*
X203400500Y-42137147D01*
X228020500Y-42137147D01*
X228020500Y-42222853D01*
X228027543Y-42249136D01*
X228042682Y-42305637D01*
X228042685Y-42305644D01*
X228085530Y-42379855D01*
X228085534Y-42379860D01*
X228085535Y-42379862D01*
X228146138Y-42440465D01*
X228146140Y-42440466D01*
X228146144Y-42440469D01*
X228220355Y-42483314D01*
X228220362Y-42483318D01*
X228303147Y-42505500D01*
X228303149Y-42505500D01*
X228388851Y-42505500D01*
X228388853Y-42505500D01*
X228401367Y-42502147D01*
X230306500Y-42502147D01*
X230306500Y-42587852D01*
X230328682Y-42670637D01*
X230328685Y-42670644D01*
X230371530Y-42744855D01*
X230371534Y-42744860D01*
X230371535Y-42744862D01*
X230432138Y-42805465D01*
X230432140Y-42805466D01*
X230432144Y-42805469D01*
X230489403Y-42838527D01*
X230506362Y-42848318D01*
X230589147Y-42870500D01*
X230589149Y-42870500D01*
X230674851Y-42870500D01*
X230674853Y-42870500D01*
X230757638Y-42848318D01*
X230831862Y-42805465D01*
X230892465Y-42744862D01*
X230935318Y-42670638D01*
X230957500Y-42587853D01*
X230957500Y-42502147D01*
X230935318Y-42419362D01*
X230927687Y-42406145D01*
X236529500Y-42406145D01*
X236529500Y-42491851D01*
X236541337Y-42536025D01*
X236551682Y-42574635D01*
X236551685Y-42574642D01*
X236594530Y-42648853D01*
X236594534Y-42648858D01*
X236594535Y-42648860D01*
X236655138Y-42709463D01*
X236655140Y-42709464D01*
X236655144Y-42709467D01*
X236714092Y-42743500D01*
X236729362Y-42752316D01*
X236812147Y-42774498D01*
X236812149Y-42774498D01*
X236897851Y-42774498D01*
X236897853Y-42774498D01*
X236980638Y-42752316D01*
X237054862Y-42709463D01*
X237115465Y-42648860D01*
X237158318Y-42574636D01*
X237180500Y-42491851D01*
X237180500Y-42406145D01*
X237158318Y-42323360D01*
X237135900Y-42284530D01*
X237115469Y-42249142D01*
X237115463Y-42249134D01*
X237054863Y-42188534D01*
X237054855Y-42188528D01*
X236980644Y-42145683D01*
X236980640Y-42145681D01*
X236980638Y-42145680D01*
X236897853Y-42123498D01*
X236812147Y-42123498D01*
X236729362Y-42145680D01*
X236729355Y-42145683D01*
X236655144Y-42188528D01*
X236655136Y-42188534D01*
X236594536Y-42249134D01*
X236594530Y-42249142D01*
X236551685Y-42323353D01*
X236551682Y-42323360D01*
X236529500Y-42406145D01*
X230927687Y-42406145D01*
X230892469Y-42345144D01*
X230892463Y-42345136D01*
X230831863Y-42284536D01*
X230831855Y-42284530D01*
X230757644Y-42241685D01*
X230757640Y-42241683D01*
X230757638Y-42241682D01*
X230674853Y-42219500D01*
X230589147Y-42219500D01*
X230506362Y-42241682D01*
X230506355Y-42241685D01*
X230432144Y-42284530D01*
X230432136Y-42284536D01*
X230371536Y-42345136D01*
X230371530Y-42345144D01*
X230328685Y-42419355D01*
X230328682Y-42419362D01*
X230306500Y-42502147D01*
X228401367Y-42502147D01*
X228471638Y-42483318D01*
X228545862Y-42440465D01*
X228606465Y-42379862D01*
X228649318Y-42305638D01*
X228671500Y-42222853D01*
X228671500Y-42137147D01*
X228649318Y-42054362D01*
X228649314Y-42054355D01*
X228606469Y-41980144D01*
X228606463Y-41980136D01*
X228545863Y-41919536D01*
X228545855Y-41919530D01*
X228471644Y-41876685D01*
X228471640Y-41876683D01*
X228471638Y-41876682D01*
X228388853Y-41854500D01*
X228303147Y-41854500D01*
X228220362Y-41876682D01*
X228220355Y-41876685D01*
X228146144Y-41919530D01*
X228146136Y-41919536D01*
X228085536Y-41980136D01*
X228085530Y-41980144D01*
X228042685Y-42054355D01*
X228042682Y-42054362D01*
X228020500Y-42137147D01*
X203400500Y-42137147D01*
X203400500Y-41486147D01*
X219003500Y-41486147D01*
X219003500Y-41571853D01*
X219023985Y-41648302D01*
X219025682Y-41654637D01*
X219025685Y-41654644D01*
X219068530Y-41728855D01*
X219068534Y-41728860D01*
X219068535Y-41728862D01*
X219129138Y-41789465D01*
X219129140Y-41789466D01*
X219129144Y-41789469D01*
X219203355Y-41832314D01*
X219203362Y-41832318D01*
X219286147Y-41854500D01*
X219286149Y-41854500D01*
X219371851Y-41854500D01*
X219371853Y-41854500D01*
X219454638Y-41832318D01*
X219528862Y-41789465D01*
X219562183Y-41756144D01*
X232338500Y-41756144D01*
X232338500Y-41841850D01*
X232359316Y-41919535D01*
X232360682Y-41924634D01*
X232360685Y-41924641D01*
X232403530Y-41998852D01*
X232403534Y-41998857D01*
X232403535Y-41998859D01*
X232464138Y-42059462D01*
X232464140Y-42059463D01*
X232464144Y-42059466D01*
X232538355Y-42102311D01*
X232538362Y-42102315D01*
X232621147Y-42124497D01*
X232621149Y-42124497D01*
X232706851Y-42124497D01*
X232706853Y-42124497D01*
X232789638Y-42102315D01*
X232863862Y-42059462D01*
X232924465Y-41998859D01*
X232967318Y-41924635D01*
X232989500Y-41841850D01*
X232989500Y-41756144D01*
X232967318Y-41673359D01*
X232956513Y-41654644D01*
X232924469Y-41599141D01*
X232924463Y-41599133D01*
X232863863Y-41538533D01*
X232863855Y-41538527D01*
X232789644Y-41495682D01*
X232789640Y-41495680D01*
X232789638Y-41495679D01*
X232706853Y-41473497D01*
X232621147Y-41473497D01*
X232538362Y-41495679D01*
X232538355Y-41495682D01*
X232464144Y-41538527D01*
X232464136Y-41538533D01*
X232403536Y-41599133D01*
X232403530Y-41599141D01*
X232360685Y-41673352D01*
X232360682Y-41673359D01*
X232338500Y-41756144D01*
X219562183Y-41756144D01*
X219589465Y-41728862D01*
X219632318Y-41654638D01*
X219654500Y-41571853D01*
X219654500Y-41486147D01*
X219632318Y-41403362D01*
X219607420Y-41360237D01*
X219589469Y-41329144D01*
X219589463Y-41329136D01*
X219528863Y-41268536D01*
X219528855Y-41268530D01*
X219454644Y-41225685D01*
X219454640Y-41225683D01*
X219454638Y-41225682D01*
X219371853Y-41203500D01*
X219286147Y-41203500D01*
X219203362Y-41225682D01*
X219203355Y-41225685D01*
X219129144Y-41268530D01*
X219129136Y-41268536D01*
X219068536Y-41329136D01*
X219068530Y-41329144D01*
X219025685Y-41403355D01*
X219025682Y-41403362D01*
X219003500Y-41486147D01*
X203400500Y-41486147D01*
X203400500Y-40470147D01*
X228020500Y-40470147D01*
X228020500Y-40555852D01*
X228042682Y-40638637D01*
X228042685Y-40638644D01*
X228085530Y-40712855D01*
X228085534Y-40712860D01*
X228085535Y-40712862D01*
X228146138Y-40773465D01*
X228146140Y-40773466D01*
X228146144Y-40773469D01*
X228196101Y-40802311D01*
X228220362Y-40816318D01*
X228303147Y-40838500D01*
X228303149Y-40838500D01*
X228388851Y-40838500D01*
X228388853Y-40838500D01*
X228471638Y-40816318D01*
X228545862Y-40773465D01*
X228606465Y-40712862D01*
X228649318Y-40638638D01*
X228671500Y-40555853D01*
X228671500Y-40470147D01*
X228667748Y-40456144D01*
X234751500Y-40456144D01*
X234751500Y-40541849D01*
X234773682Y-40624634D01*
X234773685Y-40624641D01*
X234816530Y-40698852D01*
X234816534Y-40698857D01*
X234816535Y-40698859D01*
X234877138Y-40759462D01*
X234877140Y-40759463D01*
X234877144Y-40759466D01*
X234951355Y-40802311D01*
X234951362Y-40802315D01*
X235034147Y-40824497D01*
X235034149Y-40824497D01*
X235119851Y-40824497D01*
X235119853Y-40824497D01*
X235150150Y-40816379D01*
X250128500Y-40816379D01*
X250128500Y-41003620D01*
X250165025Y-41187243D01*
X250165027Y-41187251D01*
X250236676Y-41360228D01*
X250236681Y-41360237D01*
X250340697Y-41515907D01*
X250340700Y-41515911D01*
X250473088Y-41648299D01*
X250473092Y-41648302D01*
X250628762Y-41752318D01*
X250628768Y-41752321D01*
X250628769Y-41752322D01*
X250801749Y-41823973D01*
X250955215Y-41854499D01*
X250985379Y-41860499D01*
X250985383Y-41860500D01*
X250985384Y-41860500D01*
X251172617Y-41860500D01*
X251172618Y-41860499D01*
X251356251Y-41823973D01*
X251529231Y-41752322D01*
X251684908Y-41648302D01*
X251817302Y-41515908D01*
X251921322Y-41360231D01*
X251992973Y-41187251D01*
X252029500Y-41003616D01*
X252029500Y-40816384D01*
X251992973Y-40632749D01*
X251937554Y-40498956D01*
X251921323Y-40459771D01*
X251921318Y-40459762D01*
X251817302Y-40304092D01*
X251817299Y-40304088D01*
X251684911Y-40171700D01*
X251684907Y-40171697D01*
X251529237Y-40067681D01*
X251529228Y-40067676D01*
X251356251Y-39996027D01*
X251356243Y-39996025D01*
X251172620Y-39959500D01*
X251172616Y-39959500D01*
X250985384Y-39959500D01*
X250985379Y-39959500D01*
X250801756Y-39996025D01*
X250801748Y-39996027D01*
X250628771Y-40067676D01*
X250628762Y-40067681D01*
X250473092Y-40171697D01*
X250473088Y-40171700D01*
X250340700Y-40304088D01*
X250340697Y-40304092D01*
X250236681Y-40459762D01*
X250236676Y-40459771D01*
X250165027Y-40632748D01*
X250165025Y-40632756D01*
X250128500Y-40816379D01*
X235150150Y-40816379D01*
X235202638Y-40802315D01*
X235276862Y-40759462D01*
X235337465Y-40698859D01*
X235380318Y-40624635D01*
X235402500Y-40541850D01*
X235402500Y-40456144D01*
X235380318Y-40373359D01*
X235345550Y-40313138D01*
X235337469Y-40299141D01*
X235337463Y-40299133D01*
X235276863Y-40238533D01*
X235276855Y-40238527D01*
X235202644Y-40195682D01*
X235202640Y-40195680D01*
X235202638Y-40195679D01*
X235119853Y-40173497D01*
X235034147Y-40173497D01*
X234951362Y-40195679D01*
X234951355Y-40195682D01*
X234877144Y-40238527D01*
X234877136Y-40238533D01*
X234816536Y-40299133D01*
X234816530Y-40299141D01*
X234773685Y-40373352D01*
X234773682Y-40373359D01*
X234751500Y-40456144D01*
X228667748Y-40456144D01*
X228649318Y-40387362D01*
X228649314Y-40387355D01*
X228606469Y-40313144D01*
X228606463Y-40313136D01*
X228545863Y-40252536D01*
X228545855Y-40252530D01*
X228471644Y-40209685D01*
X228471640Y-40209683D01*
X228471638Y-40209682D01*
X228388853Y-40187500D01*
X228303147Y-40187500D01*
X228220362Y-40209682D01*
X228220355Y-40209685D01*
X228146144Y-40252530D01*
X228146136Y-40252536D01*
X228085536Y-40313136D01*
X228085530Y-40313144D01*
X228042685Y-40387355D01*
X228042682Y-40387362D01*
X228020500Y-40470147D01*
X203400500Y-40470147D01*
X203400500Y-39581147D01*
X219003500Y-39581147D01*
X219003500Y-39666853D01*
X219005233Y-39673318D01*
X219025682Y-39749637D01*
X219025685Y-39749644D01*
X219068530Y-39823855D01*
X219068534Y-39823860D01*
X219068535Y-39823862D01*
X219129138Y-39884465D01*
X219129140Y-39884466D01*
X219129144Y-39884469D01*
X219203355Y-39927314D01*
X219203362Y-39927318D01*
X219286147Y-39949500D01*
X219286149Y-39949500D01*
X219371851Y-39949500D01*
X219371853Y-39949500D01*
X219454638Y-39927318D01*
X219528862Y-39884465D01*
X219589465Y-39823862D01*
X219632318Y-39749638D01*
X219654500Y-39666853D01*
X219654500Y-39581147D01*
X221035500Y-39581147D01*
X221035500Y-39666853D01*
X221037233Y-39673318D01*
X221057682Y-39749637D01*
X221057685Y-39749644D01*
X221100530Y-39823855D01*
X221100534Y-39823860D01*
X221100535Y-39823862D01*
X221161138Y-39884465D01*
X221161140Y-39884466D01*
X221161144Y-39884469D01*
X221235355Y-39927314D01*
X221235362Y-39927318D01*
X221318147Y-39949500D01*
X221318149Y-39949500D01*
X221403851Y-39949500D01*
X221403853Y-39949500D01*
X221486638Y-39927318D01*
X221560862Y-39884465D01*
X221621465Y-39823862D01*
X221664318Y-39749638D01*
X221686500Y-39666853D01*
X221686500Y-39581147D01*
X221664318Y-39498362D01*
X221662745Y-39495637D01*
X221621469Y-39424144D01*
X221621463Y-39424136D01*
X221560863Y-39363536D01*
X221560855Y-39363530D01*
X221497837Y-39327147D01*
X234751500Y-39327147D01*
X234751500Y-39412853D01*
X234754526Y-39424144D01*
X234773682Y-39495637D01*
X234773685Y-39495644D01*
X234816530Y-39569855D01*
X234816534Y-39569860D01*
X234816535Y-39569862D01*
X234877138Y-39630465D01*
X234877140Y-39630466D01*
X234877144Y-39630469D01*
X234940161Y-39666851D01*
X234951362Y-39673318D01*
X235034147Y-39695500D01*
X235034149Y-39695500D01*
X235119851Y-39695500D01*
X235119853Y-39695500D01*
X235202638Y-39673318D01*
X235276862Y-39630465D01*
X235337465Y-39569862D01*
X235380318Y-39495638D01*
X235402500Y-39412853D01*
X235402500Y-39327147D01*
X235380318Y-39244362D01*
X235371965Y-39229894D01*
X235337469Y-39170144D01*
X235337463Y-39170136D01*
X235276863Y-39109536D01*
X235276855Y-39109530D01*
X235202644Y-39066685D01*
X235202640Y-39066683D01*
X235202638Y-39066682D01*
X235119853Y-39044500D01*
X235034147Y-39044500D01*
X234951362Y-39066682D01*
X234951355Y-39066685D01*
X234877144Y-39109530D01*
X234877136Y-39109536D01*
X234816536Y-39170136D01*
X234816530Y-39170144D01*
X234773685Y-39244355D01*
X234773682Y-39244362D01*
X234751500Y-39327147D01*
X221497837Y-39327147D01*
X221486644Y-39320685D01*
X221486640Y-39320683D01*
X221486638Y-39320682D01*
X221403853Y-39298500D01*
X221318147Y-39298500D01*
X221235362Y-39320682D01*
X221235355Y-39320685D01*
X221161144Y-39363530D01*
X221161136Y-39363536D01*
X221100536Y-39424136D01*
X221100530Y-39424144D01*
X221057685Y-39498355D01*
X221057682Y-39498362D01*
X221035500Y-39581147D01*
X219654500Y-39581147D01*
X219632318Y-39498362D01*
X219630745Y-39495637D01*
X219589469Y-39424144D01*
X219589463Y-39424136D01*
X219528863Y-39363536D01*
X219528855Y-39363530D01*
X219454644Y-39320685D01*
X219454640Y-39320683D01*
X219454638Y-39320682D01*
X219371853Y-39298500D01*
X219286147Y-39298500D01*
X219203362Y-39320682D01*
X219203355Y-39320685D01*
X219129144Y-39363530D01*
X219129136Y-39363536D01*
X219068536Y-39424136D01*
X219068530Y-39424144D01*
X219025685Y-39498355D01*
X219025682Y-39498362D01*
X219003500Y-39581147D01*
X203400500Y-39581147D01*
X203400500Y-38184147D01*
X221035500Y-38184147D01*
X221035500Y-38269852D01*
X221057682Y-38352637D01*
X221057685Y-38352644D01*
X221100530Y-38426855D01*
X221100534Y-38426860D01*
X221100535Y-38426862D01*
X221161138Y-38487465D01*
X221161140Y-38487466D01*
X221161144Y-38487469D01*
X221235355Y-38530314D01*
X221235362Y-38530318D01*
X221318147Y-38552500D01*
X221318149Y-38552500D01*
X221403851Y-38552500D01*
X221403853Y-38552500D01*
X221486638Y-38530318D01*
X221560862Y-38487465D01*
X221621465Y-38426862D01*
X221664318Y-38352638D01*
X221686500Y-38269853D01*
X221686500Y-38184147D01*
X223575500Y-38184147D01*
X223575500Y-38269852D01*
X223597682Y-38352637D01*
X223597685Y-38352644D01*
X223640530Y-38426855D01*
X223640534Y-38426860D01*
X223640535Y-38426862D01*
X223701138Y-38487465D01*
X223701140Y-38487466D01*
X223701144Y-38487469D01*
X223775355Y-38530314D01*
X223775362Y-38530318D01*
X223858147Y-38552500D01*
X223858149Y-38552500D01*
X223943851Y-38552500D01*
X223943853Y-38552500D01*
X224026638Y-38530318D01*
X224100862Y-38487465D01*
X224161465Y-38426862D01*
X224204318Y-38352638D01*
X224226500Y-38269853D01*
X224226500Y-38184147D01*
X231322500Y-38184147D01*
X231322500Y-38269852D01*
X231344682Y-38352637D01*
X231344685Y-38352644D01*
X231387530Y-38426855D01*
X231387534Y-38426860D01*
X231387535Y-38426862D01*
X231448138Y-38487465D01*
X231448140Y-38487466D01*
X231448144Y-38487469D01*
X231522355Y-38530314D01*
X231522362Y-38530318D01*
X231605147Y-38552500D01*
X231605149Y-38552500D01*
X231690851Y-38552500D01*
X231690853Y-38552500D01*
X231773638Y-38530318D01*
X231847862Y-38487465D01*
X231908465Y-38426862D01*
X231951318Y-38352638D01*
X231973500Y-38269853D01*
X231973500Y-38184147D01*
X231951318Y-38101362D01*
X231951314Y-38101355D01*
X231908469Y-38027144D01*
X231908463Y-38027136D01*
X231847863Y-37966536D01*
X231847855Y-37966530D01*
X231773644Y-37923685D01*
X231773640Y-37923683D01*
X231773638Y-37923682D01*
X231690853Y-37901500D01*
X231605147Y-37901500D01*
X231522362Y-37923682D01*
X231522355Y-37923685D01*
X231448144Y-37966530D01*
X231448136Y-37966536D01*
X231387536Y-38027136D01*
X231387530Y-38027144D01*
X231344685Y-38101355D01*
X231344682Y-38101362D01*
X231322500Y-38184147D01*
X224226500Y-38184147D01*
X224204318Y-38101362D01*
X224204314Y-38101355D01*
X224161469Y-38027144D01*
X224161463Y-38027136D01*
X224100863Y-37966536D01*
X224100855Y-37966530D01*
X224026644Y-37923685D01*
X224026640Y-37923683D01*
X224026638Y-37923682D01*
X223943853Y-37901500D01*
X223858147Y-37901500D01*
X223775362Y-37923682D01*
X223775355Y-37923685D01*
X223701144Y-37966530D01*
X223701136Y-37966536D01*
X223640536Y-38027136D01*
X223640530Y-38027144D01*
X223597685Y-38101355D01*
X223597682Y-38101362D01*
X223575500Y-38184147D01*
X221686500Y-38184147D01*
X221664318Y-38101362D01*
X221664314Y-38101355D01*
X221621469Y-38027144D01*
X221621463Y-38027136D01*
X221560863Y-37966536D01*
X221560855Y-37966530D01*
X221486644Y-37923685D01*
X221486640Y-37923683D01*
X221486638Y-37923682D01*
X221403853Y-37901500D01*
X221318147Y-37901500D01*
X221235362Y-37923682D01*
X221235355Y-37923685D01*
X221161144Y-37966530D01*
X221161136Y-37966536D01*
X221100536Y-38027136D01*
X221100530Y-38027144D01*
X221057685Y-38101355D01*
X221057682Y-38101362D01*
X221035500Y-38184147D01*
X203400500Y-38184147D01*
X203400500Y-37510098D01*
X250128500Y-37510098D01*
X250128500Y-39229894D01*
X250128501Y-39229902D01*
X250134330Y-39259212D01*
X250156542Y-39292457D01*
X250165587Y-39298500D01*
X250189787Y-39314669D01*
X250189790Y-39314669D01*
X250189791Y-39314670D01*
X250199647Y-39316630D01*
X250219101Y-39320500D01*
X251938898Y-39320499D01*
X251968213Y-39314669D01*
X252001457Y-39292457D01*
X252023669Y-39259213D01*
X252029500Y-39229899D01*
X252029499Y-37510102D01*
X252023669Y-37480787D01*
X252023668Y-37480785D01*
X252001457Y-37447542D01*
X251968214Y-37425332D01*
X251968215Y-37425332D01*
X251968213Y-37425331D01*
X251968211Y-37425330D01*
X251968208Y-37425329D01*
X251938901Y-37419500D01*
X250219105Y-37419500D01*
X250219097Y-37419501D01*
X250189787Y-37425330D01*
X250156542Y-37447542D01*
X250134332Y-37480785D01*
X250134329Y-37480791D01*
X250128500Y-37510098D01*
X203400500Y-37510098D01*
X203400500Y-30119753D01*
X205025000Y-30119753D01*
X205025000Y-30332246D01*
X205058242Y-30542127D01*
X205058242Y-30542130D01*
X205123904Y-30744217D01*
X205220375Y-30933550D01*
X205259728Y-30987716D01*
X205892037Y-30355408D01*
X205909075Y-30418993D01*
X205974901Y-30533007D01*
X206067993Y-30626099D01*
X206182007Y-30691925D01*
X206245590Y-30708962D01*
X205613282Y-31341269D01*
X205613282Y-31341270D01*
X205667449Y-31380624D01*
X205856782Y-31477095D01*
X206058870Y-31542757D01*
X206260269Y-31574656D01*
X206323404Y-31604585D01*
X206360335Y-31663897D01*
X206359337Y-31733759D01*
X206320727Y-31791992D01*
X206265062Y-31818746D01*
X206097756Y-31852025D01*
X206097748Y-31852027D01*
X205924771Y-31923676D01*
X205924762Y-31923681D01*
X205769092Y-32027697D01*
X205769088Y-32027700D01*
X205636700Y-32160088D01*
X205636697Y-32160092D01*
X205532681Y-32315762D01*
X205532676Y-32315771D01*
X205461027Y-32488748D01*
X205461025Y-32488756D01*
X205424500Y-32672379D01*
X205424500Y-32859620D01*
X205461025Y-33043243D01*
X205461027Y-33043251D01*
X205532676Y-33216228D01*
X205532681Y-33216237D01*
X205636697Y-33371907D01*
X205636700Y-33371911D01*
X205769088Y-33504299D01*
X205769092Y-33504302D01*
X205924762Y-33608318D01*
X205924768Y-33608321D01*
X205924769Y-33608322D01*
X206097749Y-33679973D01*
X206164658Y-33693282D01*
X206250629Y-33710383D01*
X206312540Y-33742768D01*
X206347114Y-33803483D01*
X206343375Y-33873253D01*
X206302509Y-33929925D01*
X206237490Y-33955506D01*
X206226438Y-33956000D01*
X205477155Y-33956000D01*
X205417627Y-33962401D01*
X205417620Y-33962403D01*
X205282913Y-34012645D01*
X205282906Y-34012649D01*
X205167812Y-34098809D01*
X205167809Y-34098812D01*
X205081649Y-34213906D01*
X205081645Y-34213913D01*
X205031403Y-34348620D01*
X205031401Y-34348627D01*
X205025000Y-34408155D01*
X205025000Y-35056000D01*
X205941988Y-35056000D01*
X205909075Y-35113007D01*
X205875000Y-35240174D01*
X205875000Y-35371826D01*
X205909075Y-35498993D01*
X205941988Y-35556000D01*
X205025000Y-35556000D01*
X205025000Y-36203844D01*
X205031401Y-36263372D01*
X205031403Y-36263379D01*
X205081645Y-36398086D01*
X205081649Y-36398093D01*
X205167809Y-36513187D01*
X205167812Y-36513190D01*
X205282906Y-36599350D01*
X205282913Y-36599354D01*
X205417620Y-36649596D01*
X205417627Y-36649598D01*
X205477155Y-36655999D01*
X205477172Y-36656000D01*
X206125000Y-36656000D01*
X206125000Y-35739012D01*
X206182007Y-35771925D01*
X206309174Y-35806000D01*
X206440826Y-35806000D01*
X206567993Y-35771925D01*
X206625000Y-35739012D01*
X206625000Y-36656000D01*
X207272828Y-36656000D01*
X207272844Y-36655999D01*
X207332372Y-36649598D01*
X207332379Y-36649596D01*
X207467086Y-36599354D01*
X207467093Y-36599350D01*
X207582187Y-36513190D01*
X207582190Y-36513187D01*
X207668350Y-36398093D01*
X207668354Y-36398086D01*
X207718596Y-36263379D01*
X207718598Y-36263372D01*
X207724999Y-36203844D01*
X207725000Y-36203827D01*
X207725000Y-35556000D01*
X206808012Y-35556000D01*
X206840925Y-35498993D01*
X206875000Y-35371826D01*
X206875000Y-35355379D01*
X234126500Y-35355379D01*
X234126500Y-35542620D01*
X234163025Y-35726243D01*
X234163027Y-35726251D01*
X234234676Y-35899228D01*
X234234681Y-35899237D01*
X234338697Y-36054907D01*
X234338700Y-36054911D01*
X234471088Y-36187299D01*
X234471092Y-36187302D01*
X234626762Y-36291318D01*
X234626768Y-36291321D01*
X234626769Y-36291322D01*
X234799749Y-36362973D01*
X234983374Y-36399498D01*
X234983379Y-36399499D01*
X234983383Y-36399500D01*
X234983384Y-36399500D01*
X235170617Y-36399500D01*
X235170618Y-36399499D01*
X235354251Y-36362973D01*
X235527231Y-36291322D01*
X235682908Y-36187302D01*
X235815302Y-36054908D01*
X235919322Y-35899231D01*
X235990973Y-35726251D01*
X236027500Y-35542616D01*
X236027500Y-35355384D01*
X236027499Y-35355379D01*
X236666500Y-35355379D01*
X236666500Y-35542620D01*
X236703025Y-35726243D01*
X236703027Y-35726251D01*
X236774676Y-35899228D01*
X236774681Y-35899237D01*
X236878697Y-36054907D01*
X236878700Y-36054911D01*
X237011088Y-36187299D01*
X237011092Y-36187302D01*
X237166762Y-36291318D01*
X237166768Y-36291321D01*
X237166769Y-36291322D01*
X237339749Y-36362973D01*
X237523374Y-36399498D01*
X237523379Y-36399499D01*
X237523383Y-36399500D01*
X237523384Y-36399500D01*
X237710617Y-36399500D01*
X237710618Y-36399499D01*
X237894251Y-36362973D01*
X238067231Y-36291322D01*
X238222908Y-36187302D01*
X238355302Y-36054908D01*
X238459322Y-35899231D01*
X238530973Y-35726251D01*
X238567500Y-35542616D01*
X238567500Y-35355384D01*
X238567499Y-35355379D01*
X239206500Y-35355379D01*
X239206500Y-35542620D01*
X239243025Y-35726243D01*
X239243027Y-35726251D01*
X239314676Y-35899228D01*
X239314681Y-35899237D01*
X239418697Y-36054907D01*
X239418700Y-36054911D01*
X239551088Y-36187299D01*
X239551092Y-36187302D01*
X239706762Y-36291318D01*
X239706768Y-36291321D01*
X239706769Y-36291322D01*
X239879749Y-36362973D01*
X240063374Y-36399498D01*
X240063379Y-36399499D01*
X240063383Y-36399500D01*
X240063384Y-36399500D01*
X240250617Y-36399500D01*
X240250618Y-36399499D01*
X240434251Y-36362973D01*
X240607231Y-36291322D01*
X240762908Y-36187302D01*
X240895302Y-36054908D01*
X240999322Y-35899231D01*
X241070973Y-35726251D01*
X241107500Y-35542616D01*
X241107500Y-35355384D01*
X241107499Y-35355379D01*
X241746500Y-35355379D01*
X241746500Y-35542620D01*
X241783025Y-35726243D01*
X241783027Y-35726251D01*
X241854676Y-35899228D01*
X241854681Y-35899237D01*
X241958697Y-36054907D01*
X241958700Y-36054911D01*
X242091088Y-36187299D01*
X242091092Y-36187302D01*
X242246762Y-36291318D01*
X242246768Y-36291321D01*
X242246769Y-36291322D01*
X242419749Y-36362973D01*
X242603374Y-36399498D01*
X242603379Y-36399499D01*
X242603383Y-36399500D01*
X242603384Y-36399500D01*
X242790617Y-36399500D01*
X242790618Y-36399499D01*
X242974251Y-36362973D01*
X243147231Y-36291322D01*
X243302908Y-36187302D01*
X243435302Y-36054908D01*
X243539322Y-35899231D01*
X243610973Y-35726251D01*
X243647500Y-35542616D01*
X243647500Y-35355384D01*
X243610973Y-35171749D01*
X243539322Y-34998769D01*
X243539321Y-34998768D01*
X243539318Y-34998762D01*
X243435302Y-34843092D01*
X243435299Y-34843088D01*
X243302911Y-34710700D01*
X243302907Y-34710697D01*
X243266112Y-34686111D01*
X243147237Y-34606681D01*
X243147228Y-34606676D01*
X243104791Y-34589098D01*
X244286500Y-34589098D01*
X244286500Y-36308894D01*
X244286501Y-36308902D01*
X244292330Y-36338212D01*
X244314542Y-36371457D01*
X244331219Y-36382599D01*
X244347787Y-36393669D01*
X244347790Y-36393669D01*
X244347791Y-36393670D01*
X244357647Y-36395630D01*
X244377101Y-36399500D01*
X246096898Y-36399499D01*
X246126213Y-36393669D01*
X246159457Y-36371457D01*
X246181669Y-36338213D01*
X246187500Y-36308899D01*
X246187499Y-34589102D01*
X246181669Y-34559787D01*
X246165126Y-34535027D01*
X246159457Y-34526542D01*
X246126214Y-34504332D01*
X246126215Y-34504332D01*
X246126213Y-34504331D01*
X246126211Y-34504330D01*
X246126208Y-34504329D01*
X246096901Y-34498500D01*
X244377105Y-34498500D01*
X244377097Y-34498501D01*
X244347787Y-34504330D01*
X244314542Y-34526542D01*
X244292332Y-34559785D01*
X244292329Y-34559791D01*
X244286500Y-34589098D01*
X243104791Y-34589098D01*
X242974251Y-34535027D01*
X242974243Y-34535025D01*
X242790620Y-34498500D01*
X242790616Y-34498500D01*
X242603384Y-34498500D01*
X242603379Y-34498500D01*
X242419756Y-34535025D01*
X242419748Y-34535027D01*
X242246771Y-34606676D01*
X242246762Y-34606681D01*
X242091092Y-34710697D01*
X242091088Y-34710700D01*
X241958700Y-34843088D01*
X241958697Y-34843092D01*
X241854681Y-34998762D01*
X241854676Y-34998771D01*
X241783027Y-35171748D01*
X241783025Y-35171756D01*
X241746500Y-35355379D01*
X241107499Y-35355379D01*
X241070973Y-35171749D01*
X240999322Y-34998769D01*
X240999321Y-34998768D01*
X240999318Y-34998762D01*
X240895302Y-34843092D01*
X240895299Y-34843088D01*
X240762911Y-34710700D01*
X240762907Y-34710697D01*
X240607237Y-34606681D01*
X240607228Y-34606676D01*
X240434251Y-34535027D01*
X240434243Y-34535025D01*
X240250620Y-34498500D01*
X240250616Y-34498500D01*
X240063384Y-34498500D01*
X240063379Y-34498500D01*
X239879756Y-34535025D01*
X239879748Y-34535027D01*
X239706771Y-34606676D01*
X239706762Y-34606681D01*
X239551092Y-34710697D01*
X239551088Y-34710700D01*
X239418700Y-34843088D01*
X239418697Y-34843092D01*
X239314681Y-34998762D01*
X239314676Y-34998771D01*
X239243027Y-35171748D01*
X239243025Y-35171756D01*
X239206500Y-35355379D01*
X238567499Y-35355379D01*
X238530973Y-35171749D01*
X238459322Y-34998769D01*
X238459321Y-34998768D01*
X238459318Y-34998762D01*
X238355302Y-34843092D01*
X238355299Y-34843088D01*
X238222911Y-34710700D01*
X238222907Y-34710697D01*
X238067237Y-34606681D01*
X238067228Y-34606676D01*
X237894251Y-34535027D01*
X237894243Y-34535025D01*
X237710620Y-34498500D01*
X237710616Y-34498500D01*
X237523384Y-34498500D01*
X237523379Y-34498500D01*
X237339756Y-34535025D01*
X237339748Y-34535027D01*
X237166771Y-34606676D01*
X237166762Y-34606681D01*
X237011092Y-34710697D01*
X237011088Y-34710700D01*
X236878700Y-34843088D01*
X236878697Y-34843092D01*
X236774681Y-34998762D01*
X236774676Y-34998771D01*
X236703027Y-35171748D01*
X236703025Y-35171756D01*
X236666500Y-35355379D01*
X236027499Y-35355379D01*
X235990973Y-35171749D01*
X235919322Y-34998769D01*
X235919321Y-34998768D01*
X235919318Y-34998762D01*
X235815302Y-34843092D01*
X235815299Y-34843088D01*
X235682911Y-34710700D01*
X235682907Y-34710697D01*
X235527237Y-34606681D01*
X235527228Y-34606676D01*
X235354251Y-34535027D01*
X235354243Y-34535025D01*
X235170620Y-34498500D01*
X235170616Y-34498500D01*
X234983384Y-34498500D01*
X234983379Y-34498500D01*
X234799756Y-34535025D01*
X234799748Y-34535027D01*
X234626771Y-34606676D01*
X234626762Y-34606681D01*
X234471092Y-34710697D01*
X234471088Y-34710700D01*
X234338700Y-34843088D01*
X234338697Y-34843092D01*
X234234681Y-34998762D01*
X234234676Y-34998771D01*
X234163027Y-35171748D01*
X234163025Y-35171756D01*
X234126500Y-35355379D01*
X206875000Y-35355379D01*
X206875000Y-35240174D01*
X206840925Y-35113007D01*
X206808012Y-35056000D01*
X207725000Y-35056000D01*
X207725000Y-34408172D01*
X207724999Y-34408155D01*
X207718598Y-34348627D01*
X207718596Y-34348620D01*
X207668354Y-34213913D01*
X207668350Y-34213906D01*
X207582190Y-34098812D01*
X207582187Y-34098809D01*
X207467093Y-34012649D01*
X207467086Y-34012645D01*
X207332379Y-33962403D01*
X207332372Y-33962401D01*
X207272844Y-33956000D01*
X206523562Y-33956000D01*
X206456523Y-33936315D01*
X206410768Y-33883511D01*
X206400824Y-33814353D01*
X206429849Y-33750797D01*
X206488627Y-33713023D01*
X206499371Y-33710383D01*
X206569731Y-33696387D01*
X206652251Y-33679973D01*
X206825231Y-33608322D01*
X206980908Y-33504302D01*
X207113302Y-33371908D01*
X207217322Y-33216231D01*
X207288973Y-33043251D01*
X207325500Y-32859616D01*
X207325500Y-32672384D01*
X207288973Y-32488749D01*
X207217322Y-32315769D01*
X207217321Y-32315768D01*
X207217318Y-32315762D01*
X207113302Y-32160092D01*
X207113299Y-32160088D01*
X206980911Y-32027700D01*
X206980907Y-32027697D01*
X206825237Y-31923681D01*
X206825228Y-31923676D01*
X206652251Y-31852027D01*
X206652243Y-31852025D01*
X206484937Y-31818746D01*
X206423026Y-31786361D01*
X206388452Y-31725646D01*
X206392191Y-31655876D01*
X206433057Y-31599204D01*
X206489730Y-31574656D01*
X206691127Y-31542757D01*
X206691130Y-31542757D01*
X206893217Y-31477095D01*
X207082554Y-31380622D01*
X207136716Y-31341270D01*
X207136717Y-31341270D01*
X206504408Y-30708962D01*
X206567993Y-30691925D01*
X206682007Y-30626099D01*
X206775099Y-30533007D01*
X206840925Y-30418993D01*
X206857962Y-30355408D01*
X207490270Y-30987717D01*
X207490270Y-30987716D01*
X207529622Y-30933554D01*
X207626095Y-30744217D01*
X207691757Y-30542130D01*
X207691757Y-30542127D01*
X207725000Y-30332246D01*
X207725000Y-30119753D01*
X207696596Y-29940418D01*
X207694810Y-29929147D01*
X223263503Y-29929147D01*
X223263503Y-30014853D01*
X223268368Y-30033007D01*
X223285685Y-30097637D01*
X223285688Y-30097644D01*
X223328533Y-30171855D01*
X223328537Y-30171860D01*
X223328538Y-30171862D01*
X223389141Y-30232465D01*
X223389143Y-30232466D01*
X223389147Y-30232469D01*
X223463358Y-30275314D01*
X223463365Y-30275318D01*
X223546150Y-30297500D01*
X223546152Y-30297500D01*
X223631854Y-30297500D01*
X223631856Y-30297500D01*
X223714641Y-30275318D01*
X223788865Y-30232465D01*
X223849468Y-30171862D01*
X223892321Y-30097638D01*
X223914503Y-30014853D01*
X223914503Y-29929147D01*
X223892321Y-29846362D01*
X223880508Y-29825901D01*
X223849472Y-29772144D01*
X223849466Y-29772136D01*
X223788866Y-29711536D01*
X223788858Y-29711530D01*
X223725840Y-29675147D01*
X229925500Y-29675147D01*
X229925500Y-29760853D01*
X229942930Y-29825901D01*
X229947682Y-29843637D01*
X229947685Y-29843644D01*
X229990530Y-29917855D01*
X229990534Y-29917860D01*
X229990535Y-29917862D01*
X230051138Y-29978465D01*
X230051140Y-29978466D01*
X230051144Y-29978469D01*
X230114161Y-30014851D01*
X230125362Y-30021318D01*
X230208147Y-30043500D01*
X230208149Y-30043500D01*
X230293851Y-30043500D01*
X230293853Y-30043500D01*
X230376638Y-30021318D01*
X230450862Y-29978465D01*
X230511465Y-29917862D01*
X230554318Y-29843638D01*
X230576500Y-29760853D01*
X230576500Y-29675147D01*
X230554318Y-29592362D01*
X230511639Y-29518439D01*
X230511469Y-29518144D01*
X230511463Y-29518136D01*
X230450863Y-29457536D01*
X230450855Y-29457530D01*
X230376644Y-29414685D01*
X230376640Y-29414683D01*
X230376638Y-29414682D01*
X230293853Y-29392500D01*
X230208147Y-29392500D01*
X230125362Y-29414682D01*
X230125355Y-29414685D01*
X230051144Y-29457530D01*
X230051136Y-29457536D01*
X229990536Y-29518136D01*
X229990530Y-29518144D01*
X229947685Y-29592355D01*
X229947682Y-29592362D01*
X229925500Y-29675147D01*
X223725840Y-29675147D01*
X223714647Y-29668685D01*
X223714643Y-29668683D01*
X223714641Y-29668682D01*
X223631856Y-29646500D01*
X223546150Y-29646500D01*
X223463365Y-29668682D01*
X223463358Y-29668685D01*
X223389147Y-29711530D01*
X223389139Y-29711536D01*
X223328539Y-29772136D01*
X223328533Y-29772144D01*
X223285688Y-29846355D01*
X223285685Y-29846362D01*
X223263503Y-29929147D01*
X207694810Y-29929147D01*
X207691757Y-29909872D01*
X207691757Y-29909869D01*
X207626095Y-29707782D01*
X207529624Y-29518449D01*
X207490270Y-29464282D01*
X207490269Y-29464282D01*
X206857962Y-30096590D01*
X206840925Y-30033007D01*
X206775099Y-29918993D01*
X206682007Y-29825901D01*
X206567993Y-29760075D01*
X206504409Y-29743037D01*
X207136716Y-29110728D01*
X207082550Y-29071375D01*
X206893217Y-28974904D01*
X206691129Y-28909242D01*
X206481246Y-28876000D01*
X206268754Y-28876000D01*
X206058872Y-28909242D01*
X206058869Y-28909242D01*
X205856782Y-28974904D01*
X205667439Y-29071380D01*
X205613282Y-29110727D01*
X205613282Y-29110728D01*
X206245591Y-29743037D01*
X206182007Y-29760075D01*
X206067993Y-29825901D01*
X205974901Y-29918993D01*
X205909075Y-30033007D01*
X205892037Y-30096591D01*
X205259728Y-29464282D01*
X205259727Y-29464282D01*
X205220380Y-29518439D01*
X205123904Y-29707782D01*
X205058242Y-29909869D01*
X205058242Y-29909872D01*
X205025000Y-30119753D01*
X203400500Y-30119753D01*
X203400500Y-26675411D01*
X203400972Y-26664604D01*
X203415802Y-26495093D01*
X203415802Y-26495092D01*
X203419555Y-26473807D01*
X203450954Y-26356624D01*
X203462193Y-26314678D01*
X203469579Y-26294385D01*
X203539207Y-26145069D01*
X203549998Y-26126378D01*
X203644502Y-25991411D01*
X203658380Y-25974873D01*
X203774873Y-25858380D01*
X203791411Y-25844502D01*
X203926378Y-25749998D01*
X203945069Y-25739207D01*
X204094385Y-25669579D01*
X204114678Y-25662193D01*
X204273807Y-25619554D01*
X204295088Y-25615802D01*
X204464342Y-25600993D01*
X204475104Y-25600523D01*
X252724588Y-25600500D01*
X252735395Y-25600972D01*
G37*
G04 #@! TD.AperFunction*
G04 #@! TD*
M02*
