G04 #@! TF.GenerationSoftware,KiCad,Pcbnew,9.0.1*
G04 #@! TF.CreationDate,2026-05-01T07:32:56-04:00*
G04 #@! TF.ProjectId,controller,636f6e74-726f-46c6-9c65-722e6b696361,rev?*
G04 #@! TF.SameCoordinates,Original*
G04 #@! TF.FileFunction,Copper,L2,Inr*
G04 #@! TF.FilePolarity,Positive*
%FSLAX46Y46*%
G04 Gerber Fmt 4.6, Leading zero omitted, Abs format (unit mm)*
G04 Created by KiCad (PCBNEW 9.0.1) date 2026-05-01 07:32:56*
%MOMM*%
%LPD*%
G01*
G04 APERTURE LIST*
G04 #@! TA.AperFunction,ComponentPad*
%ADD10R,1.700000X1.700000*%
G04 #@! TD*
G04 #@! TA.AperFunction,ComponentPad*
%ADD11C,1.700000*%
G04 #@! TD*
G04 #@! TA.AperFunction,ViaPad*
%ADD12C,0.450000*%
G04 #@! TD*
G04 APERTURE END LIST*
D10*
G04 #@! TO.N,GND*
G04 #@! TO.C,J5*
X235839000Y-71247000D03*
D11*
G04 #@! TO.N,/SPI2_SCK*
X238379000Y-71247000D03*
G04 #@! TO.N,/SPI2_MOSI*
X240919000Y-71247000D03*
G04 #@! TO.N,/SPI2_MISO*
X243459000Y-71247000D03*
G04 #@! TO.N,/W5500_NSS*
X245999000Y-71247000D03*
G04 #@! TO.N,/MEM_NSS*
X248539000Y-71247000D03*
G04 #@! TD*
D10*
G04 #@! TO.N,GND*
G04 #@! TO.C,J4*
X245237000Y-35449000D03*
D11*
G04 #@! TO.N,/SPI1_MOSI*
X242697000Y-35449000D03*
G04 #@! TO.N,/SPI1_MISO*
X240157000Y-35449000D03*
G04 #@! TO.N,/SPI1_SCK*
X237617000Y-35449000D03*
G04 #@! TO.N,/ADC_NSS*
X235077000Y-35449000D03*
G04 #@! TD*
D10*
G04 #@! TO.N,+3V3D*
G04 #@! TO.C,J8*
X206375000Y-35306000D03*
D11*
G04 #@! TO.N,GND*
X206375000Y-32766000D03*
G04 #@! TO.N,+3V3D*
X206375000Y-30226000D03*
G04 #@! TD*
D10*
G04 #@! TO.N,/TX-*
G04 #@! TO.C,J1*
X206375000Y-58547000D03*
D11*
G04 #@! TO.N,/TX+*
X206375000Y-61087000D03*
G04 #@! TO.N,/RX-*
X206375000Y-63627000D03*
G04 #@! TO.N,/RX+*
X206375000Y-66167000D03*
G04 #@! TO.N,/LINKLED*
X206375000Y-68707000D03*
G04 #@! TO.N,/ACTLED*
X206375000Y-71247000D03*
G04 #@! TD*
D10*
G04 #@! TO.N,/S2+*
G04 #@! TO.C,J6*
X251079000Y-38370000D03*
D11*
G04 #@! TO.N,/S2-*
X251079000Y-40910000D03*
G04 #@! TO.N,GND*
X251079000Y-43450000D03*
G04 #@! TO.N,/S1-*
X251079000Y-45990000D03*
G04 #@! TO.N,/S1+*
X251079000Y-48530000D03*
G04 #@! TO.N,GND*
X251079000Y-51070000D03*
G04 #@! TO.N,/SDI*
X251079000Y-53610000D03*
G04 #@! TO.N,GND*
X251079000Y-56150000D03*
G04 #@! TD*
D12*
G04 #@! TO.N,GND*
X219964000Y-50927000D03*
X215011000Y-66779700D03*
X241681000Y-59563000D03*
X223393000Y-48022000D03*
X221869000Y-72517000D03*
X221234000Y-67691000D03*
X219964000Y-66040000D03*
X220091000Y-62357000D03*
X233934000Y-68326000D03*
X225933000Y-65532000D03*
X215265000Y-53340000D03*
X229743000Y-67818000D03*
X218948000Y-46355000D03*
X224917000Y-72517000D03*
X223135000Y-67818000D03*
X234569000Y-65151000D03*
X223901000Y-38227000D03*
X237617000Y-67564000D03*
X241808000Y-48022000D03*
X219329000Y-41529000D03*
X246634000Y-61722000D03*
X223589003Y-29972000D03*
X221361000Y-38227000D03*
X236601000Y-59563000D03*
X214884000Y-63373000D03*
G04 #@! TO.N,+3V3D*
X239268000Y-68326000D03*
X226441000Y-38100000D03*
X213233000Y-70739000D03*
X218694000Y-47260000D03*
X237871000Y-47895000D03*
X247650000Y-68961000D03*
X220345000Y-41656000D03*
X244856000Y-52467000D03*
X231013000Y-66040000D03*
X250571000Y-68961000D03*
X233172000Y-37862000D03*
X215265000Y-38481000D03*
X222758000Y-29972000D03*
X222123000Y-59436000D03*
G04 #@! TO.N,+3V3A*
X224155000Y-70104000D03*
X217297000Y-68326000D03*
X217363000Y-70612000D03*
X217170000Y-65024000D03*
X220091000Y-70612000D03*
X217503300Y-63293700D03*
G04 #@! TO.N,/UART_TX*
X219329000Y-39624000D03*
X221361000Y-39624000D03*
G04 #@! TO.N,/SPI2_MISO*
X224282000Y-57531000D03*
X225933000Y-54229000D03*
X224314000Y-53721000D03*
G04 #@! TO.N,/SPI2_MOSI*
X225114000Y-56261000D03*
X228473000Y-62103000D03*
X236982000Y-62611000D03*
X236982000Y-64389000D03*
G04 #@! TO.N,/BOOT0*
X230251000Y-29718000D03*
X230632000Y-42545000D03*
G04 #@! TO.N,/SWDIO*
X231648000Y-38227000D03*
X230505000Y-43688000D03*
G04 #@! TO.N,/W5500_RST*
X225933000Y-58166000D03*
X225933000Y-53229000D03*
G04 #@! TO.N,/ADC_NSS*
X228346000Y-42180000D03*
X228346000Y-40513000D03*
X235077000Y-40498997D03*
X235077000Y-39370000D03*
G04 #@! TO.N,/W5500_INTn*
X226695000Y-53229000D03*
X226695000Y-58166000D03*
G04 #@! TO.N,/W5500_NSS*
X230886000Y-59817000D03*
X230886000Y-57150000D03*
G04 #@! TO.N,/MEM_NSS*
X248031000Y-66421000D03*
X249301000Y-66421000D03*
G04 #@! TO.N,/SPI1_SCK*
X232664000Y-41798997D03*
G04 #@! TO.N,/SPI1_MISO*
X236855000Y-42448998D03*
G04 #@! TO.N,/SPI1_MOSI*
X234569000Y-43069000D03*
X237490000Y-43098997D03*
G04 #@! TD*
G04 #@! TA.AperFunction,Conductor*
G04 #@! TO.N,GND*
G36*
X252733440Y-25600801D02*
G01*
X252908833Y-25616145D01*
X252922387Y-25618535D01*
X253089120Y-25663211D01*
X253102051Y-25667918D01*
X253258486Y-25740865D01*
X253270411Y-25747750D01*
X253411800Y-25846751D01*
X253422349Y-25855603D01*
X253544396Y-25977650D01*
X253553248Y-25988199D01*
X253652249Y-26129588D01*
X253659134Y-26141513D01*
X253732079Y-26297943D01*
X253736789Y-26310883D01*
X253781463Y-26477608D01*
X253783854Y-26491169D01*
X253799199Y-26666558D01*
X253799500Y-26673444D01*
X253799500Y-74926555D01*
X253799199Y-74933441D01*
X253783854Y-75108830D01*
X253781463Y-75122391D01*
X253736789Y-75289116D01*
X253732079Y-75302056D01*
X253659134Y-75458486D01*
X253652249Y-75470411D01*
X253553248Y-75611800D01*
X253544396Y-75622349D01*
X253422349Y-75744396D01*
X253411800Y-75753248D01*
X253270411Y-75852249D01*
X253258486Y-75859134D01*
X253102056Y-75932079D01*
X253089116Y-75936789D01*
X252922391Y-75981463D01*
X252908830Y-75983854D01*
X252747471Y-75997971D01*
X252733439Y-75999199D01*
X252726555Y-75999500D01*
X204473445Y-75999500D01*
X204466560Y-75999199D01*
X204291170Y-75983854D01*
X204277608Y-75981463D01*
X204110883Y-75936789D01*
X204097943Y-75932079D01*
X203941513Y-75859134D01*
X203929588Y-75852249D01*
X203788199Y-75753248D01*
X203777650Y-75744396D01*
X203655603Y-75622349D01*
X203646751Y-75611800D01*
X203547750Y-75470411D01*
X203540865Y-75458486D01*
X203467920Y-75302056D01*
X203463210Y-75289116D01*
X203418536Y-75122391D01*
X203416145Y-75108829D01*
X203400801Y-74933440D01*
X203400500Y-74926555D01*
X203400500Y-71153384D01*
X205424500Y-71153384D01*
X205424500Y-71340615D01*
X205461026Y-71524251D01*
X205461027Y-71524253D01*
X205532675Y-71697225D01*
X205532678Y-71697231D01*
X205636696Y-71852906D01*
X205636702Y-71852913D01*
X205769086Y-71985297D01*
X205769092Y-71985302D01*
X205924769Y-72089322D01*
X205924774Y-72089324D01*
X206097746Y-72160972D01*
X206097748Y-72160973D01*
X206281384Y-72197500D01*
X206468616Y-72197500D01*
X206652251Y-72160973D01*
X206652253Y-72160972D01*
X206691211Y-72144835D01*
X206825231Y-72089322D01*
X206980908Y-71985302D01*
X207113302Y-71852908D01*
X207217322Y-71697231D01*
X207288973Y-71524251D01*
X207325500Y-71340616D01*
X207325500Y-71153384D01*
X207294884Y-70999465D01*
X207288973Y-70969748D01*
X207288972Y-70969746D01*
X207217324Y-70796774D01*
X207217321Y-70796768D01*
X207206835Y-70781075D01*
X207150086Y-70696144D01*
X212907500Y-70696144D01*
X212907500Y-70781855D01*
X212929681Y-70864635D01*
X212929682Y-70864639D01*
X212972536Y-70938864D01*
X213033135Y-70999463D01*
X213033137Y-70999464D01*
X213033138Y-70999465D01*
X213107362Y-71042318D01*
X213190147Y-71064500D01*
X213190149Y-71064500D01*
X213275851Y-71064500D01*
X213275853Y-71064500D01*
X213358638Y-71042318D01*
X213432862Y-70999465D01*
X213493465Y-70938862D01*
X213536318Y-70864638D01*
X213558500Y-70781853D01*
X213558500Y-70696147D01*
X213536318Y-70613362D01*
X213510789Y-70569144D01*
X217037500Y-70569144D01*
X217037500Y-70654855D01*
X217059681Y-70737635D01*
X217059682Y-70737639D01*
X217102536Y-70811864D01*
X217163135Y-70872463D01*
X217163137Y-70872464D01*
X217163138Y-70872465D01*
X217237362Y-70915318D01*
X217320147Y-70937500D01*
X217320149Y-70937500D01*
X217405851Y-70937500D01*
X217405853Y-70937500D01*
X217488638Y-70915318D01*
X217562862Y-70872465D01*
X217623465Y-70811862D01*
X217666318Y-70737638D01*
X217688500Y-70654853D01*
X217688500Y-70569147D01*
X217688499Y-70569144D01*
X219765500Y-70569144D01*
X219765500Y-70654855D01*
X219787681Y-70737635D01*
X219787682Y-70737639D01*
X219830536Y-70811864D01*
X219891135Y-70872463D01*
X219891137Y-70872464D01*
X219891138Y-70872465D01*
X219965362Y-70915318D01*
X220048147Y-70937500D01*
X220048149Y-70937500D01*
X220133851Y-70937500D01*
X220133853Y-70937500D01*
X220216638Y-70915318D01*
X220290862Y-70872465D01*
X220351465Y-70811862D01*
X220394318Y-70737638D01*
X220416500Y-70654853D01*
X220416500Y-70569147D01*
X220394318Y-70486362D01*
X220351465Y-70412138D01*
X220351464Y-70412137D01*
X220351463Y-70412135D01*
X220290864Y-70351536D01*
X220216639Y-70308682D01*
X220216635Y-70308681D01*
X220133855Y-70286500D01*
X220133853Y-70286500D01*
X220048147Y-70286500D01*
X220048144Y-70286500D01*
X219965364Y-70308681D01*
X219965360Y-70308682D01*
X219891135Y-70351536D01*
X219830536Y-70412135D01*
X219787682Y-70486360D01*
X219787681Y-70486364D01*
X219765500Y-70569144D01*
X217688499Y-70569144D01*
X217666318Y-70486362D01*
X217623465Y-70412138D01*
X217623464Y-70412137D01*
X217623463Y-70412135D01*
X217562864Y-70351536D01*
X217488639Y-70308682D01*
X217488635Y-70308681D01*
X217405855Y-70286500D01*
X217405853Y-70286500D01*
X217320147Y-70286500D01*
X217320144Y-70286500D01*
X217237364Y-70308681D01*
X217237360Y-70308682D01*
X217163135Y-70351536D01*
X217102536Y-70412135D01*
X217059682Y-70486360D01*
X217059681Y-70486364D01*
X217037500Y-70569144D01*
X213510789Y-70569144D01*
X213493465Y-70539138D01*
X213493464Y-70539137D01*
X213493463Y-70539135D01*
X213432864Y-70478536D01*
X213358639Y-70435682D01*
X213358635Y-70435681D01*
X213275855Y-70413500D01*
X213275853Y-70413500D01*
X213190147Y-70413500D01*
X213190144Y-70413500D01*
X213107364Y-70435681D01*
X213107360Y-70435682D01*
X213033135Y-70478536D01*
X212972536Y-70539135D01*
X212929682Y-70613360D01*
X212929681Y-70613364D01*
X212907500Y-70696144D01*
X207150086Y-70696144D01*
X207113302Y-70641092D01*
X207113297Y-70641086D01*
X206980913Y-70508702D01*
X206980906Y-70508696D01*
X206825231Y-70404678D01*
X206825225Y-70404675D01*
X206652253Y-70333027D01*
X206652251Y-70333026D01*
X206468616Y-70296500D01*
X206281384Y-70296500D01*
X206097748Y-70333026D01*
X206097746Y-70333027D01*
X205924774Y-70404675D01*
X205924768Y-70404678D01*
X205769093Y-70508696D01*
X205769086Y-70508702D01*
X205636702Y-70641086D01*
X205636696Y-70641093D01*
X205532678Y-70796768D01*
X205532675Y-70796774D01*
X205461027Y-70969746D01*
X205461026Y-70969748D01*
X205424500Y-71153384D01*
X203400500Y-71153384D01*
X203400500Y-70061144D01*
X223829500Y-70061144D01*
X223829500Y-70146855D01*
X223851681Y-70229635D01*
X223851682Y-70229639D01*
X223894536Y-70303864D01*
X223955135Y-70364463D01*
X223955137Y-70364464D01*
X223955138Y-70364465D01*
X224029362Y-70407318D01*
X224112147Y-70429500D01*
X224112149Y-70429500D01*
X224197851Y-70429500D01*
X224197853Y-70429500D01*
X224280638Y-70407318D01*
X224354862Y-70364465D01*
X224370163Y-70349164D01*
X234489000Y-70349164D01*
X234489000Y-70997000D01*
X235405988Y-70997000D01*
X235373075Y-71054007D01*
X235339000Y-71181174D01*
X235339000Y-71312826D01*
X235373075Y-71439993D01*
X235405988Y-71497000D01*
X234489000Y-71497000D01*
X234489000Y-72144835D01*
X234495401Y-72204369D01*
X234495403Y-72204381D01*
X234545643Y-72339083D01*
X234545650Y-72339094D01*
X234631810Y-72454189D01*
X234746905Y-72540349D01*
X234746916Y-72540356D01*
X234881618Y-72590596D01*
X234881630Y-72590598D01*
X234941165Y-72597000D01*
X235589000Y-72597000D01*
X235589000Y-71680012D01*
X235646007Y-71712925D01*
X235773174Y-71747000D01*
X235904826Y-71747000D01*
X236031993Y-71712925D01*
X236089000Y-71680012D01*
X236089000Y-72597000D01*
X236736835Y-72597000D01*
X236796369Y-72590598D01*
X236796381Y-72590596D01*
X236931083Y-72540356D01*
X236931094Y-72540349D01*
X237046189Y-72454189D01*
X237132349Y-72339094D01*
X237132356Y-72339083D01*
X237182596Y-72204381D01*
X237182598Y-72204369D01*
X237189000Y-72144835D01*
X237189000Y-71497000D01*
X236272012Y-71497000D01*
X236304925Y-71439993D01*
X236339000Y-71312826D01*
X236339000Y-71181174D01*
X236331554Y-71153384D01*
X237428500Y-71153384D01*
X237428500Y-71340615D01*
X237465026Y-71524251D01*
X237465027Y-71524253D01*
X237536675Y-71697225D01*
X237536678Y-71697231D01*
X237640696Y-71852906D01*
X237640702Y-71852913D01*
X237773086Y-71985297D01*
X237773092Y-71985302D01*
X237928769Y-72089322D01*
X237928774Y-72089324D01*
X238101746Y-72160972D01*
X238101748Y-72160973D01*
X238285384Y-72197500D01*
X238472616Y-72197500D01*
X238656251Y-72160973D01*
X238656253Y-72160972D01*
X238695211Y-72144835D01*
X238829231Y-72089322D01*
X238984908Y-71985302D01*
X239117302Y-71852908D01*
X239221322Y-71697231D01*
X239292973Y-71524251D01*
X239329500Y-71340616D01*
X239329500Y-71153384D01*
X239968500Y-71153384D01*
X239968500Y-71340615D01*
X240005026Y-71524251D01*
X240005027Y-71524253D01*
X240076675Y-71697225D01*
X240076678Y-71697231D01*
X240180696Y-71852906D01*
X240180702Y-71852913D01*
X240313086Y-71985297D01*
X240313092Y-71985302D01*
X240468769Y-72089322D01*
X240468774Y-72089324D01*
X240641746Y-72160972D01*
X240641748Y-72160973D01*
X240825384Y-72197500D01*
X241012616Y-72197500D01*
X241196251Y-72160973D01*
X241196253Y-72160972D01*
X241235211Y-72144835D01*
X241369231Y-72089322D01*
X241524908Y-71985302D01*
X241657302Y-71852908D01*
X241761322Y-71697231D01*
X241832973Y-71524251D01*
X241869500Y-71340616D01*
X241869500Y-71153384D01*
X242508500Y-71153384D01*
X242508500Y-71340615D01*
X242545026Y-71524251D01*
X242545027Y-71524253D01*
X242616675Y-71697225D01*
X242616678Y-71697231D01*
X242720696Y-71852906D01*
X242720702Y-71852913D01*
X242853086Y-71985297D01*
X242853092Y-71985302D01*
X243008769Y-72089322D01*
X243008774Y-72089324D01*
X243181746Y-72160972D01*
X243181748Y-72160973D01*
X243365384Y-72197500D01*
X243552616Y-72197500D01*
X243736251Y-72160973D01*
X243736253Y-72160972D01*
X243775211Y-72144835D01*
X243909231Y-72089322D01*
X244064908Y-71985302D01*
X244197302Y-71852908D01*
X244301322Y-71697231D01*
X244372973Y-71524251D01*
X244409500Y-71340616D01*
X244409500Y-71153384D01*
X245048500Y-71153384D01*
X245048500Y-71340615D01*
X245085026Y-71524251D01*
X245085027Y-71524253D01*
X245156675Y-71697225D01*
X245156678Y-71697231D01*
X245260696Y-71852906D01*
X245260702Y-71852913D01*
X245393086Y-71985297D01*
X245393092Y-71985302D01*
X245548769Y-72089322D01*
X245548774Y-72089324D01*
X245721746Y-72160972D01*
X245721748Y-72160973D01*
X245905384Y-72197500D01*
X246092616Y-72197500D01*
X246276251Y-72160973D01*
X246276253Y-72160972D01*
X246315211Y-72144835D01*
X246449231Y-72089322D01*
X246604908Y-71985302D01*
X246737302Y-71852908D01*
X246841322Y-71697231D01*
X246912973Y-71524251D01*
X246949500Y-71340616D01*
X246949500Y-71153384D01*
X247588500Y-71153384D01*
X247588500Y-71340615D01*
X247625026Y-71524251D01*
X247625027Y-71524253D01*
X247696675Y-71697225D01*
X247696678Y-71697231D01*
X247800696Y-71852906D01*
X247800702Y-71852913D01*
X247933086Y-71985297D01*
X247933092Y-71985302D01*
X248088769Y-72089322D01*
X248088774Y-72089324D01*
X248261746Y-72160972D01*
X248261748Y-72160973D01*
X248445384Y-72197500D01*
X248632616Y-72197500D01*
X248816251Y-72160973D01*
X248816253Y-72160972D01*
X248855211Y-72144835D01*
X248989231Y-72089322D01*
X249144908Y-71985302D01*
X249277302Y-71852908D01*
X249381322Y-71697231D01*
X249452973Y-71524251D01*
X249489500Y-71340616D01*
X249489500Y-71153384D01*
X249458884Y-70999465D01*
X249452973Y-70969748D01*
X249452972Y-70969746D01*
X249381324Y-70796774D01*
X249381321Y-70796768D01*
X249370835Y-70781075D01*
X249277302Y-70641092D01*
X249277297Y-70641086D01*
X249144913Y-70508702D01*
X249144906Y-70508696D01*
X248989231Y-70404678D01*
X248989225Y-70404675D01*
X248816253Y-70333027D01*
X248816251Y-70333026D01*
X248632616Y-70296500D01*
X248445384Y-70296500D01*
X248261748Y-70333026D01*
X248261746Y-70333027D01*
X248088774Y-70404675D01*
X248088768Y-70404678D01*
X247933093Y-70508696D01*
X247933086Y-70508702D01*
X247800702Y-70641086D01*
X247800696Y-70641093D01*
X247696678Y-70796768D01*
X247696675Y-70796774D01*
X247625027Y-70969746D01*
X247625026Y-70969748D01*
X247588500Y-71153384D01*
X246949500Y-71153384D01*
X246918884Y-70999465D01*
X246912973Y-70969748D01*
X246912972Y-70969746D01*
X246841324Y-70796774D01*
X246841321Y-70796768D01*
X246830835Y-70781075D01*
X246737302Y-70641092D01*
X246737297Y-70641086D01*
X246604913Y-70508702D01*
X246604906Y-70508696D01*
X246449231Y-70404678D01*
X246449225Y-70404675D01*
X246276253Y-70333027D01*
X246276251Y-70333026D01*
X246092616Y-70296500D01*
X245905384Y-70296500D01*
X245721748Y-70333026D01*
X245721746Y-70333027D01*
X245548774Y-70404675D01*
X245548768Y-70404678D01*
X245393093Y-70508696D01*
X245393086Y-70508702D01*
X245260702Y-70641086D01*
X245260696Y-70641093D01*
X245156678Y-70796768D01*
X245156675Y-70796774D01*
X245085027Y-70969746D01*
X245085026Y-70969748D01*
X245048500Y-71153384D01*
X244409500Y-71153384D01*
X244378884Y-70999465D01*
X244372973Y-70969748D01*
X244372972Y-70969746D01*
X244301324Y-70796774D01*
X244301321Y-70796768D01*
X244290835Y-70781075D01*
X244197302Y-70641092D01*
X244197297Y-70641086D01*
X244064913Y-70508702D01*
X244064906Y-70508696D01*
X243909231Y-70404678D01*
X243909225Y-70404675D01*
X243736253Y-70333027D01*
X243736251Y-70333026D01*
X243552616Y-70296500D01*
X243365384Y-70296500D01*
X243181748Y-70333026D01*
X243181746Y-70333027D01*
X243008774Y-70404675D01*
X243008768Y-70404678D01*
X242853093Y-70508696D01*
X242853086Y-70508702D01*
X242720702Y-70641086D01*
X242720696Y-70641093D01*
X242616678Y-70796768D01*
X242616675Y-70796774D01*
X242545027Y-70969746D01*
X242545026Y-70969748D01*
X242508500Y-71153384D01*
X241869500Y-71153384D01*
X241838884Y-70999465D01*
X241832973Y-70969748D01*
X241832972Y-70969746D01*
X241761324Y-70796774D01*
X241761321Y-70796768D01*
X241750835Y-70781075D01*
X241657302Y-70641092D01*
X241657297Y-70641086D01*
X241524913Y-70508702D01*
X241524906Y-70508696D01*
X241369231Y-70404678D01*
X241369225Y-70404675D01*
X241196253Y-70333027D01*
X241196251Y-70333026D01*
X241012616Y-70296500D01*
X240825384Y-70296500D01*
X240641748Y-70333026D01*
X240641746Y-70333027D01*
X240468774Y-70404675D01*
X240468768Y-70404678D01*
X240313093Y-70508696D01*
X240313086Y-70508702D01*
X240180702Y-70641086D01*
X240180696Y-70641093D01*
X240076678Y-70796768D01*
X240076675Y-70796774D01*
X240005027Y-70969746D01*
X240005026Y-70969748D01*
X239968500Y-71153384D01*
X239329500Y-71153384D01*
X239298884Y-70999465D01*
X239292973Y-70969748D01*
X239292972Y-70969746D01*
X239221324Y-70796774D01*
X239221321Y-70796768D01*
X239210835Y-70781075D01*
X239117302Y-70641092D01*
X239117297Y-70641086D01*
X238984913Y-70508702D01*
X238984906Y-70508696D01*
X238829231Y-70404678D01*
X238829225Y-70404675D01*
X238656253Y-70333027D01*
X238656251Y-70333026D01*
X238472616Y-70296500D01*
X238285384Y-70296500D01*
X238101748Y-70333026D01*
X238101746Y-70333027D01*
X237928774Y-70404675D01*
X237928768Y-70404678D01*
X237773093Y-70508696D01*
X237773086Y-70508702D01*
X237640702Y-70641086D01*
X237640696Y-70641093D01*
X237536678Y-70796768D01*
X237536675Y-70796774D01*
X237465027Y-70969746D01*
X237465026Y-70969748D01*
X237428500Y-71153384D01*
X236331554Y-71153384D01*
X236304925Y-71054007D01*
X236272012Y-70997000D01*
X237189000Y-70997000D01*
X237189000Y-70349164D01*
X237182598Y-70289630D01*
X237182596Y-70289618D01*
X237132356Y-70154916D01*
X237132349Y-70154905D01*
X237046189Y-70039810D01*
X236931094Y-69953650D01*
X236931083Y-69953643D01*
X236796381Y-69903403D01*
X236796369Y-69903401D01*
X236736835Y-69897000D01*
X236089000Y-69897000D01*
X236089000Y-70813988D01*
X236031993Y-70781075D01*
X235904826Y-70747000D01*
X235773174Y-70747000D01*
X235646007Y-70781075D01*
X235589000Y-70813988D01*
X235589000Y-69897000D01*
X234941165Y-69897000D01*
X234881630Y-69903401D01*
X234881618Y-69903403D01*
X234746916Y-69953643D01*
X234746905Y-69953650D01*
X234631810Y-70039810D01*
X234545650Y-70154905D01*
X234545643Y-70154916D01*
X234495403Y-70289618D01*
X234495401Y-70289630D01*
X234489000Y-70349164D01*
X224370163Y-70349164D01*
X224415465Y-70303862D01*
X224458318Y-70229638D01*
X224480500Y-70146853D01*
X224480500Y-70061147D01*
X224458318Y-69978362D01*
X224415465Y-69904138D01*
X224415464Y-69904137D01*
X224415463Y-69904135D01*
X224354864Y-69843536D01*
X224280639Y-69800682D01*
X224280635Y-69800681D01*
X224197855Y-69778500D01*
X224197853Y-69778500D01*
X224112147Y-69778500D01*
X224112144Y-69778500D01*
X224029364Y-69800681D01*
X224029360Y-69800682D01*
X223955135Y-69843536D01*
X223894536Y-69904135D01*
X223851682Y-69978360D01*
X223851681Y-69978364D01*
X223829500Y-70061144D01*
X203400500Y-70061144D01*
X203400500Y-68613384D01*
X205424500Y-68613384D01*
X205424500Y-68800615D01*
X205461026Y-68984251D01*
X205461027Y-68984253D01*
X205532675Y-69157225D01*
X205532678Y-69157231D01*
X205636696Y-69312906D01*
X205636702Y-69312913D01*
X205769086Y-69445297D01*
X205769092Y-69445302D01*
X205924769Y-69549322D01*
X205924774Y-69549324D01*
X206097746Y-69620972D01*
X206097748Y-69620973D01*
X206281384Y-69657500D01*
X206468616Y-69657500D01*
X206652251Y-69620973D01*
X206652253Y-69620972D01*
X206825231Y-69549322D01*
X206980908Y-69445302D01*
X207113302Y-69312908D01*
X207217322Y-69157231D01*
X207288973Y-68984251D01*
X207302122Y-68918144D01*
X247324500Y-68918144D01*
X247324500Y-69003855D01*
X247346681Y-69086635D01*
X247346682Y-69086639D01*
X247389536Y-69160864D01*
X247450135Y-69221463D01*
X247450137Y-69221464D01*
X247450138Y-69221465D01*
X247524362Y-69264318D01*
X247607147Y-69286500D01*
X247607149Y-69286500D01*
X247692851Y-69286500D01*
X247692853Y-69286500D01*
X247775638Y-69264318D01*
X247849862Y-69221465D01*
X247910465Y-69160862D01*
X247953318Y-69086638D01*
X247975500Y-69003853D01*
X247975500Y-68918147D01*
X247975499Y-68918144D01*
X250245500Y-68918144D01*
X250245500Y-69003855D01*
X250267681Y-69086635D01*
X250267682Y-69086639D01*
X250310536Y-69160864D01*
X250371135Y-69221463D01*
X250371137Y-69221464D01*
X250371138Y-69221465D01*
X250445362Y-69264318D01*
X250528147Y-69286500D01*
X250528149Y-69286500D01*
X250613851Y-69286500D01*
X250613853Y-69286500D01*
X250696638Y-69264318D01*
X250770862Y-69221465D01*
X250831465Y-69160862D01*
X250874318Y-69086638D01*
X250896500Y-69003853D01*
X250896500Y-68918147D01*
X250874318Y-68835362D01*
X250831465Y-68761138D01*
X250831464Y-68761137D01*
X250831463Y-68761135D01*
X250770864Y-68700536D01*
X250696639Y-68657682D01*
X250696635Y-68657681D01*
X250613855Y-68635500D01*
X250613853Y-68635500D01*
X250528147Y-68635500D01*
X250528144Y-68635500D01*
X250445364Y-68657681D01*
X250445360Y-68657682D01*
X250371135Y-68700536D01*
X250310536Y-68761135D01*
X250267682Y-68835360D01*
X250267681Y-68835364D01*
X250245500Y-68918144D01*
X247975499Y-68918144D01*
X247953318Y-68835362D01*
X247910465Y-68761138D01*
X247910464Y-68761137D01*
X247910463Y-68761135D01*
X247849864Y-68700536D01*
X247775639Y-68657682D01*
X247775635Y-68657681D01*
X247692855Y-68635500D01*
X247692853Y-68635500D01*
X247607147Y-68635500D01*
X247607144Y-68635500D01*
X247524364Y-68657681D01*
X247524360Y-68657682D01*
X247450135Y-68700536D01*
X247389536Y-68761135D01*
X247346682Y-68835360D01*
X247346681Y-68835364D01*
X247324500Y-68918144D01*
X207302122Y-68918144D01*
X207325500Y-68800616D01*
X207325500Y-68613384D01*
X207293327Y-68451638D01*
X207288973Y-68429748D01*
X207288972Y-68429746D01*
X207238627Y-68308204D01*
X207228247Y-68283144D01*
X216971500Y-68283144D01*
X216971500Y-68368855D01*
X216993681Y-68451635D01*
X216993682Y-68451639D01*
X217036536Y-68525864D01*
X217097135Y-68586463D01*
X217097137Y-68586464D01*
X217097138Y-68586465D01*
X217171362Y-68629318D01*
X217254147Y-68651500D01*
X217254149Y-68651500D01*
X217339851Y-68651500D01*
X217339853Y-68651500D01*
X217422638Y-68629318D01*
X217496862Y-68586465D01*
X217557465Y-68525862D01*
X217600318Y-68451638D01*
X217622500Y-68368853D01*
X217622500Y-68283147D01*
X217622499Y-68283144D01*
X238942500Y-68283144D01*
X238942500Y-68368855D01*
X238964681Y-68451635D01*
X238964682Y-68451639D01*
X239007536Y-68525864D01*
X239068135Y-68586463D01*
X239068137Y-68586464D01*
X239068138Y-68586465D01*
X239142362Y-68629318D01*
X239225147Y-68651500D01*
X239225149Y-68651500D01*
X239310851Y-68651500D01*
X239310853Y-68651500D01*
X239393638Y-68629318D01*
X239467862Y-68586465D01*
X239528465Y-68525862D01*
X239571318Y-68451638D01*
X239593500Y-68368853D01*
X239593500Y-68283147D01*
X239571318Y-68200362D01*
X239528465Y-68126138D01*
X239528464Y-68126137D01*
X239528463Y-68126135D01*
X239467864Y-68065536D01*
X239393639Y-68022682D01*
X239393635Y-68022681D01*
X239310855Y-68000500D01*
X239310853Y-68000500D01*
X239225147Y-68000500D01*
X239225144Y-68000500D01*
X239142364Y-68022681D01*
X239142360Y-68022682D01*
X239068135Y-68065536D01*
X239007536Y-68126135D01*
X238964682Y-68200360D01*
X238964681Y-68200364D01*
X238942500Y-68283144D01*
X217622499Y-68283144D01*
X217600318Y-68200362D01*
X217557465Y-68126138D01*
X217557464Y-68126137D01*
X217557463Y-68126135D01*
X217496864Y-68065536D01*
X217422639Y-68022682D01*
X217422635Y-68022681D01*
X217339855Y-68000500D01*
X217339853Y-68000500D01*
X217254147Y-68000500D01*
X217254144Y-68000500D01*
X217171364Y-68022681D01*
X217171360Y-68022682D01*
X217097135Y-68065536D01*
X217036536Y-68126135D01*
X216993682Y-68200360D01*
X216993681Y-68200364D01*
X216971500Y-68283144D01*
X207228247Y-68283144D01*
X207217322Y-68256769D01*
X207113302Y-68101092D01*
X207113297Y-68101086D01*
X206980913Y-67968702D01*
X206980906Y-67968696D01*
X206825231Y-67864678D01*
X206825225Y-67864675D01*
X206652253Y-67793027D01*
X206652251Y-67793026D01*
X206468616Y-67756500D01*
X206281384Y-67756500D01*
X206097748Y-67793026D01*
X206097746Y-67793027D01*
X205924774Y-67864675D01*
X205924768Y-67864678D01*
X205769093Y-67968696D01*
X205769086Y-67968702D01*
X205636702Y-68101086D01*
X205636696Y-68101093D01*
X205532678Y-68256768D01*
X205532675Y-68256774D01*
X205461027Y-68429746D01*
X205461026Y-68429748D01*
X205424500Y-68613384D01*
X203400500Y-68613384D01*
X203400500Y-66073384D01*
X205424500Y-66073384D01*
X205424500Y-66260615D01*
X205461026Y-66444251D01*
X205461027Y-66444253D01*
X205532675Y-66617225D01*
X205532678Y-66617231D01*
X205636696Y-66772906D01*
X205636702Y-66772913D01*
X205769086Y-66905297D01*
X205769092Y-66905302D01*
X205924769Y-67009322D01*
X205924774Y-67009324D01*
X206097746Y-67080972D01*
X206097748Y-67080973D01*
X206281384Y-67117500D01*
X206468616Y-67117500D01*
X206652251Y-67080973D01*
X206652253Y-67080972D01*
X206825231Y-67009322D01*
X206980908Y-66905302D01*
X207113302Y-66772908D01*
X207217322Y-66617231D01*
X207288973Y-66444251D01*
X207302122Y-66378144D01*
X247705500Y-66378144D01*
X247705500Y-66463855D01*
X247727681Y-66546635D01*
X247727682Y-66546639D01*
X247770536Y-66620864D01*
X247831135Y-66681463D01*
X247831137Y-66681464D01*
X247831138Y-66681465D01*
X247905362Y-66724318D01*
X247988147Y-66746500D01*
X247988149Y-66746500D01*
X248073851Y-66746500D01*
X248073853Y-66746500D01*
X248156638Y-66724318D01*
X248230862Y-66681465D01*
X248291465Y-66620862D01*
X248334318Y-66546638D01*
X248356500Y-66463853D01*
X248356500Y-66378147D01*
X248356499Y-66378144D01*
X248975500Y-66378144D01*
X248975500Y-66463855D01*
X248997681Y-66546635D01*
X248997682Y-66546639D01*
X249040536Y-66620864D01*
X249101135Y-66681463D01*
X249101137Y-66681464D01*
X249101138Y-66681465D01*
X249175362Y-66724318D01*
X249258147Y-66746500D01*
X249258149Y-66746500D01*
X249343851Y-66746500D01*
X249343853Y-66746500D01*
X249426638Y-66724318D01*
X249500862Y-66681465D01*
X249561465Y-66620862D01*
X249604318Y-66546638D01*
X249626500Y-66463853D01*
X249626500Y-66378147D01*
X249604318Y-66295362D01*
X249561465Y-66221138D01*
X249561464Y-66221137D01*
X249561463Y-66221135D01*
X249500864Y-66160536D01*
X249426639Y-66117682D01*
X249426635Y-66117681D01*
X249343855Y-66095500D01*
X249343853Y-66095500D01*
X249258147Y-66095500D01*
X249258144Y-66095500D01*
X249175364Y-66117681D01*
X249175360Y-66117682D01*
X249101135Y-66160536D01*
X249040536Y-66221135D01*
X248997682Y-66295360D01*
X248997681Y-66295364D01*
X248975500Y-66378144D01*
X248356499Y-66378144D01*
X248334318Y-66295362D01*
X248291465Y-66221138D01*
X248291464Y-66221137D01*
X248291463Y-66221135D01*
X248230864Y-66160536D01*
X248156639Y-66117682D01*
X248156635Y-66117681D01*
X248073855Y-66095500D01*
X248073853Y-66095500D01*
X247988147Y-66095500D01*
X247988144Y-66095500D01*
X247905364Y-66117681D01*
X247905360Y-66117682D01*
X247831135Y-66160536D01*
X247770536Y-66221135D01*
X247727682Y-66295360D01*
X247727681Y-66295364D01*
X247705500Y-66378144D01*
X207302122Y-66378144D01*
X207325500Y-66260616D01*
X207325500Y-66073384D01*
X207310335Y-65997144D01*
X230687500Y-65997144D01*
X230687500Y-66082855D01*
X230709681Y-66165635D01*
X230709682Y-66165639D01*
X230752536Y-66239864D01*
X230813135Y-66300463D01*
X230813137Y-66300464D01*
X230813138Y-66300465D01*
X230887362Y-66343318D01*
X230970147Y-66365500D01*
X230970149Y-66365500D01*
X231055851Y-66365500D01*
X231055853Y-66365500D01*
X231138638Y-66343318D01*
X231212862Y-66300465D01*
X231273465Y-66239862D01*
X231316318Y-66165638D01*
X231338500Y-66082853D01*
X231338500Y-65997147D01*
X231316318Y-65914362D01*
X231273465Y-65840138D01*
X231273464Y-65840137D01*
X231273463Y-65840135D01*
X231212864Y-65779536D01*
X231138639Y-65736682D01*
X231138635Y-65736681D01*
X231055855Y-65714500D01*
X231055853Y-65714500D01*
X230970147Y-65714500D01*
X230970144Y-65714500D01*
X230887364Y-65736681D01*
X230887360Y-65736682D01*
X230813135Y-65779536D01*
X230752536Y-65840135D01*
X230709682Y-65914360D01*
X230709681Y-65914364D01*
X230687500Y-65997144D01*
X207310335Y-65997144D01*
X207293869Y-65914362D01*
X207288973Y-65889747D01*
X207288972Y-65889746D01*
X207217324Y-65716774D01*
X207217321Y-65716768D01*
X207113303Y-65561093D01*
X207113297Y-65561086D01*
X206980913Y-65428702D01*
X206980906Y-65428696D01*
X206825231Y-65324678D01*
X206825225Y-65324675D01*
X206652253Y-65253027D01*
X206652251Y-65253026D01*
X206468616Y-65216500D01*
X206281384Y-65216500D01*
X206097748Y-65253026D01*
X206097746Y-65253027D01*
X205924774Y-65324675D01*
X205924768Y-65324678D01*
X205769093Y-65428696D01*
X205769086Y-65428702D01*
X205636702Y-65561086D01*
X205636696Y-65561093D01*
X205532678Y-65716768D01*
X205532675Y-65716774D01*
X205461027Y-65889746D01*
X205461026Y-65889748D01*
X205424500Y-66073384D01*
X203400500Y-66073384D01*
X203400500Y-64981144D01*
X216844500Y-64981144D01*
X216844500Y-65066855D01*
X216866681Y-65149635D01*
X216866682Y-65149639D01*
X216909536Y-65223864D01*
X216970135Y-65284463D01*
X216970137Y-65284464D01*
X216970138Y-65284465D01*
X217044362Y-65327318D01*
X217127147Y-65349500D01*
X217127149Y-65349500D01*
X217212851Y-65349500D01*
X217212853Y-65349500D01*
X217295638Y-65327318D01*
X217369862Y-65284465D01*
X217430465Y-65223862D01*
X217473318Y-65149638D01*
X217495500Y-65066853D01*
X217495500Y-64981147D01*
X217473318Y-64898362D01*
X217430465Y-64824138D01*
X217430464Y-64824137D01*
X217430463Y-64824135D01*
X217369864Y-64763536D01*
X217295639Y-64720682D01*
X217295635Y-64720681D01*
X217212855Y-64698500D01*
X217212853Y-64698500D01*
X217127147Y-64698500D01*
X217127144Y-64698500D01*
X217044364Y-64720681D01*
X217044360Y-64720682D01*
X216970135Y-64763536D01*
X216909536Y-64824135D01*
X216866682Y-64898360D01*
X216866681Y-64898364D01*
X216844500Y-64981144D01*
X203400500Y-64981144D01*
X203400500Y-63533384D01*
X205424500Y-63533384D01*
X205424500Y-63720615D01*
X205461026Y-63904251D01*
X205461027Y-63904253D01*
X205532675Y-64077225D01*
X205532678Y-64077231D01*
X205636696Y-64232906D01*
X205636702Y-64232913D01*
X205769086Y-64365297D01*
X205769092Y-64365302D01*
X205924769Y-64469322D01*
X205924774Y-64469324D01*
X206097746Y-64540972D01*
X206097748Y-64540973D01*
X206281384Y-64577500D01*
X206468616Y-64577500D01*
X206652251Y-64540973D01*
X206652253Y-64540972D01*
X206825231Y-64469322D01*
X206980908Y-64365302D01*
X207000066Y-64346144D01*
X236656500Y-64346144D01*
X236656500Y-64431855D01*
X236678681Y-64514635D01*
X236678682Y-64514639D01*
X236721536Y-64588864D01*
X236782135Y-64649463D01*
X236782137Y-64649464D01*
X236782138Y-64649465D01*
X236856362Y-64692318D01*
X236939147Y-64714500D01*
X236939149Y-64714500D01*
X237024851Y-64714500D01*
X237024853Y-64714500D01*
X237107638Y-64692318D01*
X237181862Y-64649465D01*
X237242465Y-64588862D01*
X237285318Y-64514638D01*
X237307500Y-64431853D01*
X237307500Y-64346147D01*
X237285318Y-64263362D01*
X237242465Y-64189138D01*
X237242464Y-64189137D01*
X237242463Y-64189135D01*
X237181864Y-64128536D01*
X237107639Y-64085682D01*
X237107635Y-64085681D01*
X237024855Y-64063500D01*
X237024853Y-64063500D01*
X236939147Y-64063500D01*
X236939144Y-64063500D01*
X236856364Y-64085681D01*
X236856360Y-64085682D01*
X236782135Y-64128536D01*
X236721536Y-64189135D01*
X236678682Y-64263360D01*
X236678681Y-64263364D01*
X236656500Y-64346144D01*
X207000066Y-64346144D01*
X207061103Y-64285108D01*
X207113297Y-64232913D01*
X207113302Y-64232908D01*
X207217322Y-64077231D01*
X207288973Y-63904251D01*
X207325500Y-63720616D01*
X207325500Y-63533384D01*
X207288973Y-63349749D01*
X207248005Y-63250844D01*
X217177800Y-63250844D01*
X217177800Y-63336555D01*
X217199981Y-63419335D01*
X217199982Y-63419339D01*
X217242836Y-63493564D01*
X217303435Y-63554163D01*
X217303437Y-63554164D01*
X217303438Y-63554165D01*
X217377662Y-63597018D01*
X217460447Y-63619200D01*
X217460449Y-63619200D01*
X217546151Y-63619200D01*
X217546153Y-63619200D01*
X217628938Y-63597018D01*
X217703162Y-63554165D01*
X217763765Y-63493562D01*
X217806618Y-63419338D01*
X217828800Y-63336553D01*
X217828800Y-63250847D01*
X217806618Y-63168062D01*
X217763765Y-63093838D01*
X217763764Y-63093837D01*
X217763763Y-63093835D01*
X217703164Y-63033236D01*
X217628939Y-62990382D01*
X217628935Y-62990381D01*
X217546155Y-62968200D01*
X217546153Y-62968200D01*
X217460447Y-62968200D01*
X217460444Y-62968200D01*
X217377664Y-62990381D01*
X217377660Y-62990382D01*
X217303435Y-63033236D01*
X217242836Y-63093835D01*
X217199982Y-63168060D01*
X217199981Y-63168064D01*
X217177800Y-63250844D01*
X207248005Y-63250844D01*
X207217322Y-63176769D01*
X207161907Y-63093835D01*
X207113303Y-63021093D01*
X207113297Y-63021086D01*
X206980913Y-62888702D01*
X206980906Y-62888696D01*
X206825231Y-62784678D01*
X206825225Y-62784675D01*
X206652253Y-62713027D01*
X206652251Y-62713026D01*
X206468616Y-62676500D01*
X206281384Y-62676500D01*
X206097748Y-62713026D01*
X206097746Y-62713027D01*
X205924774Y-62784675D01*
X205924768Y-62784678D01*
X205769093Y-62888696D01*
X205769086Y-62888702D01*
X205636702Y-63021086D01*
X205636696Y-63021093D01*
X205532678Y-63176768D01*
X205532675Y-63176774D01*
X205461027Y-63349746D01*
X205461026Y-63349748D01*
X205424500Y-63533384D01*
X203400500Y-63533384D01*
X203400500Y-62568144D01*
X236656500Y-62568144D01*
X236656500Y-62653855D01*
X236678681Y-62736635D01*
X236678682Y-62736639D01*
X236721536Y-62810864D01*
X236782135Y-62871463D01*
X236782137Y-62871464D01*
X236782138Y-62871465D01*
X236856362Y-62914318D01*
X236939147Y-62936500D01*
X236939149Y-62936500D01*
X237024851Y-62936500D01*
X237024853Y-62936500D01*
X237107638Y-62914318D01*
X237181862Y-62871465D01*
X237242465Y-62810862D01*
X237285318Y-62736638D01*
X237307500Y-62653853D01*
X237307500Y-62568147D01*
X237285318Y-62485362D01*
X237242465Y-62411138D01*
X237242464Y-62411137D01*
X237242463Y-62411135D01*
X237181864Y-62350536D01*
X237107639Y-62307682D01*
X237107635Y-62307681D01*
X237024855Y-62285500D01*
X237024853Y-62285500D01*
X236939147Y-62285500D01*
X236939144Y-62285500D01*
X236856364Y-62307681D01*
X236856360Y-62307682D01*
X236782135Y-62350536D01*
X236721536Y-62411135D01*
X236678682Y-62485360D01*
X236678681Y-62485364D01*
X236656500Y-62568144D01*
X203400500Y-62568144D01*
X203400500Y-62060144D01*
X228147500Y-62060144D01*
X228147500Y-62145855D01*
X228169681Y-62228635D01*
X228169682Y-62228639D01*
X228212536Y-62302864D01*
X228273135Y-62363463D01*
X228273137Y-62363464D01*
X228273138Y-62363465D01*
X228347362Y-62406318D01*
X228430147Y-62428500D01*
X228430149Y-62428500D01*
X228515851Y-62428500D01*
X228515853Y-62428500D01*
X228598638Y-62406318D01*
X228672862Y-62363465D01*
X228733465Y-62302862D01*
X228776318Y-62228638D01*
X228798500Y-62145853D01*
X228798500Y-62060147D01*
X228776318Y-61977362D01*
X228733465Y-61903138D01*
X228733464Y-61903137D01*
X228733463Y-61903135D01*
X228672864Y-61842536D01*
X228598639Y-61799682D01*
X228598635Y-61799681D01*
X228515855Y-61777500D01*
X228515853Y-61777500D01*
X228430147Y-61777500D01*
X228430144Y-61777500D01*
X228347364Y-61799681D01*
X228347360Y-61799682D01*
X228273135Y-61842536D01*
X228212536Y-61903135D01*
X228169682Y-61977360D01*
X228169681Y-61977364D01*
X228147500Y-62060144D01*
X203400500Y-62060144D01*
X203400500Y-60993384D01*
X205424500Y-60993384D01*
X205424500Y-61180615D01*
X205461026Y-61364251D01*
X205461027Y-61364253D01*
X205532675Y-61537225D01*
X205532678Y-61537231D01*
X205636696Y-61692906D01*
X205636702Y-61692913D01*
X205769086Y-61825297D01*
X205769093Y-61825303D01*
X205846930Y-61877312D01*
X205924769Y-61929322D01*
X205924774Y-61929324D01*
X206097746Y-62000972D01*
X206097748Y-62000973D01*
X206281384Y-62037500D01*
X206468616Y-62037500D01*
X206652251Y-62000973D01*
X206652253Y-62000972D01*
X206698098Y-61981983D01*
X206764980Y-61954278D01*
X206825231Y-61929322D01*
X206980908Y-61825302D01*
X207113302Y-61692908D01*
X207217322Y-61537231D01*
X207288973Y-61364251D01*
X207325500Y-61180616D01*
X207325500Y-60993384D01*
X207288973Y-60809749D01*
X207217322Y-60636769D01*
X207113302Y-60481092D01*
X207113297Y-60481086D01*
X206980913Y-60348702D01*
X206980906Y-60348696D01*
X206825231Y-60244678D01*
X206825225Y-60244675D01*
X206652253Y-60173027D01*
X206652251Y-60173026D01*
X206468616Y-60136500D01*
X206281384Y-60136500D01*
X206097748Y-60173026D01*
X206097746Y-60173027D01*
X205924774Y-60244675D01*
X205924768Y-60244678D01*
X205769093Y-60348696D01*
X205769086Y-60348702D01*
X205636702Y-60481086D01*
X205636696Y-60481093D01*
X205532678Y-60636768D01*
X205532675Y-60636774D01*
X205461027Y-60809746D01*
X205461026Y-60809748D01*
X205424500Y-60993384D01*
X203400500Y-60993384D01*
X203400500Y-59774144D01*
X230560500Y-59774144D01*
X230560500Y-59859855D01*
X230582681Y-59942635D01*
X230582682Y-59942639D01*
X230625536Y-60016864D01*
X230686135Y-60077463D01*
X230686137Y-60077464D01*
X230686138Y-60077465D01*
X230760362Y-60120318D01*
X230843147Y-60142500D01*
X230843149Y-60142500D01*
X230928851Y-60142500D01*
X230928853Y-60142500D01*
X231011638Y-60120318D01*
X231085862Y-60077465D01*
X231146465Y-60016862D01*
X231189318Y-59942638D01*
X231211500Y-59859853D01*
X231211500Y-59774147D01*
X231189318Y-59691362D01*
X231146465Y-59617138D01*
X231146464Y-59617137D01*
X231146463Y-59617135D01*
X231085864Y-59556536D01*
X231011639Y-59513682D01*
X231011635Y-59513681D01*
X230928855Y-59491500D01*
X230928853Y-59491500D01*
X230843147Y-59491500D01*
X230843144Y-59491500D01*
X230760364Y-59513681D01*
X230760360Y-59513682D01*
X230686135Y-59556536D01*
X230625536Y-59617135D01*
X230582682Y-59691360D01*
X230582681Y-59691364D01*
X230560500Y-59774144D01*
X203400500Y-59774144D01*
X203400500Y-57687101D01*
X205424500Y-57687101D01*
X205424500Y-59406895D01*
X205424501Y-59406898D01*
X205430331Y-59436213D01*
X205452543Y-59469457D01*
X205485787Y-59491669D01*
X205515101Y-59497500D01*
X207234898Y-59497499D01*
X207264213Y-59491669D01*
X207297457Y-59469457D01*
X207319669Y-59436213D01*
X207325500Y-59406899D01*
X207325500Y-59393144D01*
X221797500Y-59393144D01*
X221797500Y-59478855D01*
X221819681Y-59561635D01*
X221819682Y-59561639D01*
X221862536Y-59635864D01*
X221923135Y-59696463D01*
X221923137Y-59696464D01*
X221923138Y-59696465D01*
X221997362Y-59739318D01*
X222080147Y-59761500D01*
X222080149Y-59761500D01*
X222165851Y-59761500D01*
X222165853Y-59761500D01*
X222248638Y-59739318D01*
X222322862Y-59696465D01*
X222383465Y-59635862D01*
X222426318Y-59561638D01*
X222448500Y-59478853D01*
X222448500Y-59393147D01*
X222426318Y-59310362D01*
X222383465Y-59236138D01*
X222383464Y-59236137D01*
X222383463Y-59236135D01*
X222322864Y-59175536D01*
X222248639Y-59132682D01*
X222248635Y-59132681D01*
X222165855Y-59110500D01*
X222165853Y-59110500D01*
X222080147Y-59110500D01*
X222080144Y-59110500D01*
X221997364Y-59132681D01*
X221997360Y-59132682D01*
X221923135Y-59175536D01*
X221862536Y-59236135D01*
X221819682Y-59310360D01*
X221819681Y-59310364D01*
X221797500Y-59393144D01*
X207325500Y-59393144D01*
X207325499Y-58123144D01*
X225607500Y-58123144D01*
X225607500Y-58208855D01*
X225629681Y-58291635D01*
X225629682Y-58291639D01*
X225672536Y-58365864D01*
X225733135Y-58426463D01*
X225733137Y-58426464D01*
X225733138Y-58426465D01*
X225807362Y-58469318D01*
X225890147Y-58491500D01*
X225890149Y-58491500D01*
X225975851Y-58491500D01*
X225975853Y-58491500D01*
X226058638Y-58469318D01*
X226132862Y-58426465D01*
X226193465Y-58365862D01*
X226236318Y-58291638D01*
X226237692Y-58286511D01*
X226268687Y-58242244D01*
X226320885Y-58228258D01*
X226369861Y-58251095D01*
X226390308Y-58286511D01*
X226391681Y-58291635D01*
X226391682Y-58291639D01*
X226434536Y-58365864D01*
X226495135Y-58426463D01*
X226495137Y-58426464D01*
X226495138Y-58426465D01*
X226569362Y-58469318D01*
X226652147Y-58491500D01*
X226652149Y-58491500D01*
X226737851Y-58491500D01*
X226737853Y-58491500D01*
X226820638Y-58469318D01*
X226894862Y-58426465D01*
X226955465Y-58365862D01*
X226998318Y-58291638D01*
X227020500Y-58208853D01*
X227020500Y-58123147D01*
X226998318Y-58040362D01*
X226955465Y-57966138D01*
X226955464Y-57966137D01*
X226955463Y-57966135D01*
X226894864Y-57905536D01*
X226820639Y-57862682D01*
X226820635Y-57862681D01*
X226737855Y-57840500D01*
X226737853Y-57840500D01*
X226652147Y-57840500D01*
X226652144Y-57840500D01*
X226569364Y-57862681D01*
X226569360Y-57862682D01*
X226495135Y-57905536D01*
X226434536Y-57966135D01*
X226391682Y-58040360D01*
X226391682Y-58040361D01*
X226390308Y-58045490D01*
X226359311Y-58089756D01*
X226307113Y-58103741D01*
X226258137Y-58080902D01*
X226237692Y-58045490D01*
X226236318Y-58040362D01*
X226193465Y-57966138D01*
X226193464Y-57966137D01*
X226193463Y-57966135D01*
X226132864Y-57905536D01*
X226058639Y-57862682D01*
X226058635Y-57862681D01*
X225975855Y-57840500D01*
X225975853Y-57840500D01*
X225890147Y-57840500D01*
X225890144Y-57840500D01*
X225807364Y-57862681D01*
X225807360Y-57862682D01*
X225733135Y-57905536D01*
X225672536Y-57966135D01*
X225629682Y-58040360D01*
X225629681Y-58040364D01*
X225607500Y-58123144D01*
X207325499Y-58123144D01*
X207325499Y-57687102D01*
X207319669Y-57657787D01*
X207297457Y-57624543D01*
X207264213Y-57602331D01*
X207264211Y-57602330D01*
X207242176Y-57597947D01*
X207234899Y-57596500D01*
X207234898Y-57596500D01*
X205515104Y-57596500D01*
X205485786Y-57602331D01*
X205452543Y-57624542D01*
X205430331Y-57657786D01*
X205430330Y-57657788D01*
X205424500Y-57687101D01*
X203400500Y-57687101D01*
X203400500Y-57488144D01*
X223956500Y-57488144D01*
X223956500Y-57573855D01*
X223978681Y-57656635D01*
X223978682Y-57656639D01*
X224021536Y-57730864D01*
X224082135Y-57791463D01*
X224082137Y-57791464D01*
X224082138Y-57791465D01*
X224156362Y-57834318D01*
X224239147Y-57856500D01*
X224239149Y-57856500D01*
X224324851Y-57856500D01*
X224324853Y-57856500D01*
X224407638Y-57834318D01*
X224481862Y-57791465D01*
X224542465Y-57730862D01*
X224585318Y-57656638D01*
X224607500Y-57573853D01*
X224607500Y-57488147D01*
X224585318Y-57405362D01*
X224542465Y-57331138D01*
X224542464Y-57331137D01*
X224542463Y-57331135D01*
X224481864Y-57270536D01*
X224407639Y-57227682D01*
X224407635Y-57227681D01*
X224324855Y-57205500D01*
X224324853Y-57205500D01*
X224239147Y-57205500D01*
X224239144Y-57205500D01*
X224156364Y-57227681D01*
X224156360Y-57227682D01*
X224082135Y-57270536D01*
X224021536Y-57331135D01*
X223978682Y-57405360D01*
X223978681Y-57405364D01*
X223956500Y-57488144D01*
X203400500Y-57488144D01*
X203400500Y-57107144D01*
X230560500Y-57107144D01*
X230560500Y-57192855D01*
X230582681Y-57275635D01*
X230582682Y-57275639D01*
X230625536Y-57349864D01*
X230686135Y-57410463D01*
X230686137Y-57410464D01*
X230686138Y-57410465D01*
X230760362Y-57453318D01*
X230843147Y-57475500D01*
X230843149Y-57475500D01*
X230928851Y-57475500D01*
X230928853Y-57475500D01*
X231011638Y-57453318D01*
X231085862Y-57410465D01*
X231146465Y-57349862D01*
X231189318Y-57275638D01*
X231211500Y-57192853D01*
X231211500Y-57107147D01*
X231189318Y-57024362D01*
X231146465Y-56950138D01*
X231146464Y-56950137D01*
X231146463Y-56950135D01*
X231085864Y-56889536D01*
X231011639Y-56846682D01*
X231011635Y-56846681D01*
X230928855Y-56824500D01*
X230928853Y-56824500D01*
X230843147Y-56824500D01*
X230843144Y-56824500D01*
X230760364Y-56846681D01*
X230760360Y-56846682D01*
X230686135Y-56889536D01*
X230625536Y-56950135D01*
X230582682Y-57024360D01*
X230582681Y-57024364D01*
X230560500Y-57107144D01*
X203400500Y-57107144D01*
X203400500Y-56218144D01*
X224788500Y-56218144D01*
X224788500Y-56303855D01*
X224810681Y-56386635D01*
X224810682Y-56386639D01*
X224853536Y-56460864D01*
X224914135Y-56521463D01*
X224914137Y-56521464D01*
X224914138Y-56521465D01*
X224988362Y-56564318D01*
X225071147Y-56586500D01*
X225071149Y-56586500D01*
X225156851Y-56586500D01*
X225156853Y-56586500D01*
X225239638Y-56564318D01*
X225313862Y-56521465D01*
X225374465Y-56460862D01*
X225417318Y-56386638D01*
X225439500Y-56303853D01*
X225439500Y-56218147D01*
X225417318Y-56135362D01*
X225374465Y-56061138D01*
X225374464Y-56061137D01*
X225374463Y-56061135D01*
X225357085Y-56043757D01*
X249729000Y-56043757D01*
X249729000Y-56256242D01*
X249729001Y-56256258D01*
X249762239Y-56466115D01*
X249762245Y-56466138D01*
X249827903Y-56668214D01*
X249827910Y-56668230D01*
X249924377Y-56857554D01*
X249963729Y-56911717D01*
X250596037Y-56279409D01*
X250613075Y-56342993D01*
X250678901Y-56457007D01*
X250771993Y-56550099D01*
X250886007Y-56615925D01*
X250949589Y-56632962D01*
X250317281Y-57265269D01*
X250371445Y-57304622D01*
X250560769Y-57401089D01*
X250560785Y-57401096D01*
X250762861Y-57466754D01*
X250762884Y-57466760D01*
X250972741Y-57499998D01*
X250972758Y-57500000D01*
X251185242Y-57500000D01*
X251185258Y-57499998D01*
X251395115Y-57466760D01*
X251395138Y-57466754D01*
X251597214Y-57401096D01*
X251597230Y-57401089D01*
X251786547Y-57304625D01*
X251786557Y-57304620D01*
X251840717Y-57265269D01*
X251208410Y-56632962D01*
X251271993Y-56615925D01*
X251386007Y-56550099D01*
X251479099Y-56457007D01*
X251544925Y-56342993D01*
X251561962Y-56279410D01*
X252194269Y-56911717D01*
X252233620Y-56857557D01*
X252233625Y-56857547D01*
X252330089Y-56668230D01*
X252330096Y-56668214D01*
X252395754Y-56466138D01*
X252395760Y-56466115D01*
X252428998Y-56256258D01*
X252429000Y-56256242D01*
X252429000Y-56043757D01*
X252428998Y-56043741D01*
X252395760Y-55833884D01*
X252395754Y-55833861D01*
X252330096Y-55631785D01*
X252330089Y-55631769D01*
X252233622Y-55442445D01*
X252194269Y-55388281D01*
X251561962Y-56020588D01*
X251544925Y-55957007D01*
X251479099Y-55842993D01*
X251386007Y-55749901D01*
X251271993Y-55684075D01*
X251208409Y-55667037D01*
X251840717Y-55034729D01*
X251786554Y-54995377D01*
X251597230Y-54898910D01*
X251597214Y-54898903D01*
X251395138Y-54833245D01*
X251395115Y-54833239D01*
X251185258Y-54800001D01*
X251185242Y-54800000D01*
X250972758Y-54800000D01*
X250972741Y-54800001D01*
X250762884Y-54833239D01*
X250762861Y-54833245D01*
X250560785Y-54898903D01*
X250560769Y-54898910D01*
X250371446Y-54995376D01*
X250317281Y-55034729D01*
X250949590Y-55667037D01*
X250886007Y-55684075D01*
X250771993Y-55749901D01*
X250678901Y-55842993D01*
X250613075Y-55957007D01*
X250596037Y-56020589D01*
X249963729Y-55388281D01*
X249924376Y-55442446D01*
X249827910Y-55631769D01*
X249827903Y-55631785D01*
X249762245Y-55833861D01*
X249762239Y-55833884D01*
X249729001Y-56043741D01*
X249729000Y-56043757D01*
X225357085Y-56043757D01*
X225313864Y-56000536D01*
X225239639Y-55957682D01*
X225239635Y-55957681D01*
X225156855Y-55935500D01*
X225156853Y-55935500D01*
X225071147Y-55935500D01*
X225071144Y-55935500D01*
X224988364Y-55957681D01*
X224988360Y-55957682D01*
X224914135Y-56000536D01*
X224853536Y-56061135D01*
X224810682Y-56135360D01*
X224810681Y-56135364D01*
X224788500Y-56218144D01*
X203400500Y-56218144D01*
X203400500Y-54186144D01*
X225607500Y-54186144D01*
X225607500Y-54271855D01*
X225629681Y-54354635D01*
X225629682Y-54354639D01*
X225672536Y-54428864D01*
X225733135Y-54489463D01*
X225733137Y-54489464D01*
X225733138Y-54489465D01*
X225807362Y-54532318D01*
X225890147Y-54554500D01*
X225890149Y-54554500D01*
X225975851Y-54554500D01*
X225975853Y-54554500D01*
X226058638Y-54532318D01*
X226132862Y-54489465D01*
X226193465Y-54428862D01*
X226236318Y-54354638D01*
X226258500Y-54271853D01*
X226258500Y-54186147D01*
X226236318Y-54103362D01*
X226193465Y-54029138D01*
X226193464Y-54029137D01*
X226193463Y-54029135D01*
X226132864Y-53968536D01*
X226058639Y-53925682D01*
X226058635Y-53925681D01*
X225975855Y-53903500D01*
X225975853Y-53903500D01*
X225890147Y-53903500D01*
X225890144Y-53903500D01*
X225807364Y-53925681D01*
X225807360Y-53925682D01*
X225733135Y-53968536D01*
X225672536Y-54029135D01*
X225629682Y-54103360D01*
X225629681Y-54103364D01*
X225607500Y-54186144D01*
X203400500Y-54186144D01*
X203400500Y-53678144D01*
X223988500Y-53678144D01*
X223988500Y-53763855D01*
X224010681Y-53846635D01*
X224010682Y-53846639D01*
X224053536Y-53920864D01*
X224114135Y-53981463D01*
X224114137Y-53981464D01*
X224114138Y-53981465D01*
X224188362Y-54024318D01*
X224271147Y-54046500D01*
X224271149Y-54046500D01*
X224356851Y-54046500D01*
X224356853Y-54046500D01*
X224439638Y-54024318D01*
X224513862Y-53981465D01*
X224574465Y-53920862D01*
X224617318Y-53846638D01*
X224639500Y-53763853D01*
X224639500Y-53678147D01*
X224617318Y-53595362D01*
X224574465Y-53521138D01*
X224574464Y-53521137D01*
X224574463Y-53521135D01*
X224513864Y-53460536D01*
X224439639Y-53417682D01*
X224439635Y-53417681D01*
X224356855Y-53395500D01*
X224356853Y-53395500D01*
X224271147Y-53395500D01*
X224271144Y-53395500D01*
X224188364Y-53417681D01*
X224188360Y-53417682D01*
X224114135Y-53460536D01*
X224053536Y-53521135D01*
X224010682Y-53595360D01*
X224010681Y-53595364D01*
X223988500Y-53678144D01*
X203400500Y-53678144D01*
X203400500Y-53186144D01*
X225607500Y-53186144D01*
X225607500Y-53271855D01*
X225629681Y-53354635D01*
X225629682Y-53354639D01*
X225672536Y-53428864D01*
X225733135Y-53489463D01*
X225787997Y-53521138D01*
X225807362Y-53532318D01*
X225890147Y-53554500D01*
X225890149Y-53554500D01*
X225975851Y-53554500D01*
X225975853Y-53554500D01*
X226058638Y-53532318D01*
X226132862Y-53489465D01*
X226193465Y-53428862D01*
X226236318Y-53354638D01*
X226237692Y-53349511D01*
X226268687Y-53305244D01*
X226320885Y-53291258D01*
X226369861Y-53314095D01*
X226390308Y-53349511D01*
X226391681Y-53354635D01*
X226391682Y-53354639D01*
X226434536Y-53428864D01*
X226495135Y-53489463D01*
X226549997Y-53521138D01*
X226569362Y-53532318D01*
X226652147Y-53554500D01*
X226652149Y-53554500D01*
X226737851Y-53554500D01*
X226737853Y-53554500D01*
X226820638Y-53532318D01*
X226848237Y-53516384D01*
X250128500Y-53516384D01*
X250128500Y-53703615D01*
X250165026Y-53887251D01*
X250165027Y-53887253D01*
X250236675Y-54060225D01*
X250236678Y-54060231D01*
X250340696Y-54215906D01*
X250340702Y-54215913D01*
X250473086Y-54348297D01*
X250473092Y-54348302D01*
X250628769Y-54452322D01*
X250628774Y-54452324D01*
X250801746Y-54523972D01*
X250801748Y-54523973D01*
X250985384Y-54560500D01*
X251172616Y-54560500D01*
X251356251Y-54523973D01*
X251356253Y-54523972D01*
X251439560Y-54489465D01*
X251529231Y-54452322D01*
X251684908Y-54348302D01*
X251817302Y-54215908D01*
X251921322Y-54060231D01*
X251992973Y-53887251D01*
X252029500Y-53703616D01*
X252029500Y-53516384D01*
X251997327Y-53354638D01*
X251992973Y-53332748D01*
X251992972Y-53332746D01*
X251921324Y-53159774D01*
X251921321Y-53159768D01*
X251817303Y-53004093D01*
X251817297Y-53004086D01*
X251684913Y-52871702D01*
X251684906Y-52871696D01*
X251529231Y-52767678D01*
X251529225Y-52767675D01*
X251356253Y-52696027D01*
X251356251Y-52696026D01*
X251172616Y-52659500D01*
X250985384Y-52659500D01*
X250801748Y-52696026D01*
X250801746Y-52696027D01*
X250628774Y-52767675D01*
X250628768Y-52767678D01*
X250473093Y-52871696D01*
X250473086Y-52871702D01*
X250340702Y-53004086D01*
X250340696Y-53004093D01*
X250236678Y-53159768D01*
X250236675Y-53159774D01*
X250165027Y-53332746D01*
X250165026Y-53332748D01*
X250128500Y-53516384D01*
X226848237Y-53516384D01*
X226894862Y-53489465D01*
X226894864Y-53489463D01*
X226927686Y-53456642D01*
X226955463Y-53428864D01*
X226955465Y-53428862D01*
X226998318Y-53354638D01*
X227020500Y-53271853D01*
X227020500Y-53186147D01*
X226998318Y-53103362D01*
X226955465Y-53029138D01*
X226955464Y-53029137D01*
X226955463Y-53029135D01*
X226894864Y-52968536D01*
X226820639Y-52925682D01*
X226820635Y-52925681D01*
X226737855Y-52903500D01*
X226737853Y-52903500D01*
X226652147Y-52903500D01*
X226652144Y-52903500D01*
X226569364Y-52925681D01*
X226569360Y-52925682D01*
X226495135Y-52968536D01*
X226434536Y-53029135D01*
X226391682Y-53103360D01*
X226391682Y-53103361D01*
X226390308Y-53108490D01*
X226359311Y-53152756D01*
X226307113Y-53166741D01*
X226258137Y-53143902D01*
X226237692Y-53108490D01*
X226236318Y-53103362D01*
X226193465Y-53029138D01*
X226193464Y-53029137D01*
X226193463Y-53029135D01*
X226132864Y-52968536D01*
X226058639Y-52925682D01*
X226058635Y-52925681D01*
X225975855Y-52903500D01*
X225975853Y-52903500D01*
X225890147Y-52903500D01*
X225890144Y-52903500D01*
X225807364Y-52925681D01*
X225807360Y-52925682D01*
X225733135Y-52968536D01*
X225672536Y-53029135D01*
X225629682Y-53103360D01*
X225629681Y-53103364D01*
X225607500Y-53186144D01*
X203400500Y-53186144D01*
X203400500Y-52424144D01*
X244530500Y-52424144D01*
X244530500Y-52509855D01*
X244552681Y-52592635D01*
X244552682Y-52592639D01*
X244595536Y-52666864D01*
X244656135Y-52727463D01*
X244656137Y-52727464D01*
X244656138Y-52727465D01*
X244730362Y-52770318D01*
X244813147Y-52792500D01*
X244813149Y-52792500D01*
X244898851Y-52792500D01*
X244898853Y-52792500D01*
X244981638Y-52770318D01*
X245055862Y-52727465D01*
X245116465Y-52666862D01*
X245159318Y-52592638D01*
X245181500Y-52509853D01*
X245181500Y-52424147D01*
X245159318Y-52341362D01*
X245147617Y-52321096D01*
X245116463Y-52267135D01*
X245055864Y-52206536D01*
X244981639Y-52163682D01*
X244981635Y-52163681D01*
X244898855Y-52141500D01*
X244898853Y-52141500D01*
X244813147Y-52141500D01*
X244813144Y-52141500D01*
X244730364Y-52163681D01*
X244730360Y-52163682D01*
X244656135Y-52206536D01*
X244595536Y-52267135D01*
X244552682Y-52341360D01*
X244552681Y-52341364D01*
X244530500Y-52424144D01*
X203400500Y-52424144D01*
X203400500Y-50963757D01*
X249729000Y-50963757D01*
X249729000Y-51176242D01*
X249729001Y-51176258D01*
X249762239Y-51386115D01*
X249762245Y-51386138D01*
X249827903Y-51588214D01*
X249827910Y-51588230D01*
X249924377Y-51777554D01*
X249963729Y-51831717D01*
X250596037Y-51199409D01*
X250613075Y-51262993D01*
X250678901Y-51377007D01*
X250771993Y-51470099D01*
X250886007Y-51535925D01*
X250949589Y-51552962D01*
X250317281Y-52185269D01*
X250371445Y-52224622D01*
X250560769Y-52321089D01*
X250560785Y-52321096D01*
X250762861Y-52386754D01*
X250762884Y-52386760D01*
X250972741Y-52419998D01*
X250972758Y-52420000D01*
X251185242Y-52420000D01*
X251185258Y-52419998D01*
X251395115Y-52386760D01*
X251395138Y-52386754D01*
X251597214Y-52321096D01*
X251597230Y-52321089D01*
X251786547Y-52224625D01*
X251786557Y-52224620D01*
X251840717Y-52185269D01*
X251208410Y-51552962D01*
X251271993Y-51535925D01*
X251386007Y-51470099D01*
X251479099Y-51377007D01*
X251544925Y-51262993D01*
X251561962Y-51199410D01*
X252194269Y-51831717D01*
X252233620Y-51777557D01*
X252233625Y-51777547D01*
X252330089Y-51588230D01*
X252330096Y-51588214D01*
X252395754Y-51386138D01*
X252395760Y-51386115D01*
X252428998Y-51176258D01*
X252429000Y-51176242D01*
X252429000Y-50963757D01*
X252428998Y-50963741D01*
X252395760Y-50753884D01*
X252395754Y-50753861D01*
X252330096Y-50551785D01*
X252330089Y-50551769D01*
X252233622Y-50362445D01*
X252194269Y-50308281D01*
X251561962Y-50940588D01*
X251544925Y-50877007D01*
X251479099Y-50762993D01*
X251386007Y-50669901D01*
X251271993Y-50604075D01*
X251208409Y-50587037D01*
X251840717Y-49954729D01*
X251786554Y-49915377D01*
X251597230Y-49818910D01*
X251597214Y-49818903D01*
X251395138Y-49753245D01*
X251395115Y-49753239D01*
X251185258Y-49720001D01*
X251185242Y-49720000D01*
X250972758Y-49720000D01*
X250972741Y-49720001D01*
X250762884Y-49753239D01*
X250762861Y-49753245D01*
X250560785Y-49818903D01*
X250560769Y-49818910D01*
X250371446Y-49915376D01*
X250317281Y-49954729D01*
X250949590Y-50587037D01*
X250886007Y-50604075D01*
X250771993Y-50669901D01*
X250678901Y-50762993D01*
X250613075Y-50877007D01*
X250596037Y-50940589D01*
X249963729Y-50308281D01*
X249924376Y-50362446D01*
X249827910Y-50551769D01*
X249827903Y-50551785D01*
X249762245Y-50753861D01*
X249762239Y-50753884D01*
X249729001Y-50963741D01*
X249729000Y-50963757D01*
X203400500Y-50963757D01*
X203400500Y-48436384D01*
X250128500Y-48436384D01*
X250128500Y-48623615D01*
X250165026Y-48807251D01*
X250165027Y-48807253D01*
X250236675Y-48980225D01*
X250236678Y-48980231D01*
X250340696Y-49135906D01*
X250340702Y-49135913D01*
X250473086Y-49268297D01*
X250473092Y-49268302D01*
X250628769Y-49372322D01*
X250628774Y-49372324D01*
X250801746Y-49443972D01*
X250801748Y-49443973D01*
X250985384Y-49480500D01*
X251172616Y-49480500D01*
X251356251Y-49443973D01*
X251356253Y-49443972D01*
X251529231Y-49372322D01*
X251684908Y-49268302D01*
X251817302Y-49135908D01*
X251921322Y-48980231D01*
X251992973Y-48807251D01*
X252029500Y-48623616D01*
X252029500Y-48436384D01*
X251992973Y-48252749D01*
X251970426Y-48198317D01*
X251921324Y-48079774D01*
X251921321Y-48079768D01*
X251817303Y-47924093D01*
X251817297Y-47924086D01*
X251684913Y-47791702D01*
X251684906Y-47791696D01*
X251529231Y-47687678D01*
X251529225Y-47687675D01*
X251356253Y-47616027D01*
X251356251Y-47616026D01*
X251172616Y-47579500D01*
X250985384Y-47579500D01*
X250801748Y-47616026D01*
X250801746Y-47616027D01*
X250628774Y-47687675D01*
X250628768Y-47687678D01*
X250473093Y-47791696D01*
X250473086Y-47791702D01*
X250340702Y-47924086D01*
X250340696Y-47924093D01*
X250236678Y-48079768D01*
X250236675Y-48079774D01*
X250165027Y-48252746D01*
X250165026Y-48252748D01*
X250128500Y-48436384D01*
X203400500Y-48436384D01*
X203400500Y-47852144D01*
X237545500Y-47852144D01*
X237545500Y-47937855D01*
X237567681Y-48020635D01*
X237567682Y-48020639D01*
X237610536Y-48094864D01*
X237671135Y-48155463D01*
X237671137Y-48155464D01*
X237671138Y-48155465D01*
X237745362Y-48198318D01*
X237828147Y-48220500D01*
X237828149Y-48220500D01*
X237913851Y-48220500D01*
X237913853Y-48220500D01*
X237996638Y-48198318D01*
X238070862Y-48155465D01*
X238131465Y-48094862D01*
X238174318Y-48020638D01*
X238196500Y-47937853D01*
X238196500Y-47852147D01*
X238174318Y-47769362D01*
X238131465Y-47695138D01*
X238131464Y-47695137D01*
X238131463Y-47695135D01*
X238070864Y-47634536D01*
X237996639Y-47591682D01*
X237996635Y-47591681D01*
X237913855Y-47569500D01*
X237913853Y-47569500D01*
X237828147Y-47569500D01*
X237828144Y-47569500D01*
X237745364Y-47591681D01*
X237745360Y-47591682D01*
X237671135Y-47634536D01*
X237610536Y-47695135D01*
X237567682Y-47769360D01*
X237567681Y-47769364D01*
X237545500Y-47852144D01*
X203400500Y-47852144D01*
X203400500Y-47217144D01*
X218368500Y-47217144D01*
X218368500Y-47302855D01*
X218390681Y-47385635D01*
X218390682Y-47385639D01*
X218433536Y-47459864D01*
X218494135Y-47520463D01*
X218494137Y-47520464D01*
X218494138Y-47520465D01*
X218568362Y-47563318D01*
X218651147Y-47585500D01*
X218651149Y-47585500D01*
X218736851Y-47585500D01*
X218736853Y-47585500D01*
X218819638Y-47563318D01*
X218893862Y-47520465D01*
X218954465Y-47459862D01*
X218997318Y-47385638D01*
X219019500Y-47302853D01*
X219019500Y-47217147D01*
X218997318Y-47134362D01*
X218954465Y-47060138D01*
X218954464Y-47060137D01*
X218954463Y-47060135D01*
X218893864Y-46999536D01*
X218819639Y-46956682D01*
X218819635Y-46956681D01*
X218736855Y-46934500D01*
X218736853Y-46934500D01*
X218651147Y-46934500D01*
X218651144Y-46934500D01*
X218568364Y-46956681D01*
X218568360Y-46956682D01*
X218494135Y-46999536D01*
X218433536Y-47060135D01*
X218390682Y-47134360D01*
X218390681Y-47134364D01*
X218368500Y-47217144D01*
X203400500Y-47217144D01*
X203400500Y-45896384D01*
X250128500Y-45896384D01*
X250128500Y-46083615D01*
X250165026Y-46267251D01*
X250165027Y-46267253D01*
X250236675Y-46440225D01*
X250236678Y-46440231D01*
X250340696Y-46595906D01*
X250340702Y-46595913D01*
X250473086Y-46728297D01*
X250473092Y-46728302D01*
X250628769Y-46832322D01*
X250628774Y-46832324D01*
X250801746Y-46903972D01*
X250801748Y-46903973D01*
X250985384Y-46940500D01*
X251172616Y-46940500D01*
X251356251Y-46903973D01*
X251356253Y-46903972D01*
X251529231Y-46832322D01*
X251684908Y-46728302D01*
X251817302Y-46595908D01*
X251921322Y-46440231D01*
X251992973Y-46267251D01*
X252029500Y-46083616D01*
X252029500Y-45896384D01*
X251992973Y-45712749D01*
X251921322Y-45539769D01*
X251817302Y-45384092D01*
X251817297Y-45384086D01*
X251684913Y-45251702D01*
X251684906Y-45251696D01*
X251529231Y-45147678D01*
X251529225Y-45147675D01*
X251356253Y-45076027D01*
X251356251Y-45076026D01*
X251172616Y-45039500D01*
X250985384Y-45039500D01*
X250801748Y-45076026D01*
X250801746Y-45076027D01*
X250628774Y-45147675D01*
X250628768Y-45147678D01*
X250473093Y-45251696D01*
X250473086Y-45251702D01*
X250340702Y-45384086D01*
X250340696Y-45384093D01*
X250236678Y-45539768D01*
X250236675Y-45539774D01*
X250165027Y-45712746D01*
X250165026Y-45712748D01*
X250128500Y-45896384D01*
X203400500Y-45896384D01*
X203400500Y-43645144D01*
X230179500Y-43645144D01*
X230179500Y-43730855D01*
X230201681Y-43813635D01*
X230201682Y-43813639D01*
X230244536Y-43887864D01*
X230305135Y-43948463D01*
X230305137Y-43948464D01*
X230305138Y-43948465D01*
X230379362Y-43991318D01*
X230462147Y-44013500D01*
X230462149Y-44013500D01*
X230547851Y-44013500D01*
X230547853Y-44013500D01*
X230630638Y-43991318D01*
X230704862Y-43948465D01*
X230765465Y-43887862D01*
X230808318Y-43813638D01*
X230830500Y-43730853D01*
X230830500Y-43645147D01*
X230808318Y-43562362D01*
X230765465Y-43488138D01*
X230765464Y-43488137D01*
X230765463Y-43488135D01*
X230704864Y-43427536D01*
X230630639Y-43384682D01*
X230630635Y-43384681D01*
X230547855Y-43362500D01*
X230547853Y-43362500D01*
X230462147Y-43362500D01*
X230462144Y-43362500D01*
X230379364Y-43384681D01*
X230379360Y-43384682D01*
X230305135Y-43427536D01*
X230244536Y-43488135D01*
X230201682Y-43562360D01*
X230201681Y-43562364D01*
X230179500Y-43645144D01*
X203400500Y-43645144D01*
X203400500Y-43026144D01*
X234243500Y-43026144D01*
X234243500Y-43111855D01*
X234265681Y-43194635D01*
X234265682Y-43194639D01*
X234308536Y-43268864D01*
X234369135Y-43329463D01*
X234369137Y-43329464D01*
X234369138Y-43329465D01*
X234443362Y-43372318D01*
X234526147Y-43394500D01*
X234526149Y-43394500D01*
X234611851Y-43394500D01*
X234611853Y-43394500D01*
X234694638Y-43372318D01*
X234768862Y-43329465D01*
X234829465Y-43268862D01*
X234872318Y-43194638D01*
X234894500Y-43111853D01*
X234894500Y-43056141D01*
X237164500Y-43056141D01*
X237164500Y-43141852D01*
X237186681Y-43224632D01*
X237186682Y-43224636D01*
X237229536Y-43298861D01*
X237290135Y-43359460D01*
X237290137Y-43359461D01*
X237290138Y-43359462D01*
X237364362Y-43402315D01*
X237447147Y-43424497D01*
X237447149Y-43424497D01*
X237532851Y-43424497D01*
X237532853Y-43424497D01*
X237615638Y-43402315D01*
X237689862Y-43359462D01*
X237705567Y-43343757D01*
X249729000Y-43343757D01*
X249729000Y-43556242D01*
X249729001Y-43556258D01*
X249762239Y-43766115D01*
X249762245Y-43766138D01*
X249827903Y-43968214D01*
X249827910Y-43968230D01*
X249924377Y-44157554D01*
X249963729Y-44211717D01*
X250596037Y-43579409D01*
X250613075Y-43642993D01*
X250678901Y-43757007D01*
X250771993Y-43850099D01*
X250886007Y-43915925D01*
X250949589Y-43932962D01*
X250317281Y-44565269D01*
X250371445Y-44604622D01*
X250560769Y-44701089D01*
X250560785Y-44701096D01*
X250762861Y-44766754D01*
X250762884Y-44766760D01*
X250972741Y-44799998D01*
X250972758Y-44800000D01*
X251185242Y-44800000D01*
X251185258Y-44799998D01*
X251395115Y-44766760D01*
X251395138Y-44766754D01*
X251597214Y-44701096D01*
X251597230Y-44701089D01*
X251786547Y-44604625D01*
X251786557Y-44604620D01*
X251840717Y-44565269D01*
X251208410Y-43932962D01*
X251271993Y-43915925D01*
X251386007Y-43850099D01*
X251479099Y-43757007D01*
X251544925Y-43642993D01*
X251561962Y-43579410D01*
X252194269Y-44211717D01*
X252233620Y-44157557D01*
X252233625Y-44157547D01*
X252330089Y-43968230D01*
X252330096Y-43968214D01*
X252395754Y-43766138D01*
X252395760Y-43766115D01*
X252428998Y-43556258D01*
X252429000Y-43556242D01*
X252429000Y-43343757D01*
X252428998Y-43343741D01*
X252395760Y-43133884D01*
X252395754Y-43133861D01*
X252330096Y-42931785D01*
X252330089Y-42931769D01*
X252233622Y-42742445D01*
X252194269Y-42688281D01*
X251561962Y-43320588D01*
X251544925Y-43257007D01*
X251479099Y-43142993D01*
X251386007Y-43049901D01*
X251271993Y-42984075D01*
X251208409Y-42967037D01*
X251840717Y-42334729D01*
X251786554Y-42295377D01*
X251597230Y-42198910D01*
X251597214Y-42198903D01*
X251395138Y-42133245D01*
X251395115Y-42133239D01*
X251185258Y-42100001D01*
X251185242Y-42100000D01*
X250972758Y-42100000D01*
X250972741Y-42100001D01*
X250762884Y-42133239D01*
X250762861Y-42133245D01*
X250560785Y-42198903D01*
X250560769Y-42198910D01*
X250371446Y-42295376D01*
X250317281Y-42334729D01*
X250949590Y-42967037D01*
X250886007Y-42984075D01*
X250771993Y-43049901D01*
X250678901Y-43142993D01*
X250613075Y-43257007D01*
X250596037Y-43320589D01*
X249963729Y-42688281D01*
X249924376Y-42742446D01*
X249827910Y-42931769D01*
X249827903Y-42931785D01*
X249762245Y-43133861D01*
X249762239Y-43133884D01*
X249729001Y-43343741D01*
X249729000Y-43343757D01*
X237705567Y-43343757D01*
X237750465Y-43298859D01*
X237793318Y-43224635D01*
X237815500Y-43141850D01*
X237815500Y-43056144D01*
X237793318Y-42973359D01*
X237750465Y-42899135D01*
X237750464Y-42899134D01*
X237750463Y-42899132D01*
X237689864Y-42838533D01*
X237615639Y-42795679D01*
X237615635Y-42795678D01*
X237532855Y-42773497D01*
X237532853Y-42773497D01*
X237447147Y-42773497D01*
X237447144Y-42773497D01*
X237364364Y-42795678D01*
X237364360Y-42795679D01*
X237290135Y-42838533D01*
X237229536Y-42899132D01*
X237186682Y-42973357D01*
X237186681Y-42973361D01*
X237164500Y-43056141D01*
X234894500Y-43056141D01*
X234894500Y-43026147D01*
X234872318Y-42943362D01*
X234829465Y-42869138D01*
X234829464Y-42869137D01*
X234829463Y-42869135D01*
X234768864Y-42808536D01*
X234694639Y-42765682D01*
X234694635Y-42765681D01*
X234611855Y-42743500D01*
X234611853Y-42743500D01*
X234526147Y-42743500D01*
X234526144Y-42743500D01*
X234443364Y-42765681D01*
X234443360Y-42765682D01*
X234369135Y-42808536D01*
X234308536Y-42869135D01*
X234265682Y-42943360D01*
X234265681Y-42943364D01*
X234243500Y-43026144D01*
X203400500Y-43026144D01*
X203400500Y-42137144D01*
X228020500Y-42137144D01*
X228020500Y-42222855D01*
X228042681Y-42305635D01*
X228042682Y-42305639D01*
X228085536Y-42379864D01*
X228146135Y-42440463D01*
X228146137Y-42440464D01*
X228146138Y-42440465D01*
X228220362Y-42483318D01*
X228303147Y-42505500D01*
X228303149Y-42505500D01*
X228388851Y-42505500D01*
X228388853Y-42505500D01*
X228401378Y-42502144D01*
X230306500Y-42502144D01*
X230306500Y-42587855D01*
X230328681Y-42670635D01*
X230328682Y-42670639D01*
X230371536Y-42744864D01*
X230432135Y-42805463D01*
X230432137Y-42805464D01*
X230432138Y-42805465D01*
X230506362Y-42848318D01*
X230589147Y-42870500D01*
X230589149Y-42870500D01*
X230674851Y-42870500D01*
X230674853Y-42870500D01*
X230757638Y-42848318D01*
X230831862Y-42805465D01*
X230892465Y-42744862D01*
X230935318Y-42670638D01*
X230957500Y-42587853D01*
X230957500Y-42502147D01*
X230935318Y-42419362D01*
X230927685Y-42406142D01*
X236529500Y-42406142D01*
X236529500Y-42491853D01*
X236551681Y-42574633D01*
X236551682Y-42574637D01*
X236594536Y-42648862D01*
X236655135Y-42709461D01*
X236712266Y-42742446D01*
X236729362Y-42752316D01*
X236812147Y-42774498D01*
X236812149Y-42774498D01*
X236897851Y-42774498D01*
X236897853Y-42774498D01*
X236980638Y-42752316D01*
X237054862Y-42709463D01*
X237115465Y-42648860D01*
X237158318Y-42574636D01*
X237180500Y-42491851D01*
X237180500Y-42406145D01*
X237158318Y-42323360D01*
X237115465Y-42249136D01*
X237115464Y-42249135D01*
X237115463Y-42249133D01*
X237054864Y-42188534D01*
X236980639Y-42145680D01*
X236980635Y-42145679D01*
X236897855Y-42123498D01*
X236897853Y-42123498D01*
X236812147Y-42123498D01*
X236812144Y-42123498D01*
X236729364Y-42145679D01*
X236729360Y-42145680D01*
X236655135Y-42188534D01*
X236594536Y-42249133D01*
X236551682Y-42323358D01*
X236551681Y-42323362D01*
X236529500Y-42406142D01*
X230927685Y-42406142D01*
X230892463Y-42345135D01*
X230831864Y-42284536D01*
X230757639Y-42241682D01*
X230757635Y-42241681D01*
X230674855Y-42219500D01*
X230674853Y-42219500D01*
X230589147Y-42219500D01*
X230589144Y-42219500D01*
X230506364Y-42241681D01*
X230506360Y-42241682D01*
X230432135Y-42284536D01*
X230371536Y-42345135D01*
X230328682Y-42419360D01*
X230328681Y-42419364D01*
X230306500Y-42502144D01*
X228401378Y-42502144D01*
X228471638Y-42483318D01*
X228545862Y-42440465D01*
X228606465Y-42379862D01*
X228649318Y-42305638D01*
X228671500Y-42222853D01*
X228671500Y-42137147D01*
X228649318Y-42054362D01*
X228606465Y-41980138D01*
X228606464Y-41980137D01*
X228606463Y-41980135D01*
X228545864Y-41919536D01*
X228471639Y-41876682D01*
X228471635Y-41876681D01*
X228388855Y-41854500D01*
X228388853Y-41854500D01*
X228303147Y-41854500D01*
X228303144Y-41854500D01*
X228220364Y-41876681D01*
X228220360Y-41876682D01*
X228146135Y-41919536D01*
X228085536Y-41980135D01*
X228042682Y-42054360D01*
X228042681Y-42054364D01*
X228020500Y-42137144D01*
X203400500Y-42137144D01*
X203400500Y-41613144D01*
X220019500Y-41613144D01*
X220019500Y-41698855D01*
X220041681Y-41781635D01*
X220041682Y-41781639D01*
X220084536Y-41855864D01*
X220145135Y-41916463D01*
X220145137Y-41916464D01*
X220145138Y-41916465D01*
X220219362Y-41959318D01*
X220302147Y-41981500D01*
X220302149Y-41981500D01*
X220387851Y-41981500D01*
X220387853Y-41981500D01*
X220470638Y-41959318D01*
X220544862Y-41916465D01*
X220605465Y-41855862D01*
X220648318Y-41781638D01*
X220655150Y-41756141D01*
X232338500Y-41756141D01*
X232338500Y-41841852D01*
X232360681Y-41924632D01*
X232360682Y-41924636D01*
X232403536Y-41998861D01*
X232464135Y-42059460D01*
X232464137Y-42059461D01*
X232464138Y-42059462D01*
X232538362Y-42102315D01*
X232621147Y-42124497D01*
X232621149Y-42124497D01*
X232706851Y-42124497D01*
X232706853Y-42124497D01*
X232789638Y-42102315D01*
X232863862Y-42059462D01*
X232924465Y-41998859D01*
X232967318Y-41924635D01*
X232989500Y-41841850D01*
X232989500Y-41756144D01*
X232967318Y-41673359D01*
X232924465Y-41599135D01*
X232924464Y-41599134D01*
X232924463Y-41599132D01*
X232863864Y-41538533D01*
X232789639Y-41495679D01*
X232789635Y-41495678D01*
X232706855Y-41473497D01*
X232706853Y-41473497D01*
X232621147Y-41473497D01*
X232621144Y-41473497D01*
X232538364Y-41495678D01*
X232538360Y-41495679D01*
X232464135Y-41538533D01*
X232403536Y-41599132D01*
X232360682Y-41673357D01*
X232360681Y-41673361D01*
X232338500Y-41756141D01*
X220655150Y-41756141D01*
X220670500Y-41698853D01*
X220670500Y-41613147D01*
X220648318Y-41530362D01*
X220605465Y-41456138D01*
X220605464Y-41456137D01*
X220605463Y-41456135D01*
X220544864Y-41395536D01*
X220470639Y-41352682D01*
X220470635Y-41352681D01*
X220387855Y-41330500D01*
X220387853Y-41330500D01*
X220302147Y-41330500D01*
X220302144Y-41330500D01*
X220219364Y-41352681D01*
X220219360Y-41352682D01*
X220145135Y-41395536D01*
X220084536Y-41456135D01*
X220041682Y-41530360D01*
X220041681Y-41530364D01*
X220019500Y-41613144D01*
X203400500Y-41613144D01*
X203400500Y-40470144D01*
X228020500Y-40470144D01*
X228020500Y-40555855D01*
X228042681Y-40638635D01*
X228042682Y-40638639D01*
X228085536Y-40712864D01*
X228146135Y-40773463D01*
X228146137Y-40773464D01*
X228146138Y-40773465D01*
X228220362Y-40816318D01*
X228303147Y-40838500D01*
X228303149Y-40838500D01*
X228388851Y-40838500D01*
X228388853Y-40838500D01*
X228471638Y-40816318D01*
X228545862Y-40773465D01*
X228606465Y-40712862D01*
X228649318Y-40638638D01*
X228671500Y-40555853D01*
X228671500Y-40470147D01*
X228667747Y-40456141D01*
X234751500Y-40456141D01*
X234751500Y-40541852D01*
X234773681Y-40624632D01*
X234773682Y-40624636D01*
X234816536Y-40698861D01*
X234877135Y-40759460D01*
X234877137Y-40759461D01*
X234877138Y-40759462D01*
X234951362Y-40802315D01*
X235034147Y-40824497D01*
X235034149Y-40824497D01*
X235119851Y-40824497D01*
X235119853Y-40824497D01*
X235150131Y-40816384D01*
X250128500Y-40816384D01*
X250128500Y-41003615D01*
X250165026Y-41187251D01*
X250165027Y-41187253D01*
X250236675Y-41360225D01*
X250236678Y-41360231D01*
X250340696Y-41515906D01*
X250340702Y-41515913D01*
X250473086Y-41648297D01*
X250473092Y-41648302D01*
X250628769Y-41752322D01*
X250628774Y-41752324D01*
X250801746Y-41823972D01*
X250801748Y-41823973D01*
X250985384Y-41860500D01*
X251172616Y-41860500D01*
X251356251Y-41823973D01*
X251356253Y-41823972D01*
X251529231Y-41752322D01*
X251684908Y-41648302D01*
X251817302Y-41515908D01*
X251921322Y-41360231D01*
X251992973Y-41187251D01*
X252029500Y-41003616D01*
X252029500Y-40816384D01*
X252008908Y-40712862D01*
X251992973Y-40632748D01*
X251992972Y-40632746D01*
X251921324Y-40459774D01*
X251921321Y-40459768D01*
X251817303Y-40304093D01*
X251817297Y-40304086D01*
X251684913Y-40171702D01*
X251684906Y-40171696D01*
X251529231Y-40067678D01*
X251529225Y-40067675D01*
X251356253Y-39996027D01*
X251356251Y-39996026D01*
X251172616Y-39959500D01*
X250985384Y-39959500D01*
X250801748Y-39996026D01*
X250801746Y-39996027D01*
X250628774Y-40067675D01*
X250628768Y-40067678D01*
X250473093Y-40171696D01*
X250473086Y-40171702D01*
X250340702Y-40304086D01*
X250340696Y-40304093D01*
X250236678Y-40459768D01*
X250236675Y-40459774D01*
X250165027Y-40632746D01*
X250165026Y-40632748D01*
X250128500Y-40816384D01*
X235150131Y-40816384D01*
X235202638Y-40802315D01*
X235276862Y-40759462D01*
X235276864Y-40759460D01*
X235279683Y-40756642D01*
X235337463Y-40698861D01*
X235337465Y-40698859D01*
X235380318Y-40624635D01*
X235402500Y-40541850D01*
X235402500Y-40456144D01*
X235380318Y-40373359D01*
X235337465Y-40299135D01*
X235337464Y-40299134D01*
X235337463Y-40299132D01*
X235276864Y-40238533D01*
X235202639Y-40195679D01*
X235202635Y-40195678D01*
X235119855Y-40173497D01*
X235119853Y-40173497D01*
X235034147Y-40173497D01*
X235034144Y-40173497D01*
X234951364Y-40195678D01*
X234951360Y-40195679D01*
X234877135Y-40238533D01*
X234816536Y-40299132D01*
X234773682Y-40373357D01*
X234773681Y-40373361D01*
X234751500Y-40456141D01*
X228667747Y-40456141D01*
X228649318Y-40387362D01*
X228606465Y-40313138D01*
X228606464Y-40313137D01*
X228606463Y-40313135D01*
X228545864Y-40252536D01*
X228471639Y-40209682D01*
X228471635Y-40209681D01*
X228388855Y-40187500D01*
X228388853Y-40187500D01*
X228303147Y-40187500D01*
X228303144Y-40187500D01*
X228220364Y-40209681D01*
X228220360Y-40209682D01*
X228146135Y-40252536D01*
X228085536Y-40313135D01*
X228042682Y-40387360D01*
X228042681Y-40387364D01*
X228020500Y-40470144D01*
X203400500Y-40470144D01*
X203400500Y-39581144D01*
X219003500Y-39581144D01*
X219003500Y-39666855D01*
X219025681Y-39749635D01*
X219025682Y-39749639D01*
X219068536Y-39823864D01*
X219129135Y-39884463D01*
X219129137Y-39884464D01*
X219129138Y-39884465D01*
X219203362Y-39927318D01*
X219286147Y-39949500D01*
X219286149Y-39949500D01*
X219371851Y-39949500D01*
X219371853Y-39949500D01*
X219454638Y-39927318D01*
X219528862Y-39884465D01*
X219589465Y-39823862D01*
X219632318Y-39749638D01*
X219654500Y-39666853D01*
X219654500Y-39581147D01*
X219654499Y-39581144D01*
X221035500Y-39581144D01*
X221035500Y-39666855D01*
X221057681Y-39749635D01*
X221057682Y-39749639D01*
X221100536Y-39823864D01*
X221161135Y-39884463D01*
X221161137Y-39884464D01*
X221161138Y-39884465D01*
X221235362Y-39927318D01*
X221318147Y-39949500D01*
X221318149Y-39949500D01*
X221403851Y-39949500D01*
X221403853Y-39949500D01*
X221486638Y-39927318D01*
X221560862Y-39884465D01*
X221621465Y-39823862D01*
X221664318Y-39749638D01*
X221686500Y-39666853D01*
X221686500Y-39581147D01*
X221664318Y-39498362D01*
X221621465Y-39424138D01*
X221621464Y-39424137D01*
X221621463Y-39424135D01*
X221560864Y-39363536D01*
X221497831Y-39327144D01*
X234751500Y-39327144D01*
X234751500Y-39412855D01*
X234773681Y-39495635D01*
X234773682Y-39495639D01*
X234816536Y-39569864D01*
X234877135Y-39630463D01*
X234877137Y-39630464D01*
X234877138Y-39630465D01*
X234951362Y-39673318D01*
X235034147Y-39695500D01*
X235034149Y-39695500D01*
X235119851Y-39695500D01*
X235119853Y-39695500D01*
X235202638Y-39673318D01*
X235276862Y-39630465D01*
X235337465Y-39569862D01*
X235380318Y-39495638D01*
X235402500Y-39412853D01*
X235402500Y-39327147D01*
X235380318Y-39244362D01*
X235337465Y-39170138D01*
X235337464Y-39170137D01*
X235337463Y-39170135D01*
X235276864Y-39109536D01*
X235202639Y-39066682D01*
X235202635Y-39066681D01*
X235119855Y-39044500D01*
X235119853Y-39044500D01*
X235034147Y-39044500D01*
X235034144Y-39044500D01*
X234951364Y-39066681D01*
X234951360Y-39066682D01*
X234877135Y-39109536D01*
X234816536Y-39170135D01*
X234773682Y-39244360D01*
X234773681Y-39244364D01*
X234751500Y-39327144D01*
X221497831Y-39327144D01*
X221486639Y-39320682D01*
X221486635Y-39320681D01*
X221403855Y-39298500D01*
X221403853Y-39298500D01*
X221318147Y-39298500D01*
X221318144Y-39298500D01*
X221235364Y-39320681D01*
X221235360Y-39320682D01*
X221161135Y-39363536D01*
X221100536Y-39424135D01*
X221057682Y-39498360D01*
X221057681Y-39498364D01*
X221035500Y-39581144D01*
X219654499Y-39581144D01*
X219632318Y-39498362D01*
X219589465Y-39424138D01*
X219589464Y-39424137D01*
X219589463Y-39424135D01*
X219528864Y-39363536D01*
X219454639Y-39320682D01*
X219454635Y-39320681D01*
X219371855Y-39298500D01*
X219371853Y-39298500D01*
X219286147Y-39298500D01*
X219286144Y-39298500D01*
X219203364Y-39320681D01*
X219203360Y-39320682D01*
X219129135Y-39363536D01*
X219068536Y-39424135D01*
X219025682Y-39498360D01*
X219025681Y-39498364D01*
X219003500Y-39581144D01*
X203400500Y-39581144D01*
X203400500Y-38438144D01*
X214939500Y-38438144D01*
X214939500Y-38523855D01*
X214961681Y-38606635D01*
X214961682Y-38606639D01*
X215004536Y-38680864D01*
X215065135Y-38741463D01*
X215065137Y-38741464D01*
X215065138Y-38741465D01*
X215139362Y-38784318D01*
X215222147Y-38806500D01*
X215222149Y-38806500D01*
X215307851Y-38806500D01*
X215307853Y-38806500D01*
X215390638Y-38784318D01*
X215464862Y-38741465D01*
X215525465Y-38680862D01*
X215568318Y-38606638D01*
X215590500Y-38523853D01*
X215590500Y-38438147D01*
X215568318Y-38355362D01*
X215525465Y-38281138D01*
X215525464Y-38281137D01*
X215525463Y-38281135D01*
X215464864Y-38220536D01*
X215390639Y-38177682D01*
X215390635Y-38177681D01*
X215307855Y-38155500D01*
X215307853Y-38155500D01*
X215222147Y-38155500D01*
X215222144Y-38155500D01*
X215139364Y-38177681D01*
X215139360Y-38177682D01*
X215065135Y-38220536D01*
X215004536Y-38281135D01*
X214961682Y-38355360D01*
X214961681Y-38355364D01*
X214939500Y-38438144D01*
X203400500Y-38438144D01*
X203400500Y-38057144D01*
X226115500Y-38057144D01*
X226115500Y-38142855D01*
X226137681Y-38225635D01*
X226137682Y-38225639D01*
X226180536Y-38299864D01*
X226241135Y-38360463D01*
X226241137Y-38360464D01*
X226241138Y-38360465D01*
X226315362Y-38403318D01*
X226398147Y-38425500D01*
X226398149Y-38425500D01*
X226483851Y-38425500D01*
X226483853Y-38425500D01*
X226566638Y-38403318D01*
X226640862Y-38360465D01*
X226701465Y-38299862D01*
X226744318Y-38225638D01*
X226755436Y-38184144D01*
X231322500Y-38184144D01*
X231322500Y-38269855D01*
X231344681Y-38352635D01*
X231344682Y-38352639D01*
X231387536Y-38426864D01*
X231448135Y-38487463D01*
X231448137Y-38487464D01*
X231448138Y-38487465D01*
X231522362Y-38530318D01*
X231605147Y-38552500D01*
X231605149Y-38552500D01*
X231690851Y-38552500D01*
X231690853Y-38552500D01*
X231773638Y-38530318D01*
X231847862Y-38487465D01*
X231908465Y-38426862D01*
X231951318Y-38352638D01*
X231973500Y-38269853D01*
X231973500Y-38184147D01*
X231951318Y-38101362D01*
X231908465Y-38027138D01*
X231908464Y-38027137D01*
X231908463Y-38027135D01*
X231847864Y-37966536D01*
X231773639Y-37923682D01*
X231773635Y-37923681D01*
X231690855Y-37901500D01*
X231690853Y-37901500D01*
X231605147Y-37901500D01*
X231605144Y-37901500D01*
X231522364Y-37923681D01*
X231522360Y-37923682D01*
X231448135Y-37966536D01*
X231387536Y-38027135D01*
X231344682Y-38101360D01*
X231344681Y-38101364D01*
X231322500Y-38184144D01*
X226755436Y-38184144D01*
X226766500Y-38142853D01*
X226766500Y-38057147D01*
X226744318Y-37974362D01*
X226701465Y-37900138D01*
X226701464Y-37900137D01*
X226701463Y-37900135D01*
X226640864Y-37839536D01*
X226605544Y-37819144D01*
X232846500Y-37819144D01*
X232846500Y-37904855D01*
X232868681Y-37987635D01*
X232868682Y-37987639D01*
X232911536Y-38061864D01*
X232972135Y-38122463D01*
X233034592Y-38158523D01*
X233046362Y-38165318D01*
X233129147Y-38187500D01*
X233129149Y-38187500D01*
X233214851Y-38187500D01*
X233214853Y-38187500D01*
X233297638Y-38165318D01*
X233371862Y-38122465D01*
X233432465Y-38061862D01*
X233475318Y-37987638D01*
X233497500Y-37904853D01*
X233497500Y-37819147D01*
X233475318Y-37736362D01*
X233432465Y-37662138D01*
X233432464Y-37662137D01*
X233432463Y-37662135D01*
X233371864Y-37601536D01*
X233325271Y-37574636D01*
X233297639Y-37558682D01*
X233297635Y-37558681D01*
X233214855Y-37536500D01*
X233214853Y-37536500D01*
X233129147Y-37536500D01*
X233129144Y-37536500D01*
X233046364Y-37558681D01*
X233046360Y-37558682D01*
X232972135Y-37601536D01*
X232911536Y-37662135D01*
X232868682Y-37736360D01*
X232868681Y-37736364D01*
X232846500Y-37819144D01*
X226605544Y-37819144D01*
X226566639Y-37796682D01*
X226566635Y-37796681D01*
X226483855Y-37774500D01*
X226483853Y-37774500D01*
X226398147Y-37774500D01*
X226398144Y-37774500D01*
X226315364Y-37796681D01*
X226315360Y-37796682D01*
X226241135Y-37839536D01*
X226180536Y-37900135D01*
X226137682Y-37974360D01*
X226137681Y-37974364D01*
X226115500Y-38057144D01*
X203400500Y-38057144D01*
X203400500Y-37510101D01*
X250128500Y-37510101D01*
X250128500Y-39229895D01*
X250131378Y-39244364D01*
X250134331Y-39259213D01*
X250156543Y-39292457D01*
X250189787Y-39314669D01*
X250219101Y-39320500D01*
X251938898Y-39320499D01*
X251968213Y-39314669D01*
X252001457Y-39292457D01*
X252023669Y-39259213D01*
X252029500Y-39229899D01*
X252029499Y-37510102D01*
X252023669Y-37480787D01*
X252001457Y-37447543D01*
X251968213Y-37425331D01*
X251968211Y-37425330D01*
X251946176Y-37420947D01*
X251938899Y-37419500D01*
X251938898Y-37419500D01*
X250219104Y-37419500D01*
X250189786Y-37425331D01*
X250156543Y-37447542D01*
X250134331Y-37480786D01*
X250134330Y-37480788D01*
X250128500Y-37510101D01*
X203400500Y-37510101D01*
X203400500Y-34446101D01*
X205424500Y-34446101D01*
X205424500Y-36165895D01*
X205424501Y-36165898D01*
X205430331Y-36195213D01*
X205452543Y-36228457D01*
X205485787Y-36250669D01*
X205515101Y-36256500D01*
X207234898Y-36256499D01*
X207264213Y-36250669D01*
X207297457Y-36228457D01*
X207319669Y-36195213D01*
X207325500Y-36165899D01*
X207325499Y-35355384D01*
X234126500Y-35355384D01*
X234126500Y-35542615D01*
X234163026Y-35726251D01*
X234163027Y-35726253D01*
X234234675Y-35899225D01*
X234234678Y-35899231D01*
X234338696Y-36054906D01*
X234338702Y-36054913D01*
X234471086Y-36187297D01*
X234471093Y-36187303D01*
X234532683Y-36228456D01*
X234626769Y-36291322D01*
X234626774Y-36291324D01*
X234799746Y-36362972D01*
X234799748Y-36362973D01*
X234983384Y-36399500D01*
X235170616Y-36399500D01*
X235354251Y-36362973D01*
X235354253Y-36362972D01*
X235393211Y-36346835D01*
X235527231Y-36291322D01*
X235682908Y-36187302D01*
X235815302Y-36054908D01*
X235919322Y-35899231D01*
X235990973Y-35726251D01*
X236027500Y-35542616D01*
X236027500Y-35355384D01*
X236666500Y-35355384D01*
X236666500Y-35542615D01*
X236703026Y-35726251D01*
X236703027Y-35726253D01*
X236774675Y-35899225D01*
X236774678Y-35899231D01*
X236878696Y-36054906D01*
X236878702Y-36054913D01*
X237011086Y-36187297D01*
X237011093Y-36187303D01*
X237072683Y-36228456D01*
X237166769Y-36291322D01*
X237166774Y-36291324D01*
X237339746Y-36362972D01*
X237339748Y-36362973D01*
X237523384Y-36399500D01*
X237710616Y-36399500D01*
X237894251Y-36362973D01*
X237894253Y-36362972D01*
X237933211Y-36346835D01*
X238067231Y-36291322D01*
X238222908Y-36187302D01*
X238355302Y-36054908D01*
X238459322Y-35899231D01*
X238530973Y-35726251D01*
X238567500Y-35542616D01*
X238567500Y-35355384D01*
X239206500Y-35355384D01*
X239206500Y-35542615D01*
X239243026Y-35726251D01*
X239243027Y-35726253D01*
X239314675Y-35899225D01*
X239314678Y-35899231D01*
X239418696Y-36054906D01*
X239418702Y-36054913D01*
X239551086Y-36187297D01*
X239551093Y-36187303D01*
X239612683Y-36228456D01*
X239706769Y-36291322D01*
X239706774Y-36291324D01*
X239879746Y-36362972D01*
X239879748Y-36362973D01*
X240063384Y-36399500D01*
X240250616Y-36399500D01*
X240434251Y-36362973D01*
X240434253Y-36362972D01*
X240473211Y-36346835D01*
X240607231Y-36291322D01*
X240762908Y-36187302D01*
X240895302Y-36054908D01*
X240999322Y-35899231D01*
X241070973Y-35726251D01*
X241107500Y-35542616D01*
X241107500Y-35355384D01*
X241746500Y-35355384D01*
X241746500Y-35542615D01*
X241783026Y-35726251D01*
X241783027Y-35726253D01*
X241854675Y-35899225D01*
X241854678Y-35899231D01*
X241958696Y-36054906D01*
X241958702Y-36054913D01*
X242091086Y-36187297D01*
X242091093Y-36187303D01*
X242152683Y-36228456D01*
X242246769Y-36291322D01*
X242246774Y-36291324D01*
X242419746Y-36362972D01*
X242419748Y-36362973D01*
X242603384Y-36399500D01*
X242790616Y-36399500D01*
X242974251Y-36362973D01*
X242974253Y-36362972D01*
X243013211Y-36346835D01*
X243147231Y-36291322D01*
X243302908Y-36187302D01*
X243435302Y-36054908D01*
X243539322Y-35899231D01*
X243610973Y-35726251D01*
X243647500Y-35542616D01*
X243647500Y-35355384D01*
X243610973Y-35171749D01*
X243539322Y-34998769D01*
X243435302Y-34843092D01*
X243435297Y-34843086D01*
X243302913Y-34710702D01*
X243302906Y-34710696D01*
X243215261Y-34652134D01*
X243147231Y-34606678D01*
X243147227Y-34606676D01*
X243147225Y-34606675D01*
X243013211Y-34551164D01*
X243887000Y-34551164D01*
X243887000Y-35199000D01*
X244803988Y-35199000D01*
X244771075Y-35256007D01*
X244737000Y-35383174D01*
X244737000Y-35514826D01*
X244771075Y-35641993D01*
X244803988Y-35699000D01*
X243887000Y-35699000D01*
X243887000Y-36346835D01*
X243893401Y-36406369D01*
X243893403Y-36406381D01*
X243943643Y-36541083D01*
X243943650Y-36541094D01*
X244029810Y-36656189D01*
X244144905Y-36742349D01*
X244144916Y-36742356D01*
X244279618Y-36792596D01*
X244279630Y-36792598D01*
X244339165Y-36799000D01*
X244987000Y-36799000D01*
X244987000Y-35882012D01*
X245044007Y-35914925D01*
X245171174Y-35949000D01*
X245302826Y-35949000D01*
X245429993Y-35914925D01*
X245487000Y-35882012D01*
X245487000Y-36799000D01*
X246134835Y-36799000D01*
X246194369Y-36792598D01*
X246194381Y-36792596D01*
X246329083Y-36742356D01*
X246329094Y-36742349D01*
X246444189Y-36656189D01*
X246530349Y-36541094D01*
X246530356Y-36541083D01*
X246580596Y-36406381D01*
X246580598Y-36406369D01*
X246587000Y-36346835D01*
X246587000Y-35699000D01*
X245670012Y-35699000D01*
X245702925Y-35641993D01*
X245737000Y-35514826D01*
X245737000Y-35383174D01*
X245702925Y-35256007D01*
X245670012Y-35199000D01*
X246587000Y-35199000D01*
X246587000Y-34551164D01*
X246580598Y-34491630D01*
X246580596Y-34491618D01*
X246530356Y-34356916D01*
X246530349Y-34356905D01*
X246444189Y-34241810D01*
X246329094Y-34155650D01*
X246329083Y-34155643D01*
X246194381Y-34105403D01*
X246194369Y-34105401D01*
X246134835Y-34099000D01*
X245487000Y-34099000D01*
X245487000Y-35015988D01*
X245429993Y-34983075D01*
X245302826Y-34949000D01*
X245171174Y-34949000D01*
X245044007Y-34983075D01*
X244987000Y-35015988D01*
X244987000Y-34099000D01*
X244339165Y-34099000D01*
X244279630Y-34105401D01*
X244279618Y-34105403D01*
X244144916Y-34155643D01*
X244144905Y-34155650D01*
X244029810Y-34241810D01*
X243943650Y-34356905D01*
X243943643Y-34356916D01*
X243893403Y-34491618D01*
X243893401Y-34491630D01*
X243887000Y-34551164D01*
X243013211Y-34551164D01*
X242974253Y-34535027D01*
X242974251Y-34535026D01*
X242790616Y-34498500D01*
X242603384Y-34498500D01*
X242419748Y-34535026D01*
X242419746Y-34535027D01*
X242246774Y-34606675D01*
X242246768Y-34606678D01*
X242091093Y-34710696D01*
X242091086Y-34710702D01*
X241958702Y-34843086D01*
X241958696Y-34843093D01*
X241854678Y-34998768D01*
X241854675Y-34998774D01*
X241783027Y-35171746D01*
X241783026Y-35171748D01*
X241746500Y-35355384D01*
X241107500Y-35355384D01*
X241070973Y-35171749D01*
X240999322Y-34998769D01*
X240895302Y-34843092D01*
X240895297Y-34843086D01*
X240762913Y-34710702D01*
X240762906Y-34710696D01*
X240607231Y-34606678D01*
X240607225Y-34606675D01*
X240434253Y-34535027D01*
X240434251Y-34535026D01*
X240250616Y-34498500D01*
X240063384Y-34498500D01*
X239879748Y-34535026D01*
X239879746Y-34535027D01*
X239706774Y-34606675D01*
X239706768Y-34606678D01*
X239551093Y-34710696D01*
X239551086Y-34710702D01*
X239418702Y-34843086D01*
X239418696Y-34843093D01*
X239314678Y-34998768D01*
X239314675Y-34998774D01*
X239243027Y-35171746D01*
X239243026Y-35171748D01*
X239206500Y-35355384D01*
X238567500Y-35355384D01*
X238530973Y-35171749D01*
X238459322Y-34998769D01*
X238355302Y-34843092D01*
X238355297Y-34843086D01*
X238222913Y-34710702D01*
X238222906Y-34710696D01*
X238067231Y-34606678D01*
X238067225Y-34606675D01*
X237894253Y-34535027D01*
X237894251Y-34535026D01*
X237710616Y-34498500D01*
X237523384Y-34498500D01*
X237339748Y-34535026D01*
X237339746Y-34535027D01*
X237166774Y-34606675D01*
X237166768Y-34606678D01*
X237011093Y-34710696D01*
X237011086Y-34710702D01*
X236878702Y-34843086D01*
X236878696Y-34843093D01*
X236774678Y-34998768D01*
X236774675Y-34998774D01*
X236703027Y-35171746D01*
X236703026Y-35171748D01*
X236666500Y-35355384D01*
X236027500Y-35355384D01*
X235990973Y-35171749D01*
X235919322Y-34998769D01*
X235815302Y-34843092D01*
X235815297Y-34843086D01*
X235682913Y-34710702D01*
X235682906Y-34710696D01*
X235527231Y-34606678D01*
X235527225Y-34606675D01*
X235354253Y-34535027D01*
X235354251Y-34535026D01*
X235170616Y-34498500D01*
X234983384Y-34498500D01*
X234799748Y-34535026D01*
X234799746Y-34535027D01*
X234626774Y-34606675D01*
X234626768Y-34606678D01*
X234471093Y-34710696D01*
X234471086Y-34710702D01*
X234338702Y-34843086D01*
X234338696Y-34843093D01*
X234234678Y-34998768D01*
X234234675Y-34998774D01*
X234163027Y-35171746D01*
X234163026Y-35171748D01*
X234126500Y-35355384D01*
X207325499Y-35355384D01*
X207325499Y-35256007D01*
X207325499Y-34446104D01*
X207325499Y-34446102D01*
X207319669Y-34416787D01*
X207297457Y-34383543D01*
X207264213Y-34361331D01*
X207264211Y-34361330D01*
X207241962Y-34356905D01*
X207234899Y-34355500D01*
X207234898Y-34355500D01*
X205515104Y-34355500D01*
X205485786Y-34361331D01*
X205452543Y-34383542D01*
X205430331Y-34416786D01*
X205430330Y-34416788D01*
X205424500Y-34446101D01*
X203400500Y-34446101D01*
X203400500Y-32659757D01*
X205025000Y-32659757D01*
X205025000Y-32872242D01*
X205025001Y-32872258D01*
X205058239Y-33082115D01*
X205058245Y-33082138D01*
X205123903Y-33284214D01*
X205123910Y-33284230D01*
X205220377Y-33473554D01*
X205259729Y-33527717D01*
X205892037Y-32895409D01*
X205909075Y-32958993D01*
X205974901Y-33073007D01*
X206067993Y-33166099D01*
X206182007Y-33231925D01*
X206245589Y-33248962D01*
X205613281Y-33881269D01*
X205667445Y-33920622D01*
X205856769Y-34017089D01*
X205856785Y-34017096D01*
X206058861Y-34082754D01*
X206058884Y-34082760D01*
X206268741Y-34115998D01*
X206268758Y-34116000D01*
X206481242Y-34116000D01*
X206481258Y-34115998D01*
X206691115Y-34082760D01*
X206691138Y-34082754D01*
X206893214Y-34017096D01*
X206893230Y-34017089D01*
X207082547Y-33920625D01*
X207082557Y-33920620D01*
X207136717Y-33881269D01*
X206504410Y-33248962D01*
X206567993Y-33231925D01*
X206682007Y-33166099D01*
X206775099Y-33073007D01*
X206840925Y-32958993D01*
X206857962Y-32895410D01*
X207490269Y-33527717D01*
X207529620Y-33473557D01*
X207529625Y-33473547D01*
X207626089Y-33284230D01*
X207626096Y-33284214D01*
X207691754Y-33082138D01*
X207691760Y-33082115D01*
X207724998Y-32872258D01*
X207725000Y-32872242D01*
X207725000Y-32659757D01*
X207724998Y-32659741D01*
X207691760Y-32449884D01*
X207691754Y-32449861D01*
X207626096Y-32247785D01*
X207626089Y-32247769D01*
X207529622Y-32058445D01*
X207490269Y-32004281D01*
X206857962Y-32636588D01*
X206840925Y-32573007D01*
X206775099Y-32458993D01*
X206682007Y-32365901D01*
X206567993Y-32300075D01*
X206504409Y-32283037D01*
X207136717Y-31650729D01*
X207082554Y-31611377D01*
X206893230Y-31514910D01*
X206893214Y-31514903D01*
X206691138Y-31449245D01*
X206691115Y-31449239D01*
X206481258Y-31416001D01*
X206481242Y-31416000D01*
X206268758Y-31416000D01*
X206268741Y-31416001D01*
X206058884Y-31449239D01*
X206058861Y-31449245D01*
X205856785Y-31514903D01*
X205856769Y-31514910D01*
X205667446Y-31611376D01*
X205613281Y-31650729D01*
X206245590Y-32283037D01*
X206182007Y-32300075D01*
X206067993Y-32365901D01*
X205974901Y-32458993D01*
X205909075Y-32573007D01*
X205892037Y-32636589D01*
X205259729Y-32004281D01*
X205220376Y-32058446D01*
X205123910Y-32247769D01*
X205123903Y-32247785D01*
X205058245Y-32449861D01*
X205058239Y-32449884D01*
X205025001Y-32659741D01*
X205025000Y-32659757D01*
X203400500Y-32659757D01*
X203400500Y-30132384D01*
X205424500Y-30132384D01*
X205424500Y-30319615D01*
X205461026Y-30503251D01*
X205461027Y-30503253D01*
X205532675Y-30676225D01*
X205532678Y-30676231D01*
X205636696Y-30831906D01*
X205636702Y-30831913D01*
X205769086Y-30964297D01*
X205769092Y-30964302D01*
X205924769Y-31068322D01*
X205924774Y-31068324D01*
X206097746Y-31139972D01*
X206097748Y-31139973D01*
X206281384Y-31176500D01*
X206468616Y-31176500D01*
X206652251Y-31139973D01*
X206652253Y-31139972D01*
X206825231Y-31068322D01*
X206980908Y-30964302D01*
X207113302Y-30831908D01*
X207217322Y-30676231D01*
X207288973Y-30503251D01*
X207325500Y-30319616D01*
X207325500Y-30132384D01*
X207288973Y-29948749D01*
X207280854Y-29929149D01*
X207280852Y-29929144D01*
X222432500Y-29929144D01*
X222432500Y-30014855D01*
X222454681Y-30097635D01*
X222454682Y-30097639D01*
X222497536Y-30171864D01*
X222558135Y-30232463D01*
X222558137Y-30232464D01*
X222558138Y-30232465D01*
X222632362Y-30275318D01*
X222715147Y-30297500D01*
X222715149Y-30297500D01*
X222800851Y-30297500D01*
X222800853Y-30297500D01*
X222883638Y-30275318D01*
X222957862Y-30232465D01*
X223018465Y-30171862D01*
X223061318Y-30097638D01*
X223083500Y-30014853D01*
X223083500Y-29929147D01*
X223061318Y-29846362D01*
X223018465Y-29772138D01*
X223018464Y-29772137D01*
X223018463Y-29772135D01*
X222957864Y-29711536D01*
X222894831Y-29675144D01*
X229925500Y-29675144D01*
X229925500Y-29760855D01*
X229947681Y-29843635D01*
X229947682Y-29843639D01*
X229990536Y-29917864D01*
X230051135Y-29978463D01*
X230051137Y-29978464D01*
X230051138Y-29978465D01*
X230125362Y-30021318D01*
X230208147Y-30043500D01*
X230208149Y-30043500D01*
X230293851Y-30043500D01*
X230293853Y-30043500D01*
X230376638Y-30021318D01*
X230450862Y-29978465D01*
X230511465Y-29917862D01*
X230554318Y-29843638D01*
X230576500Y-29760853D01*
X230576500Y-29675147D01*
X230554318Y-29592362D01*
X230511465Y-29518138D01*
X230511464Y-29518137D01*
X230511463Y-29518135D01*
X230450864Y-29457536D01*
X230376639Y-29414682D01*
X230376635Y-29414681D01*
X230293855Y-29392500D01*
X230293853Y-29392500D01*
X230208147Y-29392500D01*
X230208144Y-29392500D01*
X230125364Y-29414681D01*
X230125360Y-29414682D01*
X230051135Y-29457536D01*
X229990536Y-29518135D01*
X229947682Y-29592360D01*
X229947681Y-29592364D01*
X229925500Y-29675144D01*
X222894831Y-29675144D01*
X222883639Y-29668682D01*
X222883635Y-29668681D01*
X222800855Y-29646500D01*
X222800853Y-29646500D01*
X222715147Y-29646500D01*
X222715144Y-29646500D01*
X222632364Y-29668681D01*
X222632360Y-29668682D01*
X222558135Y-29711536D01*
X222497536Y-29772135D01*
X222454682Y-29846360D01*
X222454681Y-29846364D01*
X222432500Y-29929144D01*
X207280852Y-29929144D01*
X207217324Y-29775774D01*
X207217321Y-29775768D01*
X207113303Y-29620093D01*
X207113297Y-29620086D01*
X206980913Y-29487702D01*
X206980906Y-29487696D01*
X206825231Y-29383678D01*
X206825225Y-29383675D01*
X206652253Y-29312027D01*
X206652251Y-29312026D01*
X206468616Y-29275500D01*
X206281384Y-29275500D01*
X206097748Y-29312026D01*
X206097746Y-29312027D01*
X205924774Y-29383675D01*
X205924768Y-29383678D01*
X205769093Y-29487696D01*
X205769086Y-29487702D01*
X205636702Y-29620086D01*
X205636696Y-29620093D01*
X205532678Y-29775768D01*
X205532675Y-29775774D01*
X205461027Y-29948746D01*
X205461026Y-29948748D01*
X205424500Y-30132384D01*
X203400500Y-30132384D01*
X203400500Y-26673444D01*
X203400801Y-26666559D01*
X203416145Y-26491170D01*
X203416146Y-26491169D01*
X203416145Y-26491164D01*
X203418534Y-26477614D01*
X203463212Y-26310875D01*
X203467916Y-26297951D01*
X203540867Y-26141508D01*
X203547747Y-26129592D01*
X203646756Y-25988192D01*
X203655597Y-25977656D01*
X203777656Y-25855597D01*
X203788192Y-25846756D01*
X203929592Y-25747747D01*
X203941508Y-25740867D01*
X204097951Y-25667916D01*
X204110875Y-25663212D01*
X204277614Y-25618534D01*
X204291163Y-25616146D01*
X204466297Y-25600822D01*
X204473136Y-25600523D01*
X252726555Y-25600500D01*
X252733440Y-25600801D01*
G37*
G04 #@! TD.AperFunction*
G04 #@! TD*
M02*
