G04 #@! TF.GenerationSoftware,KiCad,Pcbnew,9.0.1*
G04 #@! TF.CreationDate,2026-05-01T07:32:56-04:00*
G04 #@! TF.ProjectId,controller,636f6e74-726f-46c6-9c65-722e6b696361,rev?*
G04 #@! TF.SameCoordinates,Original*
G04 #@! TF.FileFunction,Legend,Bot*
G04 #@! TF.FilePolarity,Positive*
%FSLAX46Y46*%
G04 Gerber Fmt 4.6, Leading zero omitted, Abs format (unit mm)*
G04 Created by KiCad (PCBNEW 9.0.1) date 2026-05-01 07:32:56*
%MOMM*%
%LPD*%
G01*
G04 APERTURE LIST*
%ADD10C,0.150000*%
%ADD11C,0.120000*%
%ADD12R,1.700000X1.700000*%
%ADD13C,1.700000*%
G04 APERTURE END LIST*
D10*
X208545940Y-38554819D02*
X208545940Y-37554819D01*
X208545940Y-37554819D02*
X208164988Y-37554819D01*
X208164988Y-37554819D02*
X208069750Y-37602438D01*
X208069750Y-37602438D02*
X208022131Y-37650057D01*
X208022131Y-37650057D02*
X207974512Y-37745295D01*
X207974512Y-37745295D02*
X207974512Y-37888152D01*
X207974512Y-37888152D02*
X208022131Y-37983390D01*
X208022131Y-37983390D02*
X208069750Y-38031009D01*
X208069750Y-38031009D02*
X208164988Y-38078628D01*
X208164988Y-38078628D02*
X208545940Y-38078628D01*
X207403083Y-38554819D02*
X207498321Y-38507200D01*
X207498321Y-38507200D02*
X207545940Y-38459580D01*
X207545940Y-38459580D02*
X207593559Y-38364342D01*
X207593559Y-38364342D02*
X207593559Y-38078628D01*
X207593559Y-38078628D02*
X207545940Y-37983390D01*
X207545940Y-37983390D02*
X207498321Y-37935771D01*
X207498321Y-37935771D02*
X207403083Y-37888152D01*
X207403083Y-37888152D02*
X207260226Y-37888152D01*
X207260226Y-37888152D02*
X207164988Y-37935771D01*
X207164988Y-37935771D02*
X207117369Y-37983390D01*
X207117369Y-37983390D02*
X207069750Y-38078628D01*
X207069750Y-38078628D02*
X207069750Y-38364342D01*
X207069750Y-38364342D02*
X207117369Y-38459580D01*
X207117369Y-38459580D02*
X207164988Y-38507200D01*
X207164988Y-38507200D02*
X207260226Y-38554819D01*
X207260226Y-38554819D02*
X207403083Y-38554819D01*
X206736416Y-37888152D02*
X206545940Y-38554819D01*
X206545940Y-38554819D02*
X206355464Y-38078628D01*
X206355464Y-38078628D02*
X206164988Y-38554819D01*
X206164988Y-38554819D02*
X205974512Y-37888152D01*
X205212607Y-38507200D02*
X205307845Y-38554819D01*
X205307845Y-38554819D02*
X205498321Y-38554819D01*
X205498321Y-38554819D02*
X205593559Y-38507200D01*
X205593559Y-38507200D02*
X205641178Y-38411961D01*
X205641178Y-38411961D02*
X205641178Y-38031009D01*
X205641178Y-38031009D02*
X205593559Y-37935771D01*
X205593559Y-37935771D02*
X205498321Y-37888152D01*
X205498321Y-37888152D02*
X205307845Y-37888152D01*
X205307845Y-37888152D02*
X205212607Y-37935771D01*
X205212607Y-37935771D02*
X205164988Y-38031009D01*
X205164988Y-38031009D02*
X205164988Y-38126247D01*
X205164988Y-38126247D02*
X205641178Y-38221485D01*
X204736416Y-38554819D02*
X204736416Y-37888152D01*
X204736416Y-38078628D02*
X204688797Y-37983390D01*
X204688797Y-37983390D02*
X204641178Y-37935771D01*
X204641178Y-37935771D02*
X204545940Y-37888152D01*
X204545940Y-37888152D02*
X204450702Y-37888152D01*
X209740143Y-55938009D02*
X209406810Y-55938009D01*
X209263953Y-56461819D02*
X209740143Y-56461819D01*
X209740143Y-56461819D02*
X209740143Y-55461819D01*
X209740143Y-55461819D02*
X209263953Y-55461819D01*
X208978238Y-55795152D02*
X208597286Y-55795152D01*
X208835381Y-55461819D02*
X208835381Y-56318961D01*
X208835381Y-56318961D02*
X208787762Y-56414200D01*
X208787762Y-56414200D02*
X208692524Y-56461819D01*
X208692524Y-56461819D02*
X208597286Y-56461819D01*
X208263952Y-56461819D02*
X208263952Y-55461819D01*
X207835381Y-56461819D02*
X207835381Y-55938009D01*
X207835381Y-55938009D02*
X207883000Y-55842771D01*
X207883000Y-55842771D02*
X207978238Y-55795152D01*
X207978238Y-55795152D02*
X208121095Y-55795152D01*
X208121095Y-55795152D02*
X208216333Y-55842771D01*
X208216333Y-55842771D02*
X208263952Y-55890390D01*
X206978238Y-56414200D02*
X207073476Y-56461819D01*
X207073476Y-56461819D02*
X207263952Y-56461819D01*
X207263952Y-56461819D02*
X207359190Y-56414200D01*
X207359190Y-56414200D02*
X207406809Y-56318961D01*
X207406809Y-56318961D02*
X207406809Y-55938009D01*
X207406809Y-55938009D02*
X207359190Y-55842771D01*
X207359190Y-55842771D02*
X207263952Y-55795152D01*
X207263952Y-55795152D02*
X207073476Y-55795152D01*
X207073476Y-55795152D02*
X206978238Y-55842771D01*
X206978238Y-55842771D02*
X206930619Y-55938009D01*
X206930619Y-55938009D02*
X206930619Y-56033247D01*
X206930619Y-56033247D02*
X207406809Y-56128485D01*
X206502047Y-56461819D02*
X206502047Y-55795152D01*
X206502047Y-55985628D02*
X206454428Y-55890390D01*
X206454428Y-55890390D02*
X206406809Y-55842771D01*
X206406809Y-55842771D02*
X206311571Y-55795152D01*
X206311571Y-55795152D02*
X206216333Y-55795152D01*
X205882999Y-55795152D02*
X205882999Y-56461819D01*
X205882999Y-55890390D02*
X205835380Y-55842771D01*
X205835380Y-55842771D02*
X205740142Y-55795152D01*
X205740142Y-55795152D02*
X205597285Y-55795152D01*
X205597285Y-55795152D02*
X205502047Y-55842771D01*
X205502047Y-55842771D02*
X205454428Y-55938009D01*
X205454428Y-55938009D02*
X205454428Y-56461819D01*
X204597285Y-56414200D02*
X204692523Y-56461819D01*
X204692523Y-56461819D02*
X204882999Y-56461819D01*
X204882999Y-56461819D02*
X204978237Y-56414200D01*
X204978237Y-56414200D02*
X205025856Y-56318961D01*
X205025856Y-56318961D02*
X205025856Y-55938009D01*
X205025856Y-55938009D02*
X204978237Y-55842771D01*
X204978237Y-55842771D02*
X204882999Y-55795152D01*
X204882999Y-55795152D02*
X204692523Y-55795152D01*
X204692523Y-55795152D02*
X204597285Y-55842771D01*
X204597285Y-55842771D02*
X204549666Y-55938009D01*
X204549666Y-55938009D02*
X204549666Y-56033247D01*
X204549666Y-56033247D02*
X205025856Y-56128485D01*
X204263951Y-55795152D02*
X203882999Y-55795152D01*
X204121094Y-55461819D02*
X204121094Y-56318961D01*
X204121094Y-56318961D02*
X204073475Y-56414200D01*
X204073475Y-56414200D02*
X203978237Y-56461819D01*
X203978237Y-56461819D02*
X203882999Y-56461819D01*
X253563095Y-59224200D02*
X253420238Y-59271819D01*
X253420238Y-59271819D02*
X253182143Y-59271819D01*
X253182143Y-59271819D02*
X253086905Y-59224200D01*
X253086905Y-59224200D02*
X253039286Y-59176580D01*
X253039286Y-59176580D02*
X252991667Y-59081342D01*
X252991667Y-59081342D02*
X252991667Y-58986104D01*
X252991667Y-58986104D02*
X253039286Y-58890866D01*
X253039286Y-58890866D02*
X253086905Y-58843247D01*
X253086905Y-58843247D02*
X253182143Y-58795628D01*
X253182143Y-58795628D02*
X253372619Y-58748009D01*
X253372619Y-58748009D02*
X253467857Y-58700390D01*
X253467857Y-58700390D02*
X253515476Y-58652771D01*
X253515476Y-58652771D02*
X253563095Y-58557533D01*
X253563095Y-58557533D02*
X253563095Y-58462295D01*
X253563095Y-58462295D02*
X253515476Y-58367057D01*
X253515476Y-58367057D02*
X253467857Y-58319438D01*
X253467857Y-58319438D02*
X253372619Y-58271819D01*
X253372619Y-58271819D02*
X253134524Y-58271819D01*
X253134524Y-58271819D02*
X252991667Y-58319438D01*
X252182143Y-59224200D02*
X252277381Y-59271819D01*
X252277381Y-59271819D02*
X252467857Y-59271819D01*
X252467857Y-59271819D02*
X252563095Y-59224200D01*
X252563095Y-59224200D02*
X252610714Y-59128961D01*
X252610714Y-59128961D02*
X252610714Y-58748009D01*
X252610714Y-58748009D02*
X252563095Y-58652771D01*
X252563095Y-58652771D02*
X252467857Y-58605152D01*
X252467857Y-58605152D02*
X252277381Y-58605152D01*
X252277381Y-58605152D02*
X252182143Y-58652771D01*
X252182143Y-58652771D02*
X252134524Y-58748009D01*
X252134524Y-58748009D02*
X252134524Y-58843247D01*
X252134524Y-58843247D02*
X252610714Y-58938485D01*
X251705952Y-58605152D02*
X251705952Y-59271819D01*
X251705952Y-58700390D02*
X251658333Y-58652771D01*
X251658333Y-58652771D02*
X251563095Y-58605152D01*
X251563095Y-58605152D02*
X251420238Y-58605152D01*
X251420238Y-58605152D02*
X251325000Y-58652771D01*
X251325000Y-58652771D02*
X251277381Y-58748009D01*
X251277381Y-58748009D02*
X251277381Y-59271819D01*
X250848809Y-59224200D02*
X250753571Y-59271819D01*
X250753571Y-59271819D02*
X250563095Y-59271819D01*
X250563095Y-59271819D02*
X250467857Y-59224200D01*
X250467857Y-59224200D02*
X250420238Y-59128961D01*
X250420238Y-59128961D02*
X250420238Y-59081342D01*
X250420238Y-59081342D02*
X250467857Y-58986104D01*
X250467857Y-58986104D02*
X250563095Y-58938485D01*
X250563095Y-58938485D02*
X250705952Y-58938485D01*
X250705952Y-58938485D02*
X250801190Y-58890866D01*
X250801190Y-58890866D02*
X250848809Y-58795628D01*
X250848809Y-58795628D02*
X250848809Y-58748009D01*
X250848809Y-58748009D02*
X250801190Y-58652771D01*
X250801190Y-58652771D02*
X250705952Y-58605152D01*
X250705952Y-58605152D02*
X250563095Y-58605152D01*
X250563095Y-58605152D02*
X250467857Y-58652771D01*
X249848809Y-59271819D02*
X249944047Y-59224200D01*
X249944047Y-59224200D02*
X249991666Y-59176580D01*
X249991666Y-59176580D02*
X250039285Y-59081342D01*
X250039285Y-59081342D02*
X250039285Y-58795628D01*
X250039285Y-58795628D02*
X249991666Y-58700390D01*
X249991666Y-58700390D02*
X249944047Y-58652771D01*
X249944047Y-58652771D02*
X249848809Y-58605152D01*
X249848809Y-58605152D02*
X249705952Y-58605152D01*
X249705952Y-58605152D02*
X249610714Y-58652771D01*
X249610714Y-58652771D02*
X249563095Y-58700390D01*
X249563095Y-58700390D02*
X249515476Y-58795628D01*
X249515476Y-58795628D02*
X249515476Y-59081342D01*
X249515476Y-59081342D02*
X249563095Y-59176580D01*
X249563095Y-59176580D02*
X249610714Y-59224200D01*
X249610714Y-59224200D02*
X249705952Y-59271819D01*
X249705952Y-59271819D02*
X249848809Y-59271819D01*
X249086904Y-59271819D02*
X249086904Y-58605152D01*
X249086904Y-58795628D02*
X249039285Y-58700390D01*
X249039285Y-58700390D02*
X248991666Y-58652771D01*
X248991666Y-58652771D02*
X248896428Y-58605152D01*
X248896428Y-58605152D02*
X248801190Y-58605152D01*
X248515475Y-59224200D02*
X248420237Y-59271819D01*
X248420237Y-59271819D02*
X248229761Y-59271819D01*
X248229761Y-59271819D02*
X248134523Y-59224200D01*
X248134523Y-59224200D02*
X248086904Y-59128961D01*
X248086904Y-59128961D02*
X248086904Y-59081342D01*
X248086904Y-59081342D02*
X248134523Y-58986104D01*
X248134523Y-58986104D02*
X248229761Y-58938485D01*
X248229761Y-58938485D02*
X248372618Y-58938485D01*
X248372618Y-58938485D02*
X248467856Y-58890866D01*
X248467856Y-58890866D02*
X248515475Y-58795628D01*
X248515475Y-58795628D02*
X248515475Y-58748009D01*
X248515475Y-58748009D02*
X248467856Y-58652771D01*
X248467856Y-58652771D02*
X248372618Y-58605152D01*
X248372618Y-58605152D02*
X248229761Y-58605152D01*
X248229761Y-58605152D02*
X248134523Y-58652771D01*
D11*
G04 #@! TO.C,J8*
X204995000Y-28846000D02*
X207755000Y-28846000D01*
X204995000Y-34036000D02*
X204995000Y-28846000D01*
X204995000Y-34036000D02*
X207755000Y-34036000D01*
X204995000Y-35306000D02*
X204995000Y-36686000D01*
X204995000Y-36686000D02*
X206375000Y-36686000D01*
X207755000Y-34036000D02*
X207755000Y-28846000D01*
G04 #@! TO.C,J1*
X204995000Y-59817000D02*
X204995000Y-72627000D01*
X207755000Y-57167000D02*
X206375000Y-57167000D01*
X207755000Y-58547000D02*
X207755000Y-57167000D01*
X207755000Y-59817000D02*
X204995000Y-59817000D01*
X207755000Y-59817000D02*
X207755000Y-72627000D01*
X207755000Y-72627000D02*
X204995000Y-72627000D01*
G04 #@! TO.C,J6*
X249699000Y-39640000D02*
X249699000Y-57530000D01*
X252459000Y-36990000D02*
X251079000Y-36990000D01*
X252459000Y-38370000D02*
X252459000Y-36990000D01*
X252459000Y-39640000D02*
X249699000Y-39640000D01*
X252459000Y-39640000D02*
X252459000Y-57530000D01*
X252459000Y-57530000D02*
X249699000Y-57530000D01*
G04 #@! TD*
%LPC*%
D12*
G04 #@! TO.C,J5*
X235839000Y-71247000D03*
D13*
X238379000Y-71247000D03*
X240919000Y-71247000D03*
X243459000Y-71247000D03*
X245999000Y-71247000D03*
X248539000Y-71247000D03*
G04 #@! TD*
D12*
G04 #@! TO.C,J4*
X245237000Y-35449000D03*
D13*
X242697000Y-35449000D03*
X240157000Y-35449000D03*
X237617000Y-35449000D03*
X235077000Y-35449000D03*
G04 #@! TD*
D12*
G04 #@! TO.C,J8*
X206375000Y-35306000D03*
D13*
X206375000Y-32766000D03*
X206375000Y-30226000D03*
G04 #@! TD*
D12*
G04 #@! TO.C,J1*
X206375000Y-58547000D03*
D13*
X206375000Y-61087000D03*
X206375000Y-63627000D03*
X206375000Y-66167000D03*
X206375000Y-68707000D03*
X206375000Y-71247000D03*
G04 #@! TD*
D12*
G04 #@! TO.C,J6*
X251079000Y-38370000D03*
D13*
X251079000Y-40910000D03*
X251079000Y-43450000D03*
X251079000Y-45990000D03*
X251079000Y-48530000D03*
X251079000Y-51070000D03*
X251079000Y-53610000D03*
X251079000Y-56150000D03*
G04 #@! TD*
%LPD*%
M02*
