<?xml version="1.0" encoding="UTF-8"?>
<svg width="100pt" height="100pt" version="1.1" viewBox="0 0 100 100" xmlns="http://www.w3.org/2000/svg">
 <path d="m50 22.801c16.695 0 30.227 13.535 30.227 30.227 0 9.8828-4.7422 18.656-12.07 24.172l-5.3086-7.2812 2.1719-1.8672 3.6367 4.9883c5.3594-5 8.7188-12.117 8.7188-20.012 0-15.094-12.281-27.371-27.375-27.371s-27.375 12.277-27.375 27.371c0 7.8789 3.3516 14.988 8.6953 19.984l3.6289-4.9961 2.1641 1.875-5.2891 7.293c-7.3203-5.5195-12.055-14.281-12.055-24.156 0-16.691 13.535-30.227 30.23-30.227zm-7.8555 11.324 8.6719 14.902c1.8633 0.37891 3.2695 2.0273 3.2695 4 0 2.2578-1.8281 4.0859-4.0859 4.0859-2.2539 0-4.0859-1.8281-4.0859-4.0859 0-0.65625 0.17188-1.2695 0.44922-1.8203l-6.9297-15.703z" fill-rule="evenodd"/>
</svg>
