<?xml version="1.0" encoding="UTF-8"?>
<svg width="100pt" height="100pt" version="1.1" viewBox="0 0 100 100" xmlns="http://www.w3.org/2000/svg">
 <path d="m50.195 45.66c2.3984 0 4.3398 1.9453 4.3398 4.3438 0 2.3945-1.9414 4.3398-4.3398 4.3398-1.832 0-3.3984-1.1367-4.0352-2.7383h-22.379v-3.1992h22.379c0.63672-1.6094 2.2031-2.7461 4.0352-2.7461zm-0.19531 52.809c6.543 0 12.891-1.2812 18.867-3.8086 5.7695-2.4414 10.953-5.9336 15.402-10.387 4.4492-4.4492 7.9453-9.6328 10.387-15.406 2.5273-5.9766 3.8086-12.324 3.8086-18.867s-1.2812-12.891-3.8086-18.867c-2.4414-5.7734-5.9375-10.953-10.387-15.406-4.4492-4.4492-9.6328-7.9453-15.402-10.387-5.9766-2.5234-12.328-3.8086-18.867-3.8086-6.543 0-12.891 1.2812-18.867 3.8125-5.7734 2.4414-10.953 5.9336-15.406 10.387-4.4492 4.4492-7.9453 9.6328-10.387 15.406-2.5234 5.9727-3.8086 12.32-3.8086 18.863s1.2812 12.891 3.8086 18.867c2.4414 5.7734 5.9375 10.953 10.387 15.406 4.4492 4.4492 9.6328 7.9453 15.406 10.387 5.9766 2.5234 12.324 3.8086 18.867 3.8086zm0-93.574c24.871 0 45.105 20.234 45.105 45.105s-20.234 45.105-45.105 45.105-45.105-20.234-45.105-45.105 20.234-45.105 45.105-45.105zm-5.3086 5.8125-1.7852 0.28125 1.7109 10.793 1.7852-0.28125zm-6.0859 1.3125-1.7188 0.55859 3.375 10.395 1.7188-0.55859zm-5.7969 2.25-1.6094 0.82031 4.9609 9.7383 1.6094-0.82031zm-5.3789 3.1289-1.4609 1.0625 6.4258 8.8398 1.4609-1.0625zm-4.8203 3.9336-1.2773 1.2773 7.7266 7.7266 1.2773-1.2773zm-4.1484 4.6367-1.0625 1.4609 8.8398 6.4219 1.0625-1.4609zm-3.3711 5.2305-0.82031 1.6094 9.7344 4.9609 0.82031-1.6094zm-2.5117 5.6953-0.55859 1.7148 10.395 3.3789 0.55859-1.7188zm-1.5898 6.0156-0.28125 1.7812 10.793 1.7109 0.28125-1.7852zm-3.2695 5.4922v3.1992h13.57v-3.1992zm70.949 0v3.1992h13.57v-3.1992zm-30.27-27.07h3.1992v-13.57h-3.1992zm40.895 23.359-0.28125-1.7812-10.797 1.707 0.28516 1.7812zm-1.3125-6.082-0.55859-1.7188-10.395 3.375 0.55859 1.7188zm-2.25-5.8008-0.82031-1.6094-9.7344 4.9609 0.82031 1.6094zm-3.1289-5.3789-1.0625-1.4609-8.8398 6.4219 1.0625 1.4609zm-3.9336-4.8203-1.2773-1.2773-7.7266 7.7266 1.2773 1.2773zm-4.6367-4.1484-1.4609-1.0625-6.4258 8.8398 1.4609 1.0625zm-5.2305-3.3711-1.6094-0.82031-4.9609 9.7383 1.6094 0.82031zm-5.6953-2.5117-1.7188-0.55859-3.3789 10.395 1.7188 0.55859zm-6.0117-1.5898-1.7812-0.28125-1.7148 10.793 1.7852 0.28125zm-7.0469 70.5c1.8359 0 3.3242-1.4883 3.3242-3.3242 0-1.1016-0.53906-2.0742-1.3633-2.6797v-2.7891c0.007813 0 0.015626 0.003907 0.023438 0.003907h2.2773c0.19922 0 0.36328-0.15625 0.36328-0.34766v-1.0039c0-0.19141-0.16406-0.34766-0.36328-0.34766h-2.2773c-0.007812 0-0.015625 0.003906-0.023438 0.003906v-2.4102c0.007813 0 0.015626 0.003906 0.023438 0.003906h2.2773c0.19922 0 0.36328-0.15625 0.36328-0.34766v-1.0039c0-0.19141-0.16406-0.34766-0.36328-0.34766h-2.2773c-0.007812 0-0.015625 0-0.023438 0.003906v-2.4102c0.007813 0 0.015626 0.003906 0.023438 0.003906h2.2773c0.19922 0 0.36328-0.15625 0.36328-0.35156v-1c0-0.19141-0.16406-0.34766-0.36328-0.34766h-2.2773c-0.007812 0-0.015625 0.003906-0.023438 0.003906v-0.96094c0-1.082-0.87891-1.9609-1.9648-1.9609-1.082 0-1.9609 0.87891-1.9609 1.9609v13.652c-0.82422 0.60547-1.3633 1.5781-1.3633 2.6797 0.003906 1.8242 1.4922 3.3164 3.3281 3.3164zm3.875-5.1406c0.23828 0.52734 0.37109 1.1133 0.37109 1.7305 0 0.050781-0.003907 0.097656-0.003907 0.14453 0.57422-0.12891 1.2695-0.007812 2.0781 0.74609 1.707 1.5859 3.8398 1.6055 5.8555 0.058594 1.2852-0.98828 1.9609-0.96094 1.9648-0.96094-0.046875-0.003906-0.066406-0.011718-0.066406-0.011718l0.39453-1.875c-0.32031-0.066407-1.5195-0.17188-3.4648 1.3281-1.2852 0.98828-2.3594 1.0078-3.3789 0.058594-1.1719-1.0898-2.4727-1.4961-3.75-1.2188zm-18.109 1.7148c0.007812 0 0.68359-0.027344 1.9688 0.96094 2.0117 1.5508 4.1445 1.5273 5.8516-0.058594 0.875-0.8125 1.6172-0.89453 2.2148-0.71094-0.003906-0.058594-0.003906-0.11719-0.003906-0.17969 0-0.60547 0.12891-1.1836 0.35938-1.7031-1.3164-0.32812-2.6641 0.066406-3.8711 1.1875-1.0234 0.94922-2.0977 0.92969-3.3789-0.058594-1.9492-1.5-3.1445-1.3945-3.4688-1.3281l0.39844 1.875c0 0.007813-0.023437 0.015625-0.070312 0.015625zm25.238 4.3203c-1.2852 0.98828-2.3594 1.0078-3.3789 0.058594-1.7422-1.6172-3.7852-1.7344-5.5977-0.3125-0.79297 0.62109-1.3945 1.0078-1.9453 1.0156-0.042968 0.003907-0.085937 0.003907-0.125 0.011719-0.042968-0.007812-0.085937-0.011719-0.125-0.011719-0.55078-0.007812-1.1523-0.39453-1.9453-1.0156-1.8125-1.4219-3.8516-1.3047-5.5977 0.3125-1.0234 0.94922-2.0977 0.93359-3.3789-0.058594-1.9492-1.5-3.1445-1.3945-3.4688-1.3242l0.39844 1.875s-0.023438 0.007812-0.066407 0.011718c0.007813 0 0.68359-0.03125 1.9688 0.96094 2.0117 1.5508 4.1445 1.5273 5.8516-0.058594 1.3867-1.2891 2.4414-0.73438 3.1133-0.21094 0.90625 0.71094 1.8945 1.4062 3.1016 1.4258h0.015625c0.046875 0 0.09375-0.007812 0.14062-0.015625 0.046875 0.007813 0.09375 0.015625 0.14062 0.015625h0.015625c1.207-0.019531 2.1914-0.71484 3.1016-1.4258 0.67188-0.52734 1.7266-1.0781 3.1133 0.21094 1.707 1.5859 3.8398 1.6055 5.8555 0.058594 1.2852-0.98828 1.9609-0.96094 1.9648-0.96094-0.046875-0.003906-0.066406-0.011718-0.066406-0.011718l0.39453-1.875c-0.33594-0.070313-1.5352-0.17578-3.4805 1.3242z"/>
</svg>
