%TF.GenerationSoftware,KiCad,Pcbnew,9.0.1*%
%TF.CreationDate,2025-09-29T10:10:38-04:00*%
%TF.ProjectId,LP_breakout,4c505f62-7265-4616-9b6f-75742e6b6963,rev?*%
%TF.SameCoordinates,Original*%
%TF.FileFunction,Legend,Top*%
%TF.FilePolarity,Positive*%
%FSLAX46Y46*%
G04 Gerber Fmt 4.6, Leading zero omitted, Abs format (unit mm)*
G04 Created by KiCad (PCBNEW 9.0.1) date 2025-09-29 10:10:38*
%MOMM*%
%LPD*%
G01*
G04 APERTURE LIST*
%ADD10C,0.254000*%
%ADD11C,0.150000*%
%ADD12C,0.200000*%
%ADD13C,0.120000*%
G04 APERTURE END LIST*
D10*
X74534318Y-98640332D02*
X75441461Y-98640332D01*
X75441461Y-98640332D02*
X75622889Y-98700809D01*
X75622889Y-98700809D02*
X75743842Y-98821761D01*
X75743842Y-98821761D02*
X75804318Y-99003190D01*
X75804318Y-99003190D02*
X75804318Y-99124142D01*
X75804318Y-97975094D02*
X75804318Y-97733190D01*
X75804318Y-97733190D02*
X75743842Y-97612237D01*
X75743842Y-97612237D02*
X75683365Y-97551761D01*
X75683365Y-97551761D02*
X75501937Y-97430809D01*
X75501937Y-97430809D02*
X75260032Y-97370332D01*
X75260032Y-97370332D02*
X74776222Y-97370332D01*
X74776222Y-97370332D02*
X74655270Y-97430809D01*
X74655270Y-97430809D02*
X74594794Y-97491285D01*
X74594794Y-97491285D02*
X74534318Y-97612237D01*
X74534318Y-97612237D02*
X74534318Y-97854142D01*
X74534318Y-97854142D02*
X74594794Y-97975094D01*
X74594794Y-97975094D02*
X74655270Y-98035571D01*
X74655270Y-98035571D02*
X74776222Y-98096047D01*
X74776222Y-98096047D02*
X75078603Y-98096047D01*
X75078603Y-98096047D02*
X75199556Y-98035571D01*
X75199556Y-98035571D02*
X75260032Y-97975094D01*
X75260032Y-97975094D02*
X75320508Y-97854142D01*
X75320508Y-97854142D02*
X75320508Y-97612237D01*
X75320508Y-97612237D02*
X75260032Y-97491285D01*
X75260032Y-97491285D02*
X75199556Y-97430809D01*
X75199556Y-97430809D02*
X75078603Y-97370332D01*
X74434318Y-72340332D02*
X75341461Y-72340332D01*
X75341461Y-72340332D02*
X75522889Y-72400809D01*
X75522889Y-72400809D02*
X75643842Y-72521761D01*
X75643842Y-72521761D02*
X75704318Y-72703190D01*
X75704318Y-72703190D02*
X75704318Y-72824142D01*
X74434318Y-71856523D02*
X74434318Y-71009856D01*
X74434318Y-71009856D02*
X75704318Y-71554142D01*
D11*
X92554819Y-39646833D02*
X93269104Y-39646833D01*
X93269104Y-39646833D02*
X93411961Y-39694452D01*
X93411961Y-39694452D02*
X93507200Y-39789690D01*
X93507200Y-39789690D02*
X93554819Y-39932547D01*
X93554819Y-39932547D02*
X93554819Y-40027785D01*
X93554819Y-38646833D02*
X93554819Y-39218261D01*
X93554819Y-38932547D02*
X92554819Y-38932547D01*
X92554819Y-38932547D02*
X92697676Y-39027785D01*
X92697676Y-39027785D02*
X92792914Y-39123023D01*
X92792914Y-39123023D02*
X92840533Y-39218261D01*
D10*
X74534318Y-85490332D02*
X75441461Y-85490332D01*
X75441461Y-85490332D02*
X75622889Y-85550809D01*
X75622889Y-85550809D02*
X75743842Y-85671761D01*
X75743842Y-85671761D02*
X75804318Y-85853190D01*
X75804318Y-85853190D02*
X75804318Y-85974142D01*
X75078603Y-84704142D02*
X75018127Y-84825094D01*
X75018127Y-84825094D02*
X74957651Y-84885571D01*
X74957651Y-84885571D02*
X74836699Y-84946047D01*
X74836699Y-84946047D02*
X74776222Y-84946047D01*
X74776222Y-84946047D02*
X74655270Y-84885571D01*
X74655270Y-84885571D02*
X74594794Y-84825094D01*
X74594794Y-84825094D02*
X74534318Y-84704142D01*
X74534318Y-84704142D02*
X74534318Y-84462237D01*
X74534318Y-84462237D02*
X74594794Y-84341285D01*
X74594794Y-84341285D02*
X74655270Y-84280809D01*
X74655270Y-84280809D02*
X74776222Y-84220332D01*
X74776222Y-84220332D02*
X74836699Y-84220332D01*
X74836699Y-84220332D02*
X74957651Y-84280809D01*
X74957651Y-84280809D02*
X75018127Y-84341285D01*
X75018127Y-84341285D02*
X75078603Y-84462237D01*
X75078603Y-84462237D02*
X75078603Y-84704142D01*
X75078603Y-84704142D02*
X75139080Y-84825094D01*
X75139080Y-84825094D02*
X75199556Y-84885571D01*
X75199556Y-84885571D02*
X75320508Y-84946047D01*
X75320508Y-84946047D02*
X75562413Y-84946047D01*
X75562413Y-84946047D02*
X75683365Y-84885571D01*
X75683365Y-84885571D02*
X75743842Y-84825094D01*
X75743842Y-84825094D02*
X75804318Y-84704142D01*
X75804318Y-84704142D02*
X75804318Y-84462237D01*
X75804318Y-84462237D02*
X75743842Y-84341285D01*
X75743842Y-84341285D02*
X75683365Y-84280809D01*
X75683365Y-84280809D02*
X75562413Y-84220332D01*
X75562413Y-84220332D02*
X75320508Y-84220332D01*
X75320508Y-84220332D02*
X75199556Y-84280809D01*
X75199556Y-84280809D02*
X75139080Y-84341285D01*
X75139080Y-84341285D02*
X75078603Y-84462237D01*
X74534318Y-59190332D02*
X75441461Y-59190332D01*
X75441461Y-59190332D02*
X75622889Y-59250809D01*
X75622889Y-59250809D02*
X75743842Y-59371761D01*
X75743842Y-59371761D02*
X75804318Y-59553190D01*
X75804318Y-59553190D02*
X75804318Y-59674142D01*
X74534318Y-58041285D02*
X74534318Y-58283190D01*
X74534318Y-58283190D02*
X74594794Y-58404142D01*
X74594794Y-58404142D02*
X74655270Y-58464618D01*
X74655270Y-58464618D02*
X74836699Y-58585571D01*
X74836699Y-58585571D02*
X75078603Y-58646047D01*
X75078603Y-58646047D02*
X75562413Y-58646047D01*
X75562413Y-58646047D02*
X75683365Y-58585571D01*
X75683365Y-58585571D02*
X75743842Y-58525094D01*
X75743842Y-58525094D02*
X75804318Y-58404142D01*
X75804318Y-58404142D02*
X75804318Y-58162237D01*
X75804318Y-58162237D02*
X75743842Y-58041285D01*
X75743842Y-58041285D02*
X75683365Y-57980809D01*
X75683365Y-57980809D02*
X75562413Y-57920332D01*
X75562413Y-57920332D02*
X75260032Y-57920332D01*
X75260032Y-57920332D02*
X75139080Y-57980809D01*
X75139080Y-57980809D02*
X75078603Y-58041285D01*
X75078603Y-58041285D02*
X75018127Y-58162237D01*
X75018127Y-58162237D02*
X75018127Y-58404142D01*
X75018127Y-58404142D02*
X75078603Y-58525094D01*
X75078603Y-58525094D02*
X75139080Y-58585571D01*
X75139080Y-58585571D02*
X75260032Y-58646047D01*
D12*
%TO.C,J9*%
X73880000Y-87918000D02*
X83080000Y-87918000D01*
X73880000Y-99818000D02*
X73880000Y-87918000D01*
X81880000Y-99818000D02*
X73880000Y-99818000D01*
%TO.C,J7*%
X73880000Y-61618000D02*
X83080000Y-61618000D01*
X73880000Y-73518000D02*
X73880000Y-61618000D01*
X81880000Y-73518000D02*
X73880000Y-73518000D01*
D13*
%TO.C,J1*%
X74020000Y-31553500D02*
X74020000Y-47073500D01*
X87600000Y-30868500D02*
X88100000Y-31368500D01*
X88100000Y-31368500D02*
X88600000Y-30868500D01*
X88600000Y-30868500D02*
X87600000Y-30868500D01*
X91980000Y-31553500D02*
X74020000Y-31553500D01*
X91980000Y-47073500D02*
X74020000Y-47073500D01*
X91980000Y-47073500D02*
X91980000Y-31553500D01*
D12*
%TO.C,J8*%
X73880000Y-74768000D02*
X83080000Y-74768000D01*
X73880000Y-86668000D02*
X73880000Y-74768000D01*
X81880000Y-86668000D02*
X73880000Y-86668000D01*
%TO.C,J6*%
X73880000Y-48468000D02*
X83080000Y-48468000D01*
X73880000Y-60368000D02*
X73880000Y-48468000D01*
X81880000Y-60368000D02*
X73880000Y-60368000D01*
%TD*%
M02*
