%TF.GenerationSoftware,KiCad,Pcbnew,9.0.1*%
%TF.CreationDate,2025-09-29T10:12:09-04:00*%
%TF.ProjectId,LP_breakout,4c505f62-7265-4616-9b6f-75742e6b6963,rev?*%
%TF.SameCoordinates,Original*%
%TF.FileFunction,Copper,L2,Bot*%
%TF.FilePolarity,Positive*%
%FSLAX46Y46*%
G04 Gerber Fmt 4.6, Leading zero omitted, Abs format (unit mm)*
G04 Created by KiCad (PCBNEW 9.0.1) date 2025-09-29 10:12:09*
%MOMM*%
%LPD*%
G01*
G04 APERTURE LIST*
%TA.AperFunction,ComponentPad*%
%ADD10R,2.025000X2.025000*%
%TD*%
%TA.AperFunction,ComponentPad*%
%ADD11C,2.025000*%
%TD*%
%TA.AperFunction,ComponentPad*%
%ADD12R,1.500000X1.500000*%
%TD*%
%TA.AperFunction,ComponentPad*%
%ADD13C,1.500000*%
%TD*%
%TA.AperFunction,ComponentPad*%
%ADD14R,1.700000X1.700000*%
%TD*%
%TA.AperFunction,ComponentPad*%
%ADD15C,1.700000*%
%TD*%
G04 APERTURE END LIST*
D10*
%TO.P,J9,1,Pin_1*%
%TO.N,/SDI_COMM*%
X81880000Y-97368000D03*
D11*
%TO.P,J9,2,Pin_2*%
%TO.N,/SDI_GND*%
X81880000Y-93868000D03*
%TO.P,J9,3,Pin_3*%
%TO.N,/SDI_PWR*%
X81880000Y-90368000D03*
%TD*%
D10*
%TO.P,J7,1,Pin_1*%
%TO.N,/SDI_COMM*%
X81880000Y-71068000D03*
D11*
%TO.P,J7,2,Pin_2*%
%TO.N,/SDI_GND*%
X81880000Y-67568000D03*
%TO.P,J7,3,Pin_3*%
%TO.N,/SDI_PWR*%
X81880000Y-64068000D03*
%TD*%
D12*
%TO.P,J1,1*%
%TO.N,/BTN_RST_{-}*%
X88100000Y-34868500D03*
D13*
%TO.P,J1,2*%
%TO.N,/BTN_RST_{+}*%
X90640000Y-36138500D03*
%TO.P,J1,3*%
%TO.N,/LED_HDD_{-}*%
X88100000Y-37408500D03*
%TO.P,J1,4*%
%TO.N,/BTN_PWR_{+}*%
X90640000Y-38678500D03*
%TO.P,J1,5*%
%TO.N,/BTN_PWR_{-}*%
X88100000Y-39948500D03*
%TO.P,J1,6*%
%TO.N,/LED_HDD_{+}*%
X90640000Y-41218500D03*
%TO.P,J1,7*%
%TO.N,/LED_PWR_{-}*%
X88100000Y-42488500D03*
%TO.P,J1,8*%
%TO.N,/LED_PWR_{+}*%
X90640000Y-43758500D03*
%TD*%
D10*
%TO.P,J8,1,Pin_1*%
%TO.N,/SDI_COMM*%
X81880000Y-84218000D03*
D11*
%TO.P,J8,2,Pin_2*%
%TO.N,/SDI_GND*%
X81880000Y-80718000D03*
%TO.P,J8,3,Pin_3*%
%TO.N,/SDI_PWR*%
X81880000Y-77218000D03*
%TD*%
D10*
%TO.P,J6,1,Pin_1*%
%TO.N,/SDI_COMM*%
X81880000Y-57918000D03*
D11*
%TO.P,J6,2,Pin_2*%
%TO.N,/SDI_GND*%
X81880000Y-54418000D03*
%TO.P,J6,3,Pin_3*%
%TO.N,/SDI_PWR*%
X81880000Y-50918000D03*
%TD*%
D14*
%TO.P,J3,1,Pin_1*%
%TO.N,/LED_PWR_{+}*%
X107750000Y-47710000D03*
D15*
%TO.P,J3,2,Pin_2*%
%TO.N,/LED_HDD_{+}*%
X110290000Y-47710000D03*
%TO.P,J3,3,Pin_3*%
%TO.N,/LED_PWR_{-}*%
X107750000Y-50250000D03*
%TO.P,J3,4,Pin_4*%
%TO.N,/LED_HDD_{-}*%
X110290000Y-50250000D03*
%TO.P,J3,5,Pin_5*%
%TO.N,/BTN_PWR_{-}*%
X107750000Y-52790000D03*
%TO.P,J3,6,Pin_6*%
%TO.N,/BTN_RST_{+}*%
X110290000Y-52790000D03*
%TO.P,J3,7,Pin_7*%
%TO.N,/BTN_PWR_{+}*%
X107750000Y-55330000D03*
%TO.P,J3,8,Pin_8*%
%TO.N,/BTN_RST_{-}*%
X110290000Y-55330000D03*
%TD*%
D14*
%TO.P,J4,1,Pin_1*%
%TO.N,unconnected-(J4-Pin_1-Pad1)*%
X103000000Y-48350000D03*
D15*
%TO.P,J4,2,Pin_2*%
%TO.N,unconnected-(J4-Pin_2-Pad2)*%
X100460000Y-48350000D03*
%TO.P,J4,3,Pin_3*%
%TO.N,unconnected-(J4-Pin_3-Pad3)*%
X103000000Y-50890000D03*
%TO.P,J4,4,Pin_4*%
%TO.N,unconnected-(J4-Pin_4-Pad4)*%
X100460000Y-50890000D03*
%TO.P,J4,5,Pin_5*%
%TO.N,unconnected-(J4-Pin_5-Pad5)*%
X103000000Y-53430000D03*
%TO.P,J4,6,Pin_6*%
%TO.N,unconnected-(J4-Pin_6-Pad6)*%
X100460000Y-53430000D03*
%TO.P,J4,7,Pin_7*%
%TO.N,unconnected-(J4-Pin_7-Pad7)*%
X103000000Y-55970000D03*
%TO.P,J4,8,Pin_8*%
%TO.N,unconnected-(J4-Pin_8-Pad8)*%
X100460000Y-55970000D03*
%TO.P,J4,9,Pin_9*%
%TO.N,unconnected-(J4-Pin_9-Pad9)*%
X103000000Y-58510000D03*
%TO.P,J4,10,Pin_10*%
%TO.N,unconnected-(J4-Pin_10-Pad10)*%
X100460000Y-58510000D03*
%TO.P,J4,11,Pin_11*%
%TO.N,unconnected-(J4-Pin_11-Pad11)*%
X103000000Y-61050000D03*
%TO.P,J4,12,Pin_12*%
%TO.N,unconnected-(J4-Pin_12-Pad12)*%
X100460000Y-61050000D03*
%TO.P,J4,13,Pin_13*%
%TO.N,unconnected-(J4-Pin_13-Pad13)*%
X103000000Y-63590000D03*
%TO.P,J4,14,Pin_14*%
%TO.N,unconnected-(J4-Pin_14-Pad14)*%
X100460000Y-63590000D03*
%TO.P,J4,15,Pin_15*%
%TO.N,unconnected-(J4-Pin_15-Pad15)*%
X103000000Y-66130000D03*
%TO.P,J4,16,Pin_16*%
%TO.N,unconnected-(J4-Pin_16-Pad16)*%
X100460000Y-66130000D03*
%TO.P,J4,17,Pin_17*%
%TO.N,unconnected-(J4-Pin_17-Pad17)*%
X103000000Y-68670000D03*
%TO.P,J4,18,Pin_18*%
%TO.N,unconnected-(J4-Pin_18-Pad18)*%
X100460000Y-68670000D03*
%TO.P,J4,19,Pin_19*%
%TO.N,/SDI_COMM*%
X103000000Y-71210000D03*
%TO.P,J4,20,Pin_20*%
%TO.N,unconnected-(J4-Pin_20-Pad20)*%
X100460000Y-71210000D03*
%TO.P,J4,21,Pin_21*%
%TO.N,unconnected-(J4-Pin_21-Pad21)*%
X103000000Y-73750000D03*
%TO.P,J4,22,Pin_22*%
%TO.N,unconnected-(J4-Pin_22-Pad22)*%
X100460000Y-73750000D03*
%TO.P,J4,23,Pin_23*%
%TO.N,unconnected-(J4-Pin_23-Pad23)*%
X103000000Y-76290000D03*
%TO.P,J4,24,Pin_24*%
%TO.N,unconnected-(J4-Pin_24-Pad24)*%
X100460000Y-76290000D03*
%TO.P,J4,25,Pin_25*%
%TO.N,unconnected-(J4-Pin_25-Pad25)*%
X103000000Y-78830000D03*
%TO.P,J4,26,Pin_26*%
%TO.N,unconnected-(J4-Pin_26-Pad26)*%
X100460000Y-78830000D03*
%TO.P,J4,27,Pin_27*%
%TO.N,unconnected-(J4-Pin_27-Pad27)*%
X103000000Y-81370000D03*
%TO.P,J4,28,Pin_28*%
%TO.N,unconnected-(J4-Pin_28-Pad28)*%
X100460000Y-81370000D03*
%TO.P,J4,29,Pin_29*%
%TO.N,/SDI_PWR*%
X103000000Y-83910000D03*
%TO.P,J4,30,Pin_30*%
%TO.N,/SDI_GND*%
X100460000Y-83910000D03*
%TD*%
D14*
%TO.P,J5,1,Pin_1*%
%TO.N,unconnected-(J5-Pin_1-Pad1)*%
X103000000Y-89000000D03*
D15*
%TO.P,J5,2,Pin_2*%
%TO.N,unconnected-(J5-Pin_2-Pad2)*%
X100460000Y-89000000D03*
%TO.P,J5,3,Pin_3*%
%TO.N,unconnected-(J5-Pin_3-Pad3)*%
X103000000Y-91540000D03*
%TO.P,J5,4,Pin_4*%
%TO.N,unconnected-(J5-Pin_4-Pad4)*%
X100460000Y-91540000D03*
%TD*%
M02*
