%TF.GenerationSoftware,KiCad,Pcbnew,9.0.1*%
%TF.CreationDate,2025-09-29T10:12:09-04:00*%
%TF.ProjectId,LP_breakout,4c505f62-7265-4616-9b6f-75742e6b6963,rev?*%
%TF.SameCoordinates,Original*%
%TF.FileFunction,Legend,Bot*%
%TF.FilePolarity,Positive*%
%FSLAX46Y46*%
G04 Gerber Fmt 4.6, Leading zero omitted, Abs format (unit mm)*
G04 Created by KiCad (PCBNEW 9.0.1) date 2025-09-29 10:12:09*
%MOMM*%
%LPD*%
G01*
G04 APERTURE LIST*
%ADD10C,0.150000*%
%ADD11C,0.120000*%
G04 APERTURE END LIST*
D10*
X109353333Y-44394819D02*
X109353333Y-45109104D01*
X109353333Y-45109104D02*
X109400952Y-45251961D01*
X109400952Y-45251961D02*
X109496190Y-45347200D01*
X109496190Y-45347200D02*
X109639047Y-45394819D01*
X109639047Y-45394819D02*
X109734285Y-45394819D01*
X108972380Y-44394819D02*
X108353333Y-44394819D01*
X108353333Y-44394819D02*
X108686666Y-44775771D01*
X108686666Y-44775771D02*
X108543809Y-44775771D01*
X108543809Y-44775771D02*
X108448571Y-44823390D01*
X108448571Y-44823390D02*
X108400952Y-44871009D01*
X108400952Y-44871009D02*
X108353333Y-44966247D01*
X108353333Y-44966247D02*
X108353333Y-45204342D01*
X108353333Y-45204342D02*
X108400952Y-45299580D01*
X108400952Y-45299580D02*
X108448571Y-45347200D01*
X108448571Y-45347200D02*
X108543809Y-45394819D01*
X108543809Y-45394819D02*
X108829523Y-45394819D01*
X108829523Y-45394819D02*
X108924761Y-45347200D01*
X108924761Y-45347200D02*
X108972380Y-45299580D01*
X102063333Y-45424819D02*
X102063333Y-46139104D01*
X102063333Y-46139104D02*
X102110952Y-46281961D01*
X102110952Y-46281961D02*
X102206190Y-46377200D01*
X102206190Y-46377200D02*
X102349047Y-46424819D01*
X102349047Y-46424819D02*
X102444285Y-46424819D01*
X101158571Y-45758152D02*
X101158571Y-46424819D01*
X101396666Y-45377200D02*
X101634761Y-46091485D01*
X101634761Y-46091485D02*
X101015714Y-46091485D01*
X102063333Y-86074819D02*
X102063333Y-86789104D01*
X102063333Y-86789104D02*
X102110952Y-86931961D01*
X102110952Y-86931961D02*
X102206190Y-87027200D01*
X102206190Y-87027200D02*
X102349047Y-87074819D01*
X102349047Y-87074819D02*
X102444285Y-87074819D01*
X101110952Y-86074819D02*
X101587142Y-86074819D01*
X101587142Y-86074819D02*
X101634761Y-86551009D01*
X101634761Y-86551009D02*
X101587142Y-86503390D01*
X101587142Y-86503390D02*
X101491904Y-86455771D01*
X101491904Y-86455771D02*
X101253809Y-86455771D01*
X101253809Y-86455771D02*
X101158571Y-86503390D01*
X101158571Y-86503390D02*
X101110952Y-86551009D01*
X101110952Y-86551009D02*
X101063333Y-86646247D01*
X101063333Y-86646247D02*
X101063333Y-86884342D01*
X101063333Y-86884342D02*
X101110952Y-86979580D01*
X101110952Y-86979580D02*
X101158571Y-87027200D01*
X101158571Y-87027200D02*
X101253809Y-87074819D01*
X101253809Y-87074819D02*
X101491904Y-87074819D01*
X101491904Y-87074819D02*
X101587142Y-87027200D01*
X101587142Y-87027200D02*
X101634761Y-86979580D01*
D11*
%TO.C,J3*%
X106420000Y-46380000D02*
X106420000Y-47710000D01*
X106420000Y-48980000D02*
X106420000Y-56660000D01*
X107750000Y-46380000D02*
X106420000Y-46380000D01*
X109020000Y-46380000D02*
X109020000Y-48980000D01*
X109020000Y-48980000D02*
X106420000Y-48980000D01*
X111620000Y-46380000D02*
X109020000Y-46380000D01*
X111620000Y-46380000D02*
X111620000Y-56660000D01*
X111620000Y-56660000D02*
X106420000Y-56660000D01*
%TO.C,J4*%
X99080000Y-46970000D02*
X99080000Y-85290000D01*
X101730000Y-46970000D02*
X99080000Y-46970000D01*
X101730000Y-49620000D02*
X101730000Y-46970000D01*
X104380000Y-46970000D02*
X103000000Y-46970000D01*
X104380000Y-48350000D02*
X104380000Y-46970000D01*
X104380000Y-49620000D02*
X101730000Y-49620000D01*
X104380000Y-49620000D02*
X104380000Y-85290000D01*
X104380000Y-85290000D02*
X99080000Y-85290000D01*
%TO.C,J5*%
X99080000Y-87620000D02*
X99080000Y-92920000D01*
X101730000Y-87620000D02*
X99080000Y-87620000D01*
X101730000Y-90270000D02*
X101730000Y-87620000D01*
X104380000Y-87620000D02*
X103000000Y-87620000D01*
X104380000Y-89000000D02*
X104380000Y-87620000D01*
X104380000Y-90270000D02*
X101730000Y-90270000D01*
X104380000Y-90270000D02*
X104380000Y-92920000D01*
X104380000Y-92920000D02*
X99080000Y-92920000D01*
%TD*%
M02*
