M48
; DRILL file {KiCad 9.0.1} date 2025-09-29T10:11:04-0400
; FORMAT={-:-/ absolute / inch / decimal}
; #@! TF.CreationDate,2025-09-29T10:11:04-04:00
; #@! TF.GenerationSoftware,Kicad,Pcbnew,9.0.1
; #@! TF.FileFunction,Plated,1,2,PTH
FMAT,2
INCH
; #@! TA.AperFunction,Plated,PTH,ComponentDrill
T1C0.0299
; #@! TA.AperFunction,Plated,PTH,ComponentDrill
T2C0.0394
; #@! TA.AperFunction,Plated,PTH,ComponentDrill
T3C0.0531
%
G90
G05
T1
X3.4685Y-1.3728
X3.4685Y-1.4728
X3.4685Y-1.5728
X3.4685Y-1.6728
X3.5685Y-1.4228
X3.5685Y-1.5228
X3.5685Y-1.6228
X3.5685Y-1.7228
T2
X3.9551Y-1.9035
X3.9551Y-2.0035
X3.9551Y-2.1035
X3.9551Y-2.2035
X3.9551Y-2.3035
X3.9551Y-2.4035
X3.9551Y-2.5035
X3.9551Y-2.6035
X3.9551Y-2.7035
X3.9551Y-2.8035
X3.9551Y-2.9035
X3.9551Y-3.0035
X3.9551Y-3.1035
X3.9551Y-3.2035
X3.9551Y-3.3035
X3.9551Y-3.5039
X3.9551Y-3.6039
X4.0551Y-1.9035
X4.0551Y-2.0035
X4.0551Y-2.1035
X4.0551Y-2.2035
X4.0551Y-2.3035
X4.0551Y-2.4035
X4.0551Y-2.5035
X4.0551Y-2.6035
X4.0551Y-2.7035
X4.0551Y-2.8035
X4.0551Y-2.9035
X4.0551Y-3.0035
X4.0551Y-3.1035
X4.0551Y-3.2035
X4.0551Y-3.3035
X4.0551Y-3.5039
X4.0551Y-3.6039
X4.2421Y-1.8783
X4.2421Y-1.9783
X4.2421Y-2.0783
X4.2421Y-2.1783
X4.3421Y-1.8783
X4.3421Y-1.9783
X4.3421Y-2.0783
X4.3421Y-2.1783
T3
X3.2236Y-2.0046
X3.2236Y-2.1424
X3.2236Y-2.2802
X3.2236Y-2.5224
X3.2236Y-2.6602
X3.2236Y-2.798
X3.2236Y-3.0401
X3.2236Y-3.1779
X3.2236Y-3.3157
X3.2236Y-3.5578
X3.2236Y-3.6956
X3.2236Y-3.8334
M30
