ISO-10303-21;
HEADER;
/* Generated by software containing ST-Developer
 * from STEP Tools, Inc. (www.steptools.com) 
 */

FILE_DESCRIPTION(
/* description */ (''),
/* implementation_level */ '2;1');

FILE_NAME(
/* name */ 'Battery Terminal Cap v3.step',
/* time_stamp */ '2026-01-05T10:30:52-05:00',
/* author */ (''),
/* organization */ (''),
/* preprocessor_version */ 'ST-DEVELOPER v20.1',
/* originating_system */ 'Autodesk Translation Framework v14.17.0.0',
/* authorisation */ '');

FILE_SCHEMA (('AUTOMOTIVE_DESIGN { 1 0 10303 214 3 1 1 }'));
ENDSEC;

DATA;
#10=MECHANICAL_DESIGN_GEOMETRIC_PRESENTATION_REPRESENTATION('',(#13),#365);
#11=SHAPE_REPRESENTATION_RELATIONSHIP('SRR','None',#372,#12);
#12=ADVANCED_BREP_SHAPE_REPRESENTATION('',(#14),#364);
#13=STYLED_ITEM('',(#381),#14);
#14=MANIFOLD_SOLID_BREP('Body1',#212);
#15=TOROIDAL_SURFACE('',#231,10.,2.5);
#16=FACE_BOUND('',#43,.T.);
#17=FACE_BOUND('',#55,.T.);
#18=PLANE('',#229);
#19=PLANE('',#235);
#20=PLANE('',#237);
#21=PLANE('',#238);
#22=PLANE('',#239);
#23=PLANE('',#240);
#24=PLANE('',#241);
#25=PLANE('',#242);
#26=PLANE('',#243);
#27=PLANE('',#244);
#28=FACE_OUTER_BOUND('',#41,.T.);
#29=FACE_OUTER_BOUND('',#42,.T.);
#30=FACE_OUTER_BOUND('',#44,.T.);
#31=FACE_OUTER_BOUND('',#45,.T.);
#32=FACE_OUTER_BOUND('',#46,.T.);
#33=FACE_OUTER_BOUND('',#47,.T.);
#34=FACE_OUTER_BOUND('',#48,.T.);
#35=FACE_OUTER_BOUND('',#49,.T.);
#36=FACE_OUTER_BOUND('',#50,.T.);
#37=FACE_OUTER_BOUND('',#51,.T.);
#38=FACE_OUTER_BOUND('',#52,.T.);
#39=FACE_OUTER_BOUND('',#53,.T.);
#40=FACE_OUTER_BOUND('',#54,.T.);
#41=EDGE_LOOP('',(#145,#146,#147,#148));
#42=EDGE_LOOP('',(#149));
#43=EDGE_LOOP('',(#150));
#44=EDGE_LOOP('',(#151,#152,#153,#154));
#45=EDGE_LOOP('',(#155));
#46=EDGE_LOOP('',(#156,#157,#158,#159));
#47=EDGE_LOOP('',(#160,#161,#162,#163,#164,#165));
#48=EDGE_LOOP('',(#166,#167,#168,#169));
#49=EDGE_LOOP('',(#170,#171,#172,#173));
#50=EDGE_LOOP('',(#174,#175,#176,#177));
#51=EDGE_LOOP('',(#178,#179,#180,#181));
#52=EDGE_LOOP('',(#182,#183,#184,#185));
#53=EDGE_LOOP('',(#186,#187,#188,#189));
#54=EDGE_LOOP('',(#190));
#55=EDGE_LOOP('',(#191,#192,#193,#194,#195,#196));
#56=LINE('',#310,#76);
#57=LINE('',#323,#77);
#58=LINE('',#327,#78);
#59=LINE('',#329,#79);
#60=LINE('',#331,#80);
#61=LINE('',#333,#81);
#62=LINE('',#335,#82);
#63=LINE('',#336,#83);
#64=LINE('',#340,#84);
#65=LINE('',#341,#85);
#66=LINE('',#342,#86);
#67=LINE('',#345,#87);
#68=LINE('',#346,#88);
#69=LINE('',#349,#89);
#70=LINE('',#350,#90);
#71=LINE('',#353,#91);
#72=LINE('',#354,#92);
#73=LINE('',#357,#93);
#74=LINE('',#358,#94);
#75=LINE('',#360,#95);
#76=VECTOR('',#251,10.0000001490116);
#77=VECTOR('',#270,12.5);
#78=VECTOR('',#273,10.);
#79=VECTOR('',#274,10.);
#80=VECTOR('',#275,10.);
#81=VECTOR('',#276,10.);
#82=VECTOR('',#277,10.);
#83=VECTOR('',#278,10.);
#84=VECTOR('',#281,10.);
#85=VECTOR('',#282,10.);
#86=VECTOR('',#283,10.);
#87=VECTOR('',#286,10.);
#88=VECTOR('',#287,10.);
#89=VECTOR('',#290,10.);
#90=VECTOR('',#291,10.);
#91=VECTOR('',#294,10.);
#92=VECTOR('',#295,10.);
#93=VECTOR('',#298,10.);
#94=VECTOR('',#299,10.);
#95=VECTOR('',#302,10.);
#96=CIRCLE('',#227,10.0000001490116);
#97=CIRCLE('',#228,10.0000001490116);
#98=CIRCLE('',#230,12.5);
#99=CIRCLE('',#232,10.);
#100=CIRCLE('',#233,2.5);
#101=CIRCLE('',#234,12.5);
#102=VERTEX_POINT('',#307);
#103=VERTEX_POINT('',#309);
#104=VERTEX_POINT('',#313);
#105=VERTEX_POINT('',#316);
#106=VERTEX_POINT('',#318);
#107=VERTEX_POINT('',#325);
#108=VERTEX_POINT('',#326);
#109=VERTEX_POINT('',#328);
#110=VERTEX_POINT('',#330);
#111=VERTEX_POINT('',#332);
#112=VERTEX_POINT('',#334);
#113=VERTEX_POINT('',#338);
#114=VERTEX_POINT('',#339);
#115=VERTEX_POINT('',#344);
#116=VERTEX_POINT('',#348);
#117=VERTEX_POINT('',#352);
#118=VERTEX_POINT('',#356);
#119=EDGE_CURVE('',#102,#102,#96,.T.);
#120=EDGE_CURVE('',#102,#103,#56,.T.);
#121=EDGE_CURVE('',#103,#103,#97,.T.);
#122=EDGE_CURVE('',#104,#104,#98,.T.);
#123=EDGE_CURVE('',#105,#105,#99,.T.);
#124=EDGE_CURVE('',#105,#106,#100,.T.);
#125=EDGE_CURVE('',#106,#106,#101,.T.);
#126=EDGE_CURVE('',#106,#104,#57,.T.);
#127=EDGE_CURVE('',#107,#108,#58,.T.);
#128=EDGE_CURVE('',#108,#109,#59,.T.);
#129=EDGE_CURVE('',#109,#110,#60,.T.);
#130=EDGE_CURVE('',#110,#111,#61,.T.);
#131=EDGE_CURVE('',#111,#112,#62,.T.);
#132=EDGE_CURVE('',#112,#107,#63,.T.);
#133=EDGE_CURVE('',#113,#114,#64,.T.);
#134=EDGE_CURVE('',#114,#108,#65,.T.);
#135=EDGE_CURVE('',#113,#107,#66,.T.);
#136=EDGE_CURVE('',#115,#113,#67,.T.);
#137=EDGE_CURVE('',#115,#112,#68,.T.);
#138=EDGE_CURVE('',#116,#115,#69,.T.);
#139=EDGE_CURVE('',#116,#111,#70,.T.);
#140=EDGE_CURVE('',#117,#116,#71,.T.);
#141=EDGE_CURVE('',#117,#110,#72,.T.);
#142=EDGE_CURVE('',#118,#117,#73,.T.);
#143=EDGE_CURVE('',#118,#109,#74,.T.);
#144=EDGE_CURVE('',#114,#118,#75,.T.);
#145=ORIENTED_EDGE('',*,*,#119,.F.);
#146=ORIENTED_EDGE('',*,*,#120,.T.);
#147=ORIENTED_EDGE('',*,*,#121,.F.);
#148=ORIENTED_EDGE('',*,*,#120,.F.);
#149=ORIENTED_EDGE('',*,*,#122,.T.);
#150=ORIENTED_EDGE('',*,*,#119,.T.);
#151=ORIENTED_EDGE('',*,*,#123,.T.);
#152=ORIENTED_EDGE('',*,*,#124,.T.);
#153=ORIENTED_EDGE('',*,*,#125,.T.);
#154=ORIENTED_EDGE('',*,*,#124,.F.);
#155=ORIENTED_EDGE('',*,*,#123,.F.);
#156=ORIENTED_EDGE('',*,*,#125,.F.);
#157=ORIENTED_EDGE('',*,*,#126,.T.);
#158=ORIENTED_EDGE('',*,*,#122,.F.);
#159=ORIENTED_EDGE('',*,*,#126,.F.);
#160=ORIENTED_EDGE('',*,*,#127,.T.);
#161=ORIENTED_EDGE('',*,*,#128,.T.);
#162=ORIENTED_EDGE('',*,*,#129,.T.);
#163=ORIENTED_EDGE('',*,*,#130,.T.);
#164=ORIENTED_EDGE('',*,*,#131,.T.);
#165=ORIENTED_EDGE('',*,*,#132,.T.);
#166=ORIENTED_EDGE('',*,*,#133,.T.);
#167=ORIENTED_EDGE('',*,*,#134,.T.);
#168=ORIENTED_EDGE('',*,*,#127,.F.);
#169=ORIENTED_EDGE('',*,*,#135,.F.);
#170=ORIENTED_EDGE('',*,*,#136,.T.);
#171=ORIENTED_EDGE('',*,*,#135,.T.);
#172=ORIENTED_EDGE('',*,*,#132,.F.);
#173=ORIENTED_EDGE('',*,*,#137,.F.);
#174=ORIENTED_EDGE('',*,*,#138,.T.);
#175=ORIENTED_EDGE('',*,*,#137,.T.);
#176=ORIENTED_EDGE('',*,*,#131,.F.);
#177=ORIENTED_EDGE('',*,*,#139,.F.);
#178=ORIENTED_EDGE('',*,*,#140,.T.);
#179=ORIENTED_EDGE('',*,*,#139,.T.);
#180=ORIENTED_EDGE('',*,*,#130,.F.);
#181=ORIENTED_EDGE('',*,*,#141,.F.);
#182=ORIENTED_EDGE('',*,*,#142,.T.);
#183=ORIENTED_EDGE('',*,*,#141,.T.);
#184=ORIENTED_EDGE('',*,*,#129,.F.);
#185=ORIENTED_EDGE('',*,*,#143,.F.);
#186=ORIENTED_EDGE('',*,*,#144,.T.);
#187=ORIENTED_EDGE('',*,*,#143,.T.);
#188=ORIENTED_EDGE('',*,*,#128,.F.);
#189=ORIENTED_EDGE('',*,*,#134,.F.);
#190=ORIENTED_EDGE('',*,*,#121,.T.);
#191=ORIENTED_EDGE('',*,*,#144,.F.);
#192=ORIENTED_EDGE('',*,*,#133,.F.);
#193=ORIENTED_EDGE('',*,*,#136,.F.);
#194=ORIENTED_EDGE('',*,*,#138,.F.);
#195=ORIENTED_EDGE('',*,*,#140,.F.);
#196=ORIENTED_EDGE('',*,*,#142,.F.);
#197=CYLINDRICAL_SURFACE('',#226,10.0000001490116);
#198=CYLINDRICAL_SURFACE('',#236,12.5);
#199=ADVANCED_FACE('',(#28),#197,.F.);
#200=ADVANCED_FACE('',(#29,#16),#18,.F.);
#201=ADVANCED_FACE('',(#30),#15,.T.);
#202=ADVANCED_FACE('',(#31),#19,.T.);
#203=ADVANCED_FACE('',(#32),#198,.T.);
#204=ADVANCED_FACE('',(#33),#20,.F.);
#205=ADVANCED_FACE('',(#34),#21,.T.);
#206=ADVANCED_FACE('',(#35),#22,.T.);
#207=ADVANCED_FACE('',(#36),#23,.T.);
#208=ADVANCED_FACE('',(#37),#24,.T.);
#209=ADVANCED_FACE('',(#38),#25,.T.);
#210=ADVANCED_FACE('',(#39),#26,.T.);
#211=ADVANCED_FACE('',(#40,#17),#27,.F.);
#212=CLOSED_SHELL('',(#199,#200,#201,#202,#203,#204,#205,#206,#207,#208,
#209,#210,#211));
#213=DERIVED_UNIT_ELEMENT(#215,1.);
#214=DERIVED_UNIT_ELEMENT(#367,-3.);
#215=(
MASS_UNIT()
NAMED_UNIT(*)
SI_UNIT(.KILO.,.GRAM.)
);
#216=DERIVED_UNIT((#213,#214));
#217=MEASURE_REPRESENTATION_ITEM('density measure',
POSITIVE_RATIO_MEASURE(7850.),#216);
#218=PROPERTY_DEFINITION_REPRESENTATION(#223,#220);
#219=PROPERTY_DEFINITION_REPRESENTATION(#224,#221);
#220=REPRESENTATION('material name',(#222),#364);
#221=REPRESENTATION('density',(#217),#364);
#222=DESCRIPTIVE_REPRESENTATION_ITEM('Steel','Steel');
#223=PROPERTY_DEFINITION('material property','material name',#374);
#224=PROPERTY_DEFINITION('material property','density of part',#374);
#225=AXIS2_PLACEMENT_3D('',#305,#245,#246);
#226=AXIS2_PLACEMENT_3D('',#306,#247,#248);
#227=AXIS2_PLACEMENT_3D('',#308,#249,#250);
#228=AXIS2_PLACEMENT_3D('',#311,#252,#253);
#229=AXIS2_PLACEMENT_3D('',#312,#254,#255);
#230=AXIS2_PLACEMENT_3D('',#314,#256,#257);
#231=AXIS2_PLACEMENT_3D('',#315,#258,#259);
#232=AXIS2_PLACEMENT_3D('',#317,#260,#261);
#233=AXIS2_PLACEMENT_3D('',#319,#262,#263);
#234=AXIS2_PLACEMENT_3D('',#320,#264,#265);
#235=AXIS2_PLACEMENT_3D('',#321,#266,#267);
#236=AXIS2_PLACEMENT_3D('',#322,#268,#269);
#237=AXIS2_PLACEMENT_3D('',#324,#271,#272);
#238=AXIS2_PLACEMENT_3D('',#337,#279,#280);
#239=AXIS2_PLACEMENT_3D('',#343,#284,#285);
#240=AXIS2_PLACEMENT_3D('',#347,#288,#289);
#241=AXIS2_PLACEMENT_3D('',#351,#292,#293);
#242=AXIS2_PLACEMENT_3D('',#355,#296,#297);
#243=AXIS2_PLACEMENT_3D('',#359,#300,#301);
#244=AXIS2_PLACEMENT_3D('',#361,#303,#304);
#245=DIRECTION('axis',(0.,0.,1.));
#246=DIRECTION('refdir',(1.,0.,0.));
#247=DIRECTION('center_axis',(0.,0.,-1.));
#248=DIRECTION('ref_axis',(1.,0.,0.));
#249=DIRECTION('center_axis',(0.,0.,1.));
#250=DIRECTION('ref_axis',(1.,0.,0.));
#251=DIRECTION('',(0.,0.,1.));
#252=DIRECTION('center_axis',(0.,0.,-1.));
#253=DIRECTION('ref_axis',(1.,0.,0.));
#254=DIRECTION('center_axis',(0.,0.,1.));
#255=DIRECTION('ref_axis',(1.,0.,0.));
#256=DIRECTION('center_axis',(0.,0.,-1.));
#257=DIRECTION('ref_axis',(1.,0.,0.));
#258=DIRECTION('center_axis',(0.,0.,1.));
#259=DIRECTION('ref_axis',(1.,0.,0.));
#260=DIRECTION('center_axis',(0.,0.,-1.));
#261=DIRECTION('ref_axis',(-1.,0.,0.));
#262=DIRECTION('center_axis',(1.22464679914735E-16,-1.,0.));
#263=DIRECTION('ref_axis',(-1.,-1.22464679914735E-16,0.));
#264=DIRECTION('center_axis',(0.,0.,1.));
#265=DIRECTION('ref_axis',(-1.,0.,0.));
#266=DIRECTION('center_axis',(0.,0.,1.));
#267=DIRECTION('ref_axis',(-1.,0.,0.));
#268=DIRECTION('center_axis',(0.,0.,1.));
#269=DIRECTION('ref_axis',(1.,0.,0.));
#270=DIRECTION('',(0.,0.,-1.));
#271=DIRECTION('center_axis',(0.,0.,1.));
#272=DIRECTION('ref_axis',(-1.,0.,0.));
#273=DIRECTION('',(-1.,3.01641205707226E-16,0.));
#274=DIRECTION('',(-0.5,0.866025403784439,0.));
#275=DIRECTION('',(0.5,0.866025403784438,0.));
#276=DIRECTION('',(1.,-3.01641205707226E-16,0.));
#277=DIRECTION('',(0.499999999999999,-0.866025403784439,0.));
#278=DIRECTION('',(-0.500000000000001,-0.866025403784438,0.));
#279=DIRECTION('center_axis',(3.01641205707226E-16,1.,0.));
#280=DIRECTION('ref_axis',(-1.,3.01641205707226E-16,0.));
#281=DIRECTION('',(-1.,3.01641205707226E-16,0.));
#282=DIRECTION('',(0.,0.,1.));
#283=DIRECTION('',(0.,0.,1.));
#284=DIRECTION('center_axis',(-0.866025403784438,0.500000000000001,0.));
#285=DIRECTION('ref_axis',(-0.500000000000001,-0.866025403784438,0.));
#286=DIRECTION('',(-0.500000000000001,-0.866025403784438,0.));
#287=DIRECTION('',(0.,0.,1.));
#288=DIRECTION('center_axis',(-0.866025403784439,-0.499999999999999,0.));
#289=DIRECTION('ref_axis',(0.499999999999999,-0.866025403784439,0.));
#290=DIRECTION('',(0.499999999999999,-0.866025403784439,0.));
#291=DIRECTION('',(0.,0.,1.));
#292=DIRECTION('center_axis',(-3.01641205707226E-16,-1.,0.));
#293=DIRECTION('ref_axis',(1.,-3.01641205707226E-16,0.));
#294=DIRECTION('',(1.,-3.01641205707226E-16,0.));
#295=DIRECTION('',(0.,0.,1.));
#296=DIRECTION('center_axis',(0.866025403784438,-0.5,0.));
#297=DIRECTION('ref_axis',(0.5,0.866025403784438,0.));
#298=DIRECTION('',(0.5,0.866025403784438,0.));
#299=DIRECTION('',(0.,0.,1.));
#300=DIRECTION('center_axis',(0.866025403784439,0.5,0.));
#301=DIRECTION('ref_axis',(-0.5,0.866025403784439,0.));
#302=DIRECTION('',(-0.5,0.866025403784439,0.));
#303=DIRECTION('center_axis',(0.,0.,1.));
#304=DIRECTION('ref_axis',(1.,0.,0.));
#305=CARTESIAN_POINT('',(0.,0.,0.));
#306=CARTESIAN_POINT('Origin',(0.,0.,0.));
#307=CARTESIAN_POINT('',(-10.0000001490116,-1.22464681739601E-15,-10.));
#308=CARTESIAN_POINT('Origin',(0.,0.,-10.));
#309=CARTESIAN_POINT('',(-10.0000001490116,-1.22464681739601E-15,0.));
#310=CARTESIAN_POINT('',(-10.0000001490116,1.22464681739601E-15,0.));
#311=CARTESIAN_POINT('Origin',(0.,0.,0.));
#312=CARTESIAN_POINT('Origin',(0.,0.,-10.));
#313=CARTESIAN_POINT('',(-12.5,-1.53080849893419E-15,-10.));
#314=CARTESIAN_POINT('Origin',(0.,0.,-10.));
#315=CARTESIAN_POINT('Origin',(0.,0.,7.));
#316=CARTESIAN_POINT('',(-10.,-1.22464679914735E-15,9.5));
#317=CARTESIAN_POINT('Origin',(0.,0.,9.5));
#318=CARTESIAN_POINT('',(-12.5,-1.53080849893419E-15,7.));
#319=CARTESIAN_POINT('Origin',(-10.,-1.22464679914735E-15,7.));
#320=CARTESIAN_POINT('Origin',(0.,0.,7.));
#321=CARTESIAN_POINT('Origin',(0.,0.,9.5));
#322=CARTESIAN_POINT('Origin',(0.,0.,0.));
#323=CARTESIAN_POINT('',(-12.5,-1.53080849893419E-15,0.));
#324=CARTESIAN_POINT('Origin',(0.,0.,7.5));
#325=CARTESIAN_POINT('',(3.68060796608386,-6.375,7.5));
#326=CARTESIAN_POINT('',(-3.68060796608387,-6.375,7.5));
#327=CARTESIAN_POINT('',(-3.68060796608387,-6.375,7.5));
#328=CARTESIAN_POINT('',(-7.36121593216773,3.33066907387547E-15,7.5));
#329=CARTESIAN_POINT('',(-7.36121593216773,2.87096735274162E-15,7.5));
#330=CARTESIAN_POINT('',(-3.68060796608386,6.375,7.5));
#331=CARTESIAN_POINT('',(-3.68060796608386,6.375,7.5));
#332=CARTESIAN_POINT('',(3.68060796608387,6.375,7.5));
#333=CARTESIAN_POINT('',(3.68060796608387,6.375,7.5));
#334=CARTESIAN_POINT('',(7.36121593216773,-3.33066907387547E-15,7.5));
#335=CARTESIAN_POINT('',(7.36121593216773,-3.3957212042246E-15,7.5));
#336=CARTESIAN_POINT('',(3.68060796608386,-6.375,7.5));
#337=CARTESIAN_POINT('Origin',(3.68060796608386,-6.375,0.));
#338=CARTESIAN_POINT('',(3.68060796608386,-6.375,0.));
#339=CARTESIAN_POINT('',(-3.68060796608387,-6.375,0.));
#340=CARTESIAN_POINT('',(-3.68060796608387,-6.375,0.));
#341=CARTESIAN_POINT('',(-3.68060796608387,-6.375,0.));
#342=CARTESIAN_POINT('',(3.68060796608386,-6.375,0.));
#343=CARTESIAN_POINT('Origin',(7.36121593216773,-3.33066907387547E-15,0.));
#344=CARTESIAN_POINT('',(7.36121593216773,-3.3957212042246E-15,0.));
#345=CARTESIAN_POINT('',(3.68060796608386,-6.375,0.));
#346=CARTESIAN_POINT('',(7.36121593216773,-3.3957212042246E-15,0.));
#347=CARTESIAN_POINT('Origin',(3.68060796608387,6.375,0.));
#348=CARTESIAN_POINT('',(3.68060796608387,6.375,0.));
#349=CARTESIAN_POINT('',(7.36121593216773,-3.3957212042246E-15,0.));
#350=CARTESIAN_POINT('',(3.68060796608387,6.375,0.));
#351=CARTESIAN_POINT('Origin',(-3.68060796608386,6.375,0.));
#352=CARTESIAN_POINT('',(-3.68060796608386,6.375,0.));
#353=CARTESIAN_POINT('',(3.68060796608387,6.375,0.));
#354=CARTESIAN_POINT('',(-3.68060796608386,6.375,0.));
#355=CARTESIAN_POINT('Origin',(-7.36121593216773,3.33066907387547E-15,0.));
#356=CARTESIAN_POINT('',(-7.36121593216773,2.87096735274162E-15,0.));
#357=CARTESIAN_POINT('',(-3.68060796608386,6.375,0.));
#358=CARTESIAN_POINT('',(-7.36121593216773,2.87096735274162E-15,0.));
#359=CARTESIAN_POINT('Origin',(-3.68060796608387,-6.375,0.));
#360=CARTESIAN_POINT('',(-7.36121593216773,2.87096735274162E-15,0.));
#361=CARTESIAN_POINT('Origin',(0.,0.,0.));
#362=UNCERTAINTY_MEASURE_WITH_UNIT(LENGTH_MEASURE(0.01),#366,
'DISTANCE_ACCURACY_VALUE',
'Maximum model space distance between geometric entities at asserted c
onnectivities');
#363=UNCERTAINTY_MEASURE_WITH_UNIT(LENGTH_MEASURE(0.01),#366,
'DISTANCE_ACCURACY_VALUE',
'Maximum model space distance between geometric entities at asserted c
onnectivities');
#364=(
GEOMETRIC_REPRESENTATION_CONTEXT(3)
GLOBAL_UNCERTAINTY_ASSIGNED_CONTEXT((#362))
GLOBAL_UNIT_ASSIGNED_CONTEXT((#366,#368,#369))
REPRESENTATION_CONTEXT('','3D')
);
#365=(
GEOMETRIC_REPRESENTATION_CONTEXT(3)
GLOBAL_UNCERTAINTY_ASSIGNED_CONTEXT((#363))
GLOBAL_UNIT_ASSIGNED_CONTEXT((#366,#368,#369))
REPRESENTATION_CONTEXT('','3D')
);
#366=(
LENGTH_UNIT()
NAMED_UNIT(*)
SI_UNIT(.MILLI.,.METRE.)
);
#367=(
LENGTH_UNIT()
NAMED_UNIT(*)
SI_UNIT($,.METRE.)
);
#368=(
NAMED_UNIT(*)
PLANE_ANGLE_UNIT()
SI_UNIT($,.RADIAN.)
);
#369=(
NAMED_UNIT(*)
SI_UNIT($,.STERADIAN.)
SOLID_ANGLE_UNIT()
);
#370=SHAPE_DEFINITION_REPRESENTATION(#371,#372);
#371=PRODUCT_DEFINITION_SHAPE('',$,#374);
#372=SHAPE_REPRESENTATION('',(#225),#364);
#373=PRODUCT_DEFINITION_CONTEXT('part definition',#378,'design');
#374=PRODUCT_DEFINITION('Battery Terminal Cap',
'Battery Terminal Cap v3',#375,#373);
#375=PRODUCT_DEFINITION_FORMATION('',$,#380);
#376=PRODUCT_RELATED_PRODUCT_CATEGORY('Battery Terminal Cap v3',
'Battery Terminal Cap v3',(#380));
#377=APPLICATION_PROTOCOL_DEFINITION('international standard',
'automotive_design',2009,#378);
#378=APPLICATION_CONTEXT(
'Core Data for Automotive Mechanical Design Process');
#379=PRODUCT_CONTEXT('part definition',#378,'mechanical');
#380=PRODUCT('Battery Terminal Cap','Battery Terminal Cap v3',$,(#379));
#381=PRESENTATION_STYLE_ASSIGNMENT((#382));
#382=SURFACE_STYLE_USAGE(.BOTH.,#383);
#383=SURFACE_SIDE_STYLE('',(#384));
#384=SURFACE_STYLE_FILL_AREA(#385);
#385=FILL_AREA_STYLE('Steel - Satin',(#386));
#386=FILL_AREA_STYLE_COLOUR('Steel - Satin',#387);
#387=COLOUR_RGB('Steel - Satin',0.627450980392157,0.627450980392157,0.627450980392157);
ENDSEC;
END-ISO-10303-21;
